SplineFontDB: 3.2
FontName: SeriousShannsBold
FullName: Serious Shanns Bold
FamilyName: Serious Shanns Bold
Weight: Bold
Copyright: https://github.com/kaBeech/serious-shanns/blob/main/LICENSE
Version: 6.0.0
ItalicAngle: 0
UnderlinePosition: 0
UnderlineWidth: 0
Ascent: 800
Descent: 200
InvalidEm: 0
sfntRevision: 0x00003333
LayerCount: 2
Layer: 0 0 "Back" 1
Layer: 1 0 "Fore" 0
XUID: [1021 45 630387186 1689187]
StyleMap: 0x0040
FSType: 4
OS2Version: 3
OS2_WeightWidthSlopeOnly: 0
OS2_UseTypoMetrics: 0
CreationTime: 1532631502
ModificationTime: 315532800
PfmFamily: 81
TTFWeight: 700
TTFWidth: 5
LineGap: 0
VLineGap: 0
Panose: 0 0 0 0 0 0 0 0 0 0
OS2TypoAscent: 613
OS2TypoAOffset: 0
OS2TypoDescent: -188
OS2TypoDOffset: 0
OS2TypoLinegap: 98
OS2WinAscent: 778
OS2WinAOffset: 0
OS2WinDescent: 308
OS2WinDOffset: 0
HheadAscent: 796
HheadAOffset: 0
HheadDescent: -317
HheadDOffset: 0
OS2SubXSize: 317
OS2SubYSize: 293
OS2SubXOff: 0
OS2SubYOff: 37
OS2SupXSize: 317
OS2SupYSize: 293
OS2SupXOff: 0
OS2SupYOff: 171
OS2StrikeYSize: 0
OS2StrikeYPos: 132
OS2CapHeight: 576
OS2XHeight: 485
OS2Vendor: 'NONE'
OS2CodePages: 00000001.00000000
OS2UnicodeRanges: 00000001.00000000.00000000.00000000
MarkAttachClasses: 1
DEI: 91125
LangName: 1033 "" "" "Normal" "" "" "Version 0.2.0"
Encoding: UnicodeBmp
Compacted: 1
UnicodeInterp: none
NameList: AGL For New Fonts
DisplaySize: -48
AntiAlias: 1
FitToEm: 0
WinInfo: 0 16 14
BeginPrivate: 9
BlueValues 32 [-39 -6 502 523 708 718 765 769]
OtherBlues 11 [-297 -287]
BlueScale 9 0.0291667
BlueShift 1 2
StdHW 5 [110]
StdVW 5 [128]
StemSnapH 5 [110]
StemSnapV 9 [128 134]
ForceBold 4 true
EndPrivate
BeginChars: 65537 105

StartChar: .notdef
Encoding: 65536 -1 0
Width: 650
GlyphClass: 1
Flags: W
HStem: -280 78<177 473> 683 78<177 473>
VStem: 99 78<-202 683> 473 78<-202 683>
LayerCount: 2
Fore
SplineSet
99 -280 m 1
 99 761 l 1
 551 761 l 1
 551 -280 l 1
 99 -280 l 1
177 683 m 1
 177 -202 l 1
 473 -202 l 1
 473 683 l 1
 177 683 l 1
EndSplineSet
Validated: 1
EndChar

StartChar: exclam
Encoding: 33 33 1
Width: 650
GlyphClass: 2
Flags: W
HStem: -37.002 179.001<268.347 385.352>
VStem: 231.481 187.037<-3.98231 106.918> 265.479 122.001<248.311 379.795> 273.479 115.001<294.405 784.434>
LayerCount: 2
Fore
SplineSet
395.479492188 738 m 0x90
 395.479492188 732 394.147460938 694.665039062 391.48046875 625.998046875 c 0
 389.48046875 557.331054688 388.48046875 502.331054688 388.48046875 460.998046875 c 0
 388.48046875 441.665039062 388.813476562 421.33203125 389.48046875 399.999023438 c 0
 390.147460938 379.33203125 390.48046875 361.33203125 390.48046875 345.999023438 c 0
 390.48046875 330.666015625 389.813476562 320.333007812 388.48046875 315 c 0x90
 387.813476562 309.666992188 387.48046875 302.666992188 387.48046875 294 c 0xa0
 387.48046875 285.333007812 387.813476562 277.333007812 388.48046875 270 c 0x90
 386.48046875 251.333007812 379.147460938 237 366.48046875 227 c 0
 355.147460938 217.666992188 341.48046875 212.666992188 325.48046875 212 c 2
 321.48046875 212 l 2
 304.813476562 212 291.147460938 218 280.479492188 230 c 0
 270.479492188 240 265.479492188 253.333007812 265.479492188 270 c 0xa0
 265.479492188 278 266.8125 288.333007812 269.479492188 301 c 0
 271.479492188 314.333007812 272.8125 324 273.479492188 330 c 0
 274.147460938 336 274.479492188 346.333007812 274.479492188 361 c 2
 274.479492188 402 l 2
 274.479492188 415.333007812 274.147460938 435.666015625 273.479492188 462.999023438 c 0
 272.147460938 494.999023438 271.479492188 525.666015625 271.479492188 554.999023438 c 2
 271.479492188 623.999023438 l 2
 272.147460938 640.666015625 272.813476562 661.333007812 273.48046875 686 c 0
 274.147460938 710.666992188 274.48046875 727 274.48046875 735 c 1
 275.147460938 756.333007812 281.48046875 773 293.48046875 785 c 0
 304.813476562 796.333007812 319.147460938 802 336.479492188 802 c 2
 339.479492188 802 l 2
 355.479492188 802 368.8125 796.666992188 379.479492188 786 c 0
 390.147460938 775.333007812 395.479492188 759.333007812 395.479492188 738 c 0x90
317.48046875 -37.001953125 m 2
 294.147460938 -37.001953125 274.481445312 -29.0009765625 258.481445312 -13.0009765625 c 0
 240.481445312 5.666015625 231.481445312 27.9990234375 231.481445312 53.9990234375 c 0
 231.481445312 77.9990234375 241.481445312 98.33203125 261.481445312 114.999023438 c 0
 282.1484375 132.999023438 305.1484375 141.999023438 330.481445312 141.999023438 c 0
 355.815429688 141.999023438 376.815429688 133.999023438 393.481445312 117.999023438 c 0
 410.171875 101.30859375 418.518554688 81.2177734375 418.518554688 57.7255859375 c 0xc0
 418.518554688 44.673828125 417.948242188 17.443359375 394.48046875 -7.001953125 c 0
 377.813476562 -23.6689453125 355.813476562 -33.6689453125 328.48046875 -37.001953125 c 2
 317.48046875 -37.001953125 l 2
EndSplineSet
Validated: 524289
EndChar

StartChar: quotedbl
Encoding: 34 34 2
Width: 650
GlyphClass: 2
Flags: W
VStem: 180.5 122<438.439 586.418> 183.5 127<442.249 783.227> 340.5 130<442.134 783.794>
LayerCount: 2
Fore
SplineSet
470.5 738 m 2x20
 470.5 719 l 2
 470.5 685 470.169921875 641.666992188 469.502929688 589 c 0
 468.169921875 533.666992188 466.169921875 495 463.502929688 473 c 0
 460.8359375 456.333007812 453.16796875 443.666015625 440.501953125 434.999023438 c 0
 429.834960938 426.999023438 418.16796875 422.999023438 405.5 422.999023438 c 0
 388.833984375 422.999023438 373.833984375 427.999023438 360.5 437.999023438 c 0
 347.833984375 447.33203125 341.5 459.999023438 341.5 475.999023438 c 2
 341.5 481.999023438 l 2
 342.833984375 504.666015625 343.5 531.999023438 343.5 563.999023438 c 0
 343.5 631.33203125 342.5 690.999023438 340.5 742.999023438 c 2
 340.5 745.999023438 l 2
 340.5 755.33203125 342.833984375 763.83203125 347.5 771.499023438 c 0
 352.16796875 779.166015625 358.834960938 784.666015625 367.501953125 787.999023438 c 0
 379.501953125 792.666015625 391.501953125 795.333007812 403.501953125 796 c 0
 413.501953125 796 421.66796875 795 428.001953125 793 c 0
 434.334960938 791 440.501953125 788.333007812 446.501953125 785 c 0
 453.834960938 781 459.66796875 774.833007812 464 766.5 c 0
 468.333984375 758.166992188 470.5 748.666992188 470.5 738 c 2x20
310.5 739 m 2x60
 310.5 697 l 2x60
 310.5 677.666992188 309.833984375 641.666992188 308.5 589 c 0
 307.16796875 533.666992188 305.16796875 495 302.5 473 c 0
 299.833984375 456.333007812 292.5 443.666015625 280.5 434.999023438 c 0
 269.833984375 426.999023438 258.166992188 422.999023438 245.5 422.999023438 c 0
 228.83203125 422.999023438 213.5 427.999023438 199.5 437.999023438 c 0
 186.83203125 447.33203125 180.5 459.999023438 180.5 475.999023438 c 0xa0
 180.5 477.999023438 180.83203125 480.33203125 181.5 482.999023438 c 0
 183 502.498046875 183.75 525.185546875 183.75 551.059570312 c 0
 183.75 559.684570312 183.666992188 568.665039062 183.5 577.999023438 c 2
 183.5 611.999023438 l 2
 182.83203125 679.33203125 181.5 724.33203125 179.5 746.999023438 c 0
 179.5 755.666015625 181.83203125 763.666015625 186.5 770.999023438 c 0
 191.83203125 778.999023438 198.5 784.666015625 206.5 787.999023438 c 0
 218.5 792.666015625 230.83203125 795.333007812 243.5 796 c 0
 253.5 796 261.666992188 795 268 793 c 0
 274.33203125 791 280.83203125 788 287.5 784 c 0
 294.166992188 780 299.5 774 303.5 766 c 0
 307.5 758 309.83203125 749 310.5 739 c 2x60
EndSplineSet
Validated: 524289
EndChar

StartChar: numbersign
Encoding: 35 35 3
Width: 650
GlyphClass: 2
Flags: W
HStem: -13.999 20.9004G<151.333 159.333 377.998 385.998> 179.001 107.003<65.5032 125 273.003 345.999 491 558.621> 433.004 109<104.475 176 322.999 392.003 536 581.404>
LayerCount: 2
Fore
SplineSet
392.002929688 433.00390625 m 1
 302.002929688 433.00390625 l 1
 273.002929688 286.00390625 l 1
 297.002929688 286.670898438 327.669921875 287.001953125 365.002929688 287.001953125 c 1
 374.3359375 334.334960938 383.3359375 383.00390625 392.002929688 433.00390625 c 1
176 431 m 1
 158 430.333007812 148.002929688 430.333007812 146.002929688 431 c 0
 128.002929688 431 114.002929688 435.334960938 104.002929688 444.001953125 c 0
 92.669921875 454.001953125 86.669921875 466.668945312 86.0029296875 482.001953125 c 2
 86.0029296875 485.001953125 l 2
 86.0029296875 499.001953125 91.3330078125 511.334960938 102 522.001953125 c 0
 112.666992188 532.668945312 128.002929688 538.3359375 148.002929688 539.002929688 c 0
 159.3359375 539.669921875 175.668945312 540.002929688 197.001953125 540.002929688 c 1
 224.001953125 686.002929688 l 2
 230.001953125 706.669921875 240.334960938 720.669921875 255.001953125 728.002929688 c 0
 264.334960938 733.3359375 274.334960938 736.3359375 285.001953125 737.002929688 c 0
 289.668945312 737.002929688 294.33203125 736.3359375 298.999023438 735.002929688 c 0
 316.33203125 731.669921875 329.668945312 723.336914062 339.001953125 710.00390625 c 0
 345.668945312 700.670898438 349.001953125 689.670898438 349.001953125 677.00390625 c 0
 349.001953125 671.00390625 348.334960938 665.00390625 347.001953125 659.00390625 c 2
 322.999023438 542.00390625 l 1
 411.001953125 542.00390625 l 1
 436.001953125 678.00390625 l 2
 442.001953125 699.336914062 452.334960938 714.00390625 467.001953125 722.00390625 c 0
 476.334960938 727.336914062 486.334960938 730.00390625 497.001953125 730.00390625 c 0
 502.334960938 730.00390625 507.334960938 729.3359375 512.001953125 728.002929688 c 0
 529.334960938 724.669921875 542.66796875 716.337890625 552.000976562 703.004882812 c 0
 558.000976562 694.337890625 561.333007812 684.004882812 562 672.004882812 c 0
 562 665.337890625 561 658.337890625 559 651.004882812 c 0
 552.333007812 626.337890625 544.666992188 590.337890625 536 543.004882812 c 1
 554 542.337890625 569.333007812 537.004882812 582 527.004882812 c 0
 595.333007812 515.671875 602.333007812 503.004882812 603 489.004882812 c 0
 603 473.671875 598 460.671875 588 450.004882812 c 0
 578 439.337890625 563 433.670898438 543 433.00390625 c 2
 542 433.00390625 l 1
 516 433.00390625 l 1
 491 286.00390625 l 1
 518 286.00390625 l 2
 537.333007812 286.00390625 551 281.336914062 559 272.00390625 c 0
 567 262.670898438 571.666992188 251.00390625 573 237.00390625 c 2
 573 236.00390625 l 2
 573 220.00390625 569.333007812 207.336914062 562 198.00390625 c 0
 552.666992188 186.00390625 538 180.00390625 518 180.00390625 c 2
 473 180.00390625 l 1
 460.333007812 109.336914062 451 60.669921875 445 34.0029296875 c 0
 438.333007812 16.0029296875 426.666015625 2.669921875 409.999023438 -5.9970703125 c 0
 400.3984375 -11.3974609375 390.797851562 -14.0986328125 381.197265625 -14.0986328125 c 0
 377.998046875 -13.9990234375 l 0
 372.665039062 -13.9990234375 367.33203125 -13.33203125 361.999023438 -11.9990234375 c 0
 345.999023438 -8.666015625 333.999023438 1.6689453125 325.999023438 19.001953125 c 0
 321.999023438 28.3349609375 319.666015625 37.66796875 318.999023438 47.0009765625 c 0
 318.999023438 55.0009765625 320.33203125 63.333984375 322.999023438 72.0009765625 c 0
 328.999023438 96.0009765625 336.666015625 131.66796875 345.999023438 179.000976562 c 1
 298.999023438 179.000976562 l 2
 279.666015625 179.000976562 263.999023438 178.66796875 251.999023438 178.000976562 c 1
 233.999023438 88.0009765625 223.999023438 41.0009765625 221.999023438 37.0009765625 c 0
 215.999023438 20.333984375 204.666015625 7.0009765625 187.999023438 -2.9990234375 c 0
 175.999023438 -10.33203125 164.666015625 -13.9990234375 153.999023438 -13.9990234375 c 0
 148.666015625 -13.9990234375 143.333007812 -13.33203125 138 -11.9990234375 c 0
 122 -8.666015625 110 2.333984375 102 21.0009765625 c 0
 98 30.333984375 96 39.333984375 96 48.0009765625 c 0
 96 57.333984375 97.6669921875 66.6669921875 101 76 c 0
 105.666992188 92 113.666992188 125.666992188 125 177 c 1
 110 177 l 2
 90.6669921875 177 75.6669921875 181 65 189 c 0
 53 197.666992188 47 209.666992188 47 225 c 2
 47 228 l 2
 47 242 52 254.333007812 62 265 c 0
 72 275 87 280.666992188 107 282 c 0
 112.333007812 282 119.333007812 282.333007812 128 283 c 2
 147 283 l 1
 176 431 l 1
EndSplineSet
Validated: 524289
EndChar

StartChar: dollar
Encoding: 36 36 4
Width: 650
GlyphClass: 2
Flags: W
HStem: -32.0029 106.998<204.386 263>
VStem: 74 118<485.148 581.759> 268 117.002<-87.3984 -32.0029 92.9971 317.997 456.997 612.974> 476.033 117.967<146.588 273.466>
LayerCount: 2
Fore
SplineSet
360.5 -130 m 0
 347.5 -140 332.333984375 -145.002929688 315 -145.002929688 c 2
 313 -145.002929688 l 2
 295 -145.002929688 281.333984375 -139.002929688 272 -127.002929688 c 0
 264.66796875 -118.3359375 261 -106.668945312 261 -92.001953125 c 0
 261 -88.6689453125 261.333984375 -82.8359375 262 -74.5029296875 c 0
 262.66796875 -66.169921875 263 -52.0029296875 263 -32.0029296875 c 1
 239 -31.3359375 216 -28.0029296875 194 -22.0029296875 c 0
 172 -16.0029296875 153 -8.0029296875 137 1.9970703125 c 0
 105 21.9970703125 81.333984375 45.9970703125 66 73.9970703125 c 0
 59.333984375 88.6640625 56 101.997070312 56 113.997070312 c 0
 56 117.997070312 56.333984375 121.6640625 57 124.997070312 c 0
 60.333984375 140.330078125 69.666015625 151.330078125 85 157.997070312 c 0
 93.666015625 161.997070312 100.333984375 164.497070312 105 165.497070312 c 0
 109.66796875 166.497070312 113.66796875 166.997070312 117 166.997070312 c 0
 120.333984375 166.997070312 123.333984375 166.6640625 126 165.997070312 c 0
 134 165.330078125 141.333984375 162.163085938 148 156.49609375 c 0
 154.66796875 150.829101562 161.66796875 143.329101562 169 133.99609375 c 0
 182.333984375 115.329101562 197.333984375 100.662109375 214 89.9951171875 c 0
 228 81.328125 245.333984375 76.328125 266 74.9951171875 c 1
 267.333984375 174.328125 268 263.661132812 268 342.994140625 c 1
 266 342.994140625 262.333984375 343.661132812 257 344.994140625 c 0
 253 345.661132812 247.66796875 345.994140625 241 345.994140625 c 0
 213.66796875 348.661132812 188.66796875 355.328125 166 365.995117188 c 0
 145.333984375 376.662109375 128.333984375 389.329101562 115 403.99609375 c 0
 101.66796875 418.663085938 91.5 434.330078125 84.5 450.997070312 c 0
 77.5 467.6640625 74 484.6640625 74 501.997070312 c 0
 74 526.6640625 77.833984375 550.331054688 85.5 572.998046875 c 0
 93.16796875 595.665039062 105 616.83203125 121 636.499023438 c 0
 137 656.166015625 158.333984375 672.999023438 185 686.999023438 c 0
 210.333984375 699.666015625 238.666992188 708.999023438 270 714.999023438 c 1
 270.666992188 728.33203125 271 743.999023438 271 761.999023438 c 1
 271.666992188 793.999023438 282.666992188 814.33203125 304 822.999023438 c 0
 311.33203125 825.666015625 320.33203125 826.999023438 331 826.999023438 c 0
 353 826.999023438 369 819.999023438 379 805.999023438 c 0
 386.33203125 795.999023438 390.33203125 782.33203125 391 764.999023438 c 2
 391 723.999023438 l 1
 406.33203125 722.666015625 426.666015625 718.999023438 451.999023438 712.999023438 c 0
 477.33203125 707.666015625 496.6640625 702.666015625 509.998046875 697.999023438 c 0
 525.331054688 692.666015625 536.6640625 683.666015625 543.99609375 670.999023438 c 0
 549.330078125 661.666015625 551.99609375 651.999023438 551.99609375 641.999023438 c 0
 551.99609375 638.666015625 551.6640625 635.333007812 550.99609375 632 c 0
 549.6640625 622 545.831054688 613.833007812 539.498046875 607.5 c 0
 533.1640625 601.166992188 525.33203125 597.333984375 515.999023438 596.000976562 c 0
 511.33203125 595.333984375 507.33203125 595.000976562 503.999023438 595.000976562 c 0
 500.666015625 595.000976562 496.83203125 595.16796875 492.5 595.500976562 c 0
 488.166992188 595.833984375 482.666992188 597.000976562 476 599.000976562 c 0
 468.666992188 600.333984375 460 603.333984375 450 608.000976562 c 0
 430 616.66796875 409.666992188 621.66796875 389 623.000976562 c 1
 387.666992188 558.333984375 386.666992188 497.000976562 386 439.000976562 c 1
 416 434.333984375 443.666992188 427.333984375 469 418.000976562 c 0
 493 408.000976562 512.83203125 396.000976562 528.5 382.000976562 c 0
 544.166992188 368.000976562 557.166992188 352.000976562 567.5 334.000976562 c 0
 577.83203125 316.000976562 584.83203125 298.333984375 588.5 281.000976562 c 0
 592.166992188 263.66796875 594 245.66796875 594 227.000976562 c 0
 594 195.66796875 588.5 166.16796875 577.5 138.500976562 c 0
 566.5 110.833984375 551.166992188 86.6669921875 531.5 66 c 0
 511.83203125 45.3330078125 489 27.666015625 463 12.9990234375 c 0
 438.33203125 -0.333984375 411.33203125 -10.6669921875 382 -18 c 1
 382 -52 382.666992188 -75.3330078125 384 -88 c 0
 381.33203125 -106 373.5 -120 360.5 -130 c 0
217 584.997070312 m 0
 200.333984375 569.6640625 192 551.6640625 192 530.997070312 c 0
 192 512.997070312 199.66796875 497.330078125 215 483.997070312 c 0
 228.333984375 471.997070312 246 462.997070312 268 456.997070312 c 1
 268.66796875 498.330078125 269 551.330078125 269 615.997070312 c 1
 248.333984375 607.997070312 231 597.6640625 217 584.997070312 c 0
446 136.997070312 m 0
 466.021484375 157.017578125 476.033203125 179.85546875 476.033203125 205.506835938 c 0
 476.033203125 214.470703125 475.65625 226.20703125 472.001953125 238.998046875 c 0
 469.334960938 248.331054688 464.334960938 258.6640625 457.001953125 269.997070312 c 0
 444.334960938 288.6640625 420.334960938 304.6640625 385.001953125 317.997070312 c 1
 384.334960938 241.330078125 383.834960938 191.330078125 383.501953125 167.997070312 c 0
 383.16796875 144.6640625 382.66796875 119.6640625 382.001953125 92.9970703125 c 1
 407.334960938 104.997070312 428.66796875 119.6640625 446 136.997070312 c 0
EndSplineSet
Validated: 524289
EndChar

StartChar: percent
Encoding: 37 37 5
Width: 650
GlyphClass: 2
Flags: W
HStem: -40.0039 101.001<434.769 499.75> 158.997 98<437.895 505.971> 420 98.9961<146.256 212.686> 607.996 97.0039<148.148 217.395>
VStem: 42 96.001<530.28 596.587> 226 103.001<529.373 597.165> 321 104.999<72.8275 145.526> 513.001 94.999<71.4058 144.619>
LayerCount: 2
Fore
SplineSet
56.501953125 491.5 m 0xfd
 46.8349609375 511.833007812 42 533.333007812 42 556 c 2
 42 558 l 2
 42 600 54.5 635 79.5 663 c 0
 104.5 691 140.666992188 705 188 705 c 0
 228.666992188 705 262.333984375 693 289.000976562 669 c 0
 303.000976562 656.333007812 313.66796875 640 321.000976562 620 c 0
 326.333984375 604 329.000976562 586 329.000976562 566 c 0
 329.000976562 516 314.66796875 478.333007812 286.000976562 453 c 0
 260.66796875 431 223.000976562 420 173.000976562 420 c 0
 145.66796875 420 121.834960938 426.833007812 101.501953125 440.5 c 0
 81.1689453125 454.166992188 66.1689453125 471.166992188 56.501953125 491.5 c 0xfd
90 -45 m 0
 81.3330078125 -41 74.3330078125 -36.00390625 69 -30.00390625 c 0
 61.6669921875 -22.00390625 58 -12.50390625 58 -1.50390625 c 0
 58 9.49609375 61.3330078125 21.3291015625 68 33.99609375 c 0
 82 61.99609375 115.333007812 120.329101562 168 208.99609375 c 0
 281.333007812 387.663085938 338 477.330078125 338 477.997070312 c 0
 394.666992188 567.997070312 432.666992188 632.6640625 452 671.997070312 c 1
 452 664.6640625 452.333007812 664.997070312 453 672.997070312 c 1
 463.666992188 687.6640625 477.333984375 696.331054688 494.000976562 698.998046875 c 0
 498.66796875 700.331054688 503.334960938 700.998046875 508.001953125 700.998046875 c 0
 518.668945312 700.998046875 529.001953125 698.331054688 539.001953125 692.998046875 c 0
 554.334960938 685.665039062 563.001953125 675.33203125 565.001953125 661.999023438 c 0
 565.668945312 659.33203125 566.001953125 656.665039062 566.001953125 653.998046875 c 0
 566.001953125 642.665039062 561.668945312 630.33203125 553.001953125 616.999023438 c 0
 528.334960938 577.666015625 466.66796875 477.333007812 368.000976562 316 c 0
 267.333984375 154.666992188 200.666992188 45.6669921875 168 -11 c 0
 152.666992188 -37.6669921875 134.666992188 -51 114 -51 c 0
 106.666992188 -51 98.6669921875 -49 90 -45 c 0
214.5 597.49609375 m 0
 206.833007812 604.49609375 195 607.99609375 179 607.99609375 c 0
 166.333007812 607.99609375 157 604.329101562 151 596.99609375 c 0
 143.666992188 588.329101562 139.333984375 575.99609375 138.000976562 559.99609375 c 2
 138.000976562 556.99609375 l 2
 138.000976562 544.99609375 140.66796875 535.99609375 146.000976562 529.99609375 c 0
 151.333984375 523.99609375 163.666992188 520.329101562 183 518.99609375 c 2
 184 518.99609375 l 2
 196.666992188 518.99609375 206.333984375 522.329101562 213.000976562 528.99609375 c 0
 220.333984375 536.99609375 224.666992188 547.663085938 226 560.99609375 c 2
 226 563.99609375 l 2
 226 579.329101562 222.166992188 590.49609375 214.5 597.49609375 c 0
336.5 34.49609375 m 0
 326.166992188 55.49609375 321 77.9970703125 321 101.997070312 c 2
 321 103.997070312 l 2xfb
 321 147.997070312 334.666992188 184.497070312 362 213.497070312 c 0
 389.333007812 242.497070312 427.333007812 256.997070312 476 256.997070312 c 0
 514 256.997070312 546 244.6640625 572 219.997070312 c 0
 585.333007812 207.330078125 595 189.997070312 601 167.997070312 c 0
 605.666992188 151.997070312 608 134.330078125 608 114.997070312 c 0
 608 108.330078125 607.666992188 101.663085938 607 94.99609375 c 0
 605 50.99609375 592.333007812 17.49609375 569 -5.50390625 c 0
 545.666992188 -28.50390625 510.666992188 -40.00390625 464 -40.00390625 c 2
 459 -40.00390625 l 2
 431 -39.3369140625 406.166992188 -32.00390625 384.5 -18.00390625 c 0
 362.833007812 -4.00390625 346.833007812 13.49609375 336.5 34.49609375 c 0
471 60.9970703125 m 0
 471.666992188 60.9970703125 472.668945312 60.6640625 474.001953125 59.9970703125 c 0
 486.001953125 59.9970703125 494.668945312 63.6640625 500.001953125 70.9970703125 c 0
 507.334960938 79.6640625 511.66796875 91.6640625 513.000976562 106.997070312 c 2
 513.000976562 108.997070312 l 2
 513.000976562 124.997070312 510.000976562 136.997070312 504.000976562 144.997070312 c 0
 497.333984375 154.330078125 485.666992188 158.997070312 469 158.997070312 c 0
 456.333007812 158.997070312 446.666015625 154.6640625 439.999023438 145.997070312 c 0
 431.999023438 135.997070312 427.33203125 122.6640625 425.999023438 105.997070312 c 2
 425.999023438 102.997070312 l 2
 425.999023438 89.6640625 428.83203125 79.4970703125 434.499023438 72.4970703125 c 0
 440.166015625 65.4970703125 452.333007812 61.6640625 471 60.9970703125 c 0
EndSplineSet
Validated: 524289
EndChar

StartChar: ampersand
Encoding: 38 38 6
Width: 650
GlyphClass: 2
Flags: W
HStem: -53.9932 118<212.518 338.751> 633.005 103<268.923 358.088>
VStem: 53.999 124.001<100.286 273.189> 140.999 119.001<504.635 620.91> 375 108<508.115 617.229>
LayerCount: 2
Fore
SplineSet
582.000976562 11 m 0xd8
 582.000976562 7.6669921875 581.666992188 4.0048828125 581 0.0048828125 c 0
 578.333007812 -23.328125 570.333007812 -38.6611328125 557 -45.994140625 c 0
 544.333007812 -50.6611328125 536.333007812 -52.994140625 533 -52.994140625 c 2
 532 -52.994140625 l 2
 523.333007812 -52.994140625 514 -50.6611328125 504 -45.994140625 c 0
 486.666992188 -37.3271484375 472 -22.3271484375 460 -0.994140625 c 0
 458 2.3388671875 454.833007812 9.8388671875 450.5 21.505859375 c 0
 446.166992188 33.1728515625 443 41.6728515625 441 47.005859375 c 1
 426 27.505859375 l 2
 422.666992188 23.1728515625 417 16.83984375 409 8.5068359375 c 0
 401 0.173828125 394.166992188 -6.326171875 388.5 -10.9931640625 c 0
 382.833007812 -15.66015625 375.165039062 -21.16015625 365.499023438 -27.4931640625 c 0
 355.83203125 -33.826171875 346.33203125 -38.4931640625 336.999023438 -41.4931640625 c 0
 327.665039062 -44.4931640625 316.999023438 -47.326171875 304.999023438 -49.9931640625 c 0
 292.999023438 -52.66015625 280.665039062 -53.9931640625 267.999023438 -53.9931640625 c 0
 227.999023438 -53.9931640625 191.499023438 -43.826171875 158.499023438 -23.4931640625 c 0
 125.499023438 -3.16015625 99.83203125 23.6728515625 81.4990234375 57.005859375 c 0
 63.166015625 90.3388671875 53.9990234375 126.338867188 53.9990234375 165.005859375 c 0xe8
 53.9990234375 223.005859375 64.666015625 272.672851562 85.9990234375 314.005859375 c 0
 111.33203125 362.672851562 150.999023438 400.672851562 204.999023438 428.005859375 c 1
 187.499023438 455.505859375 l 2
 180.499023438 466.505859375 175.165039062 475.005859375 171.499023438 481.005859375 c 0
 167.83203125 487.005859375 163.499023438 494.838867188 158.499023438 504.505859375 c 0
 153.499023438 514.172851562 149.999023438 522.672851562 147.999023438 530.005859375 c 0
 143.33203125 550.005859375 140.999023438 569.672851562 140.999023438 589.005859375 c 0
 140.999023438 601.672851562 142.665039062 614.505859375 145.999023438 627.505859375 c 0
 149.33203125 640.505859375 155.33203125 653.672851562 163.999023438 667.005859375 c 0
 172.665039062 680.338867188 183.333007812 692.171875 196 702.504882812 c 0
 208.666992188 712.837890625 225 721.004882812 245 727.004882812 c 0
 265 733.004882812 287.333007812 736.004882812 312 736.004882812 c 0
 332.666992188 736.004882812 353 732.837890625 373 726.504882812 c 0
 393 720.171875 411.333007812 710.671875 428 698.004882812 c 0
 444.666992188 685.337890625 458 668.670898438 468 648.00390625 c 0
 478 627.336914062 483 604.336914062 483 579.00390625 c 0
 483 556.336914062 480 535.169921875 474 515.502929688 c 0
 468 495.8359375 460.5 479.3359375 451.5 466.002929688 c 0
 442.5 452.669921875 431.333007812 440.169921875 418 428.502929688 c 0
 404.666992188 416.8359375 393.333007812 408.002929688 384.000976562 402.002929688 c 0
 374.66796875 396.002929688 365.000976562 390.669921875 355.000976562 386.002929688 c 1
 367.000976562 366.002929688 383.833007812 340.8359375 405.500976562 310.502929688 c 0
 427.16796875 280.169921875 443.000976562 257.669921875 453.000976562 243.002929688 c 1
 455.000976562 247.002929688 457.833007812 253.169921875 461.500976562 261.502929688 c 0
 465.16796875 269.8359375 468.834960938 278.002929688 472.500976562 286.002929688 c 0
 476.168945312 294.002929688 479.3359375 300.002929688 482.002929688 304.002929688 c 0
 495.3359375 324.002929688 508.668945312 336.3359375 522.000976562 341.002929688 c 0
 527.334960938 343.002929688 533.000976562 344.002929688 539.000976562 344.002929688 c 0
 548.334960938 344.002929688 557.66796875 341.669921875 567.000976562 337.002929688 c 0
 582.333007812 329.669921875 591.333007812 317.002929688 594.000976562 299.002929688 c 0
 594.66796875 295.002929688 595.334960938 290.669921875 596.000976562 286.002929688 c 0
 596.000976562 272.002929688 592.000976562 257.3359375 584.000976562 242.002929688 c 0
 580.668945312 235.3359375 571.000976562 222.168945312 555.000976562 202.501953125 c 0
 539.000976562 182.834960938 526.000976562 165.66796875 516.000976562 151.000976562 c 1
 523.334960938 139.000976562 533.16796875 122.16796875 545.500976562 100.500976562 c 0
 557.833007812 78.833984375 565.333007812 65.6669921875 568.000976562 61 c 0
 577.333007812 45 582.000976562 28.3330078125 582.000976562 11 c 0xd8
260 572.004882812 m 0xd8
 260 557.337890625 264 541.338867188 272 524.005859375 c 0
 280 506.672851562 289 491.672851562 299 479.005859375 c 1
 309.666992188 482.338867188 319.166992188 486.171875 327.5 490.504882812 c 0
 335.833007812 494.837890625 344 500.337890625 352 507.004882812 c 0
 360 513.671875 365.833007812 522.004882812 369.5 532.004882812 c 0
 373.166992188 542.004882812 375 554.337890625 375 569.004882812 c 0
 375 589.671875 368.666992188 605.504882812 356 616.504882812 c 0
 343.333007812 627.504882812 327.833007812 633.004882812 309.5 633.004882812 c 0
 291.166992188 633.004882812 278 627.337890625 270 616.004882812 c 0
 263.333007812 606.004882812 260 591.337890625 260 572.004882812 c 0xd8
178 174.005859375 m 0xe8
 178 142.005859375 186.504882812 115.673828125 203.504882812 95.0068359375 c 0
 220.504882812 74.33984375 242.336914062 64.0068359375 269.004882812 64.0068359375 c 0
 283.671875 64.0068359375 299.004882812 66.673828125 315.004882812 72.0068359375 c 0
 320.336914062 74.0068359375 326.170898438 77.173828125 332.50390625 81.5068359375 c 0
 338.836914062 85.83984375 343.668945312 89.33984375 347.002929688 92.0068359375 c 0
 350.3359375 94.673828125 354.668945312 99.0068359375 360.000976562 105.006835938 c 0
 365.334960938 111.006835938 369.000976562 115.173828125 371.000976562 117.506835938 c 0
 373.000976562 119.83984375 375.668945312 123.506835938 379.000976562 128.506835938 c 0
 382.334960938 133.506835938 384.66796875 136.673828125 386.000976562 138.006835938 c 0
 376.66796875 158.006835938 367.66796875 176.006835938 359.000976562 192.006835938 c 0
 351.000976562 207.33984375 336.000976562 230.672851562 314.000976562 262.005859375 c 0
 292.000976562 293.338867188 275.66796875 317.338867188 265.000976562 334.005859375 c 1
 250.333007812 326.672851562 237.666992188 318.005859375 227 308.005859375 c 0
 214.333007812 296.005859375 204.5 283.005859375 197.5 269.005859375 c 0
 190.5 255.005859375 185.5 240.338867188 182.5 225.005859375 c 0
 179.5 209.672851562 178 192.672851562 178 174.005859375 c 0xe8
EndSplineSet
Validated: 524289
EndChar

StartChar: quotesingle
Encoding: 39 39 7
Width: 650
GlyphClass: 2
Flags: W
VStem: 260 130<452.314 772.656> 260 122<449.441 601.295>
LayerCount: 2
Fore
SplineSet
390 728 m 2x80
 390 687.000976562 l 2x80
 390 669.000976562 389.665039062 641.333984375 388.998046875 604.000976562 c 0
 387.665039062 546.000976562 385.33203125 506.000976562 382 484.000976562 c 0x40
 379.33203125 466.66796875 372 453.66796875 360 445.000976562 c 0
 349.33203125 437.66796875 337.665039062 434.000976562 324.998046875 434.000976562 c 0
 307.665039062 434.000976562 292.33203125 439.000976562 279 449.000976562 c 0
 266.33203125 458.333984375 260 471.333984375 260 488.000976562 c 0
 260 490.000976562 260.33203125 491.66796875 261 493.000976562 c 0
 262.33203125 519.66796875 263 549.66796875 263 583.000976562 c 0
 263 630.333984375 262 680.000976562 260 732.000976562 c 2
 260 735.000976562 l 2
 260 744.333984375 262 752.666992188 266 760 c 0
 270.666015625 768 277.333007812 774 286 778 c 0
 298 782.666992188 310.333007812 785 323 785 c 0
 333 785 341 784 347 782 c 0
 353.66796875 780 360 777.333007812 366 774 c 0
 373.333007812 770 379 763.666992188 383 755 c 0
 387 747 389.333007812 738 390 728 c 2x80
EndSplineSet
Validated: 524289
EndChar

StartChar: parenleft
Encoding: 40 40 8
Width: 650
GlyphClass: 2
Flags: W
HStem: -144 109<393.685 471.53> 721 105.053<379.656 469.499>
VStem: 162.999 122.75<154.284 548.553>
LayerCount: 2
Fore
SplineSet
486.000976562 -93 m 0
 486.000976562 -107.666992188 480.331054688 -119.666992188 468.998046875 -129 c 0
 457.665039062 -138.333007812 445.665039062 -143.333007812 432.998046875 -144 c 0
 384.998046875 -144 341.998046875 -127 303.998046875 -93 c 0
 265.998046875 -59 235.331054688 -13 211.998046875 45 c 0
 188.665039062 103 173.333007812 169.666992188 165.999023438 245 c 0
 163.999023438 265.666992188 162.999023438 291.333984375 162.999023438 322.000976562 c 0
 162.999023438 352.66796875 164.999023438 391.000976562 168.999023438 437.000976562 c 0
 175.666015625 516.333984375 188.999023438 581.666992188 208.999023438 633 c 0
 217.666015625 656.333007812 229.333007812 679 244.000976562 701 c 0
 258.666992188 723 276.000976562 743.666992188 296.000976562 763 c 0
 315.333007812 781.666992188 337.000976562 797 361.000976562 809 c 0
 384.368164062 820.368164062 407.436523438 826.052734375 430.206054688 826.052734375 c 0
 431.471679688 826.052734375 432.736328125 826.03515625 434.000976562 826 c 0
 452.666992188 826 466.666992188 820.333007812 476.000976562 809 c 0
 483.333007812 800.333007812 487.000976562 788.333007812 487.000976562 773 c 0
 487.000976562 755 481.333007812 741.666992188 470.000976562 733 c 0
 459.333007812 725 446.666015625 721 431.999023438 721 c 0
 417.333007812 721 403.333007812 716.333007812 389.999023438 707 c 0
 376.666015625 698.333007812 364.666015625 686 353.999023438 670 c 0
 332.666015625 638 316.666015625 598 305.999023438 550 c 0
 297.333007812 514.666992188 291.333007812 467.666992188 287.999023438 409 c 0
 286.499023438 386 285.749023438 364.875976562 285.749023438 345.626953125 c 0
 285.749023438 339.208984375 285.833007812 333.000976562 285.999023438 327 c 0
 285.999023438 303 286.666015625 281.666992188 287.999023438 263 c 0
 291.333007812 223.666992188 298.333007812 185 308.999023438 147 c 0
 319.666015625 109 332.333007812 77 347.000976562 51 c 0
 361.000976562 24.3330078125 376.000976562 3 392.000976562 -13 c 0
 406.666992188 -27.6669921875 420.333984375 -35 433.000976562 -35 c 0
 449.000976562 -35 462.000976562 -39.3330078125 472.000976562 -48 c 0
 481.333984375 -56.6669921875 486.000976562 -71.6669921875 486.000976562 -93 c 0
EndSplineSet
Validated: 524289
EndChar

StartChar: parenright
Encoding: 41 41 9
Width: 650
GlyphClass: 2
Flags: W
HStem: -144 109<178.412 256.235> 721.001 105.1<180.502 270.734>
VStem: 364.251 122.749<154.284 545.5>
LayerCount: 2
Fore
SplineSet
217 -144 m 0
 204.333007812 -144 192.333984375 -138.999023438 181.000976562 -128.999023438 c 0
 169.66796875 -119.666015625 164.000976562 -107.666015625 164.000976562 -92.9990234375 c 0
 164.000976562 -71.666015625 168.66796875 -56.666015625 178.000976562 -47.9990234375 c 0
 186.711914062 -39.2880859375 198.6171875 -34.93359375 213.71484375 -34.93359375 c 0
 214.793945312 -34.93359375 215.890625 -34.955078125 217.000976562 -35 c 0
 229.000976562 -35 242.333984375 -27.6669921875 257.000976562 -13 c 0
 273.66796875 3 289.000976562 24.3330078125 303.000976562 51 c 0
 317.000976562 77.6669921875 329.66796875 109.666992188 341.000976562 147 c 0
 351.66796875 185 358.66796875 223.666992188 362.000976562 263 c 0
 363.500976562 278 364.250976562 294.124023438 364.250976562 311.373046875 c 0
 364.250976562 317.124023438 364.16796875 322.999023438 364.000976562 329 c 0
 364.000976562 352.333007812 363.333984375 379 362.000976562 409 c 0
 358.66796875 467.666992188 352.66796875 514.666992188 344.000976562 550 c 0
 333.333984375 597.333007812 317.333984375 637.333007812 296.000976562 670 c 0
 286.000976562 686 274.000976562 698.333007812 260.000976562 707 c 0
 246.66796875 715.666992188 232.66796875 720.333984375 218.000976562 721.000976562 c 0
 203.333984375 721.000976562 190.66796875 725.000976562 180 733.000976562 c 0
 168.66796875 741.66796875 163 755.000976562 163 773.000976562 c 0
 163 783.000976562 164.66796875 792.000976562 168 800.000976562 c 0
 171.333007812 807.333984375 176.333007812 813.333984375 183 818.000976562 c 0
 191.399414062 823.400390625 201.149414062 826.100585938 212.25 826.100585938 c 0
 213.482421875 826.100585938 214.734375 826.067382812 216 826.000976562 c 0
 240.66796875 826.000976562 265 820.333984375 289 809.000976562 c 0
 313 797.000976562 334.66796875 781.66796875 354 763.000976562 c 0
 373.333007812 744.333984375 390.333007812 723.666992188 405 701 c 0
 419.66796875 679 431.66796875 656.333007812 441 633 c 0
 460.333007812 581.666992188 473.666015625 516.333984375 481 437.000976562 c 0
 485 391.000976562 487 352.66796875 487 322.000976562 c 0
 487 291.333984375 486 265.666992188 484 245 c 0
 476.666015625 169.666992188 461.333007812 103 438 45 c 0
 414.66796875 -13 383.66796875 -59 345 -93 c 0
 307.66796875 -127 265 -144 217 -144 c 0
EndSplineSet
Validated: 524289
EndChar

StartChar: asterisk
Encoding: 42 42 10
Width: 650
GlyphClass: 2
Flags: W
HStem: 281.004 127.999<78.5334 221.975> 289.002 119.001<419.147 574.842> 294.001 101.002<418.002 533.874>
LayerCount: 2
Fore
SplineSet
238.001953125 102 m 2x20
 227.999023438 102 l 2
 223.33203125 102 217.499023438 102.670898438 210.499023438 104.00390625 c 0
 203.499023438 105.336914062 196.666015625 108 189.999023438 112 c 0
 183.33203125 116 177.33203125 122.00390625 171.999023438 130.00390625 c 0
 166.666015625 138.00390625 162.999023438 147.336914062 160.999023438 158.00390625 c 2
 160.999023438 165.00390625 l 2
 160.999023438 175.00390625 163.666015625 185.333984375 168.999023438 196.000976562 c 2
 223.999023438 285.00390625 l 1
 180.666015625 282.336914062 147.666015625 281.00390625 124.999023438 281.00390625 c 0
 104.999023438 281.00390625 89.33203125 287.670898438 77.9990234375 301.00390625 c 0
 67.9990234375 313.00390625 62.666015625 327.00390625 61.9990234375 343.00390625 c 2
 61.9990234375 346.00390625 l 2
 61.9990234375 359.336914062 65.666015625 372.669921875 72.9990234375 386.002929688 c 0
 77.666015625 394.002929688 84.666015625 400.002929688 93.9990234375 404.002929688 c 0
 101.33203125 407.3359375 109.33203125 409.002929688 117.999023438 409.002929688 c 2
 122.999023438 409.002929688 l 2x80
 149.666015625 407.002929688 187.333007812 404.3359375 236 401.002929688 c 1
 212.666992188 439.669921875 193 470.002929688 177 492.002929688 c 0
 167.666992188 507.3359375 163 522.3359375 163 537.002929688 c 0
 163 539.669921875 163.333007812 542.336914062 164 545.00390625 c 0
 166 563.670898438 174 576.670898438 188 584.00390625 c 0
 196.666992188 589.336914062 206.5 592.00390625 217.5 592.00390625 c 0
 228.5 592.00390625 239.666992188 588.669921875 251 582.002929688 c 0
 262.333007812 575.3359375 271.333007812 565.669921875 278 553.002929688 c 0
 284.666992188 539.002929688 300.666992188 507.669921875 326 459.002929688 c 1
 345.333007812 493.669921875 361.333007812 524.669921875 374 552.002929688 c 0
 380 564.669921875 388.333007812 574.169921875 399 580.502929688 c 0
 409.666992188 586.8359375 420 590.002929688 430 590.002929688 c 0
 440.666992188 590.002929688 450.666992188 587.3359375 460 582.002929688 c 0
 468.666992188 577.3359375 475.666992188 570.502929688 481 561.502929688 c 0
 486.333007812 552.502929688 489 542.002929688 489 530.002929688 c 0
 489 516.669921875 485 504.336914062 477 493.00390625 c 0
 459 466.336914062 439 433.669921875 417 395.002929688 c 1x20
 463 395.669921875 496.333007812 399.002929688 517 405.002929688 c 0
 525.666992188 407.002929688 531.333984375 408.002929688 534.000976562 408.002929688 c 0x40
 546.66796875 408.002929688 557.66796875 403.669921875 567.000976562 395.002929688 c 0x20
 580.333984375 382.3359375 587.333984375 368.668945312 588.000976562 354.001953125 c 0
 588.000976562 339.334960938 584.333984375 325.334960938 577.000976562 312.001953125 c 0
 572.333984375 304.001953125 566.000976562 297.668945312 558.000976562 293.001953125 c 0
 552.000976562 290.334960938 545.66796875 289.001953125 539.000976562 289.001953125 c 0x40
 535.66796875 289.001953125 532.334960938 289.334960938 529.001953125 290.001953125 c 0
 515.114257812 292.779296875 492.432617188 294.16796875 460.956054688 294.16796875 c 0
 454.65625 294.16796875 448.005859375 294.112304688 441.001953125 294.000976562 c 2
 418.001953125 294.000976562 l 1
 475.001953125 196.000976562 l 2
 482.334960938 181.333984375 486.001953125 168.000976562 486.001953125 156.000976562 c 0
 486.001953125 153.333984375 485.668945312 150.666992188 485.001953125 148 c 0
 483.001953125 132 476.001953125 120.666992188 464.001953125 114 c 0
 454.668945312 108 443.001953125 105 429.001953125 105 c 0
 418.334960938 105 407.66796875 107.333007812 397.000976562 112 c 0
 383.66796875 118 374.66796875 128 370.000976562 142 c 0
 362.66796875 164 349.334960938 194.666992188 330.001953125 234 c 1
 305.334960938 184.666992188 289.66796875 151.666992188 283.000976562 135 c 0
 279.66796875 124.333007812 273.834960938 116.333007812 265.501953125 111 c 0
 257.168945312 105.666992188 248.001953125 102.666992188 238.001953125 102 c 2x20
EndSplineSet
Validated: 524289
EndChar

StartChar: plus
Encoding: 43 43 11
Width: 650
GlyphClass: 2
Flags: W
HStem: 346 105.998<137.472 271 376 514.621>
VStem: 271 105<209.378 344.998 452.998 593.588>
LayerCount: 2
Fore
SplineSet
375.000976562 347 m 1
 376 249.999023438 l 2
 376 230.666015625 371.333007812 216.999023438 362 208.999023438 c 0
 352.666992188 200.33203125 341 195.665039062 327 194.998046875 c 2
 326 194.998046875 l 2
 310 194.998046875 297.666992188 198.665039062 289 205.998046875 c 0
 277 215.331054688 271 229.998046875 271 249.998046875 c 2
 271 344.998046875 l 1
 182 343.998046875 l 2
 162 343.998046875 147 349.331054688 137 359.998046875 c 0
 126.333007812 370.665039062 121 383.665039062 121 398.998046875 c 2
 121 401.998046875 l 2
 121 415.998046875 125.666992188 428.331054688 135 438.998046875 c 0
 145 449.665039062 159.333007812 454.998046875 178 454.998046875 c 0
 179.333007812 454.998046875 190 454.665039062 210 453.998046875 c 0
 230 453.331054688 250.333007812 452.998046875 271 452.998046875 c 1
 271 492.331054688 270 525.6640625 268 552.997070312 c 0
 268 571.6640625 274.333007812 585.331054688 287 593.998046875 c 0
 296.333007812 600.665039062 308.333007812 603.998046875 323 603.998046875 c 2
 327 603.998046875 l 2
 341 603.998046875 353 600.665039062 363 593.998046875 c 0
 374.333007812 585.998046875 380 572.998046875 380 554.998046875 c 2
 380 548.998046875 l 2
 378 514.998046875 376.666992188 482.665039062 376 451.998046875 c 1
 474 451.998046875 l 2
 493.333007812 451.998046875 507 447.331054688 515 437.998046875 c 0
 523 428.665039062 527.666992188 416.998046875 529 402.998046875 c 2
 529 401.998046875 l 2
 529 394.665039062 528.333007812 388.33203125 527 382.999023438 c 0
 525.666992188 376.999023438 523 370.999023438 519 364.999023438 c 0
 514.333007812 357.666015625 508 352.333007812 500 349 c 0
 494 347 487.333007812 346 480 346 c 2
 473 346 l 2
 463 347.333007812 448.666992188 348 430 348 c 0
 410.666992188 348 392.333984375 347.666992188 375.000976562 347 c 1
EndSplineSet
Validated: 524289
EndChar

StartChar: comma
Encoding: 44 44 12
Width: 650
GlyphClass: 2
Flags: W
VStem: 210.001 229.998
LayerCount: 2
Fore
SplineSet
295.997070312 -223 m 0
 285.330078125 -227 275.999023438 -228.999023438 267.999023438 -228.999023438 c 0
 259.999023438 -228.999023438 252.999023438 -227.666015625 246.999023438 -224.999023438 c 0
 238.333007812 -222.33203125 230.333007812 -217.33203125 222.999023438 -209.999023438 c 0
 215.666015625 -202.666015625 211.333007812 -193.333007812 210.000976562 -182 c 2
 210.000976562 -176 l 2
 210.000976562 -166 213.333007812 -156 220.000976562 -146 c 0
 233.333007812 -127.333007812 252.000976562 -84.3330078125 276.000976562 -17 c 0
 300.000976562 49 315.000976562 96 321.000976562 124 c 0
 323.666992188 136 329.666992188 145.333007812 339.000976562 152 c 0
 348.333007812 159.333007812 358.666015625 163 369.999023438 163 c 2
 371.999023438 163 l 2
 379.999023438 163 388.333007812 162.333007812 396.999023438 161 c 0
 410.333007812 157 421.333007812 149 429.999023438 137 c 0
 436.666015625 127.666992188 439.999023438 117.333984375 439.999023438 106.000976562 c 0
 439.999023438 101.333984375 439.666015625 97.333984375 438.999023438 94.0009765625 c 0
 432.333007812 61.333984375 417.665039062 10.6669921875 394.998046875 -58 c 0
 372.331054688 -127.333007812 354.998046875 -170.333007812 342.998046875 -187 c 0
 330.331054688 -204.333007812 314.665039062 -216.333007812 295.997070312 -223 c 0
EndSplineSet
Validated: 524289
EndChar

StartChar: hyphen
Encoding: 45 45 13
Width: 650
GlyphClass: 2
Flags: W
HStem: 230.001 111.999<176.44 475.172> 239.002 106<338.731 477.621>
LayerCount: 2
Fore
SplineSet
212 342 m 0x80
 250 342 295 342.333984375 347 343.000976562 c 0
 399.666992188 343.66796875 429.666992188 344.334960938 437 345.001953125 c 0
 456.333007812 345.001953125 470 340.334960938 478 331.001953125 c 0
 486 321.668945312 490.666992188 310.001953125 492 296.001953125 c 2
 492 295.001953125 l 2
 492 279.001953125 488.333007812 266.668945312 481 258.001953125 c 0
 471.666992188 246.001953125 457 239.668945312 437 239.001953125 c 0x40
 428.333007812 239.001953125 394.666015625 237.668945312 335.999023438 235.001953125 c 0
 277.33203125 232.334960938 236.33203125 230.66796875 212.999023438 230.000976562 c 0
 197.666015625 230.000976562 185.333007812 234.000976562 176 242.000976562 c 0
 164 251.333984375 158 265.666992188 158 285 c 2
 158 290 l 2
 158 308.666992188 164 322.666992188 176 332 c 0
 184.666992188 338.666992188 196.666992188 342 212 342 c 0x80
EndSplineSet
Validated: 524289
EndChar

StartChar: period
Encoding: 46 46 14
Width: 650
GlyphClass: 2
Flags: W
HStem: -26 178.037<267.144 385.352>
VStem: 231.481 187.037<6.96988 117.608>
LayerCount: 2
Fore
SplineSet
317.481445312 -26 m 2
 294.1484375 -26 274.481445312 -18 258.481445312 -2 c 0
 240.481445312 16.6669921875 231.481445312 38.333984375 231.481445312 63.0009765625 c 0
 231.481445312 87.66796875 241.481445312 108.66796875 261.481445312 126.000976562 c 0
 281.411132812 143.357421875 303.508789062 152.037109375 327.776367188 152.037109375 c 0
 328.674804688 152.037109375 329.577148438 152.024414062 330.481445312 152.000976562 c 0
 355.815429688 152.000976562 376.815429688 144.000976562 393.481445312 128.000976562 c 0
 410.172851562 111.310546875 418.518554688 91.5283203125 418.518554688 68.6552734375 c 0
 418.518554688 55.5234375 417.8828125 28.376953125 394.481445312 4 c 0
 377.813476562 -12.6669921875 355.813476562 -22.6669921875 328.481445312 -26 c 2
 317.481445312 -26 l 2
EndSplineSet
Validated: 524289
EndChar

StartChar: slash
Encoding: 47 47 15
Width: 650
GlyphClass: 2
Flags: W
HStem: 746.004 20G<517.917 528.583>
LayerCount: 2
Fore
SplineSet
141.25 -67 m 0
 131.916992188 -71.6669921875 122.58203125 -73.9970703125 113.249023438 -73.9970703125 c 0
 103.916015625 -73.9970703125 95.2490234375 -71.330078125 87.2490234375 -65.9970703125 c 0
 73.916015625 -57.9970703125 65.916015625 -42.6640625 63.2490234375 -19.9970703125 c 0
 62.58203125 -16.6640625 62.58203125 -12.9970703125 63.2490234375 -8.9970703125 c 0
 63.2490234375 9.0029296875 67.916015625 25.669921875 77.2490234375 41.0029296875 c 0
 174.58203125 201.002929688 257.915039062 343.002929688 327.248046875 467.002929688 c 1
 370.581054688 543.002929688 416.581054688 629.669921875 465.248046875 727.002929688 c 0
 471.915039062 739.669921875 480.58203125 749.002929688 491.249023438 755.002929688 c 0
 501.916015625 761.669921875 512.583007812 765.336914062 523.25 766.00390625 c 0
 533.916992188 766.00390625 544.583984375 763.670898438 555.250976562 759.00390625 c 0
 570.583984375 751.00390625 580.583984375 739.00390625 585.250976562 723.00390625 c 0
 586.583984375 718.336914062 587.250976562 713.669921875 587.250976562 709.002929688 c 0
 587.250976562 697.669921875 583.91796875 685.002929688 577.250976562 671.002929688 c 0
 559.91796875 636.3359375 511.250976562 552.668945312 431.250976562 420.001953125 c 0
 351.250976562 287.334960938 302.583984375 204.66796875 285.250976562 172.000976562 c 0
 274.583984375 151.333984375 257.250976562 116.333984375 233.250976562 67.0009765625 c 0
 209.250976562 17.66796875 194.250976562 -12.33203125 188.250976562 -22.9990234375 c 0
 175.583984375 -43.666015625 159.916992188 -58.3330078125 141.25 -67 c 0
EndSplineSet
Validated: 524289
EndChar

StartChar: zero
Encoding: 48 48 16
Width: 650
GlyphClass: 2
Flags: W
HStem: -24.001 107.996<235.58 395.453> 611.995 106.005<251.512 402.238>
VStem: 66 120.999<228.996 530.163> 463.999 115.999<165.933 399.325 400.71 457.995>
LayerCount: 2
Fore
SplineSet
463.999023438 457.995117188 m 1
 391.33203125 330.662109375 307.666992188 221.995117188 213 131.995117188 c 1
 231 100.662109375 260.33203125 84.662109375 300.999023438 83.9951171875 c 0
 320.33203125 83.9951171875 337 85.4951171875 351 88.4951171875 c 0
 365 91.4951171875 378.333984375 96.328125 391 102.995117188 c 0
 416.333984375 116.328125 435.666015625 143.328125 448.999023438 183.995117188 c 0
 451.666015625 191.995117188 454.666015625 213.495117188 457.999023438 248.495117188 c 0
 461.33203125 283.495117188 463.666015625 323.995117188 464.998046875 369.995117188 c 0
 465.220703125 380 465.33203125 389.930664062 465.33203125 399.787109375 c 0
 465.33203125 419.486328125 464.888671875 438.888671875 463.999023438 457.995117188 c 1
386 599.997070312 m 0
 368.666992188 607.997070312 349.666015625 611.995117188 328.999023438 611.995117188 c 0
 292.33203125 611.995117188 263.83203125 602.828125 243.499023438 584.495117188 c 0
 223.166015625 566.162109375 207.333984375 534.995117188 196 490.995117188 c 0
 191.333984375 473.662109375 188 455.329101562 186 435.99609375 c 0
 184.666992188 415.99609375 184 393.329101562 184 367.99609375 c 0
 184 327.99609375 184.999023438 281.663085938 186.999023438 228.99609375 c 1
 273.666015625 339.663085938 353 453.330078125 425 569.997070312 c 1
 413.666992188 582.6640625 400.666992188 592.6640625 386 599.997070312 c 0
579.998046875 490.995117188 m 2
 579.998046875 489.998046875 l 2
 583.331054688 450.665039062 585 410.662109375 585 369.995117188 c 0
 585 329.328125 583.666992188 289.331054688 581 249.998046875 c 0
 578.333984375 210.665039062 574 179.665039062 568 156.998046875 c 0
 556 114.331054688 541 79.6640625 523 52.9970703125 c 0
 513.666992188 39.6640625 503.166992188 28.3310546875 491.5 18.998046875 c 0
 479.833984375 9.6650390625 467.666015625 2.33203125 454.999023438 -3.0009765625 c 0
 441.666015625 -8.333984375 426.666015625 -13.0009765625 409.999023438 -17.0009765625 c 0
 392.666015625 -20.333984375 375.666015625 -22.333984375 358.999023438 -23.0009765625 c 0
 342.33203125 -23.66796875 322.999023438 -24.0009765625 300.999023438 -24.0009765625 c 0
 264.999023438 -24.0009765625 231.666015625 -18.333984375 200.999023438 -7.0009765625 c 0
 172.33203125 4.33203125 147.999023438 20.4990234375 128 41.4990234375 c 0
 108 62.4990234375 92.666015625 87.666015625 82 116.999023438 c 0
 71.33203125 146.33203125 66 177.999023438 66 211.999023438 c 2
 66 217.999023438 l 2
 66 250.666015625 65.666015625 281.333007812 65 310 c 0
 65 330.666992188 65.5 356 66.5 386 c 0
 67.5 416 69.166015625 440.833007812 71.5 460.5 c 0
 73.83203125 480.166992188 77.33203125 501.333984375 82 524.000976562 c 0
 86.666015625 547.333984375 92.666015625 567.666992188 100 585 c 0
 117.33203125 628.333007812 146.33203125 661.333007812 186.999023438 684 c 0
 230.999023438 706.666992188 284.33203125 718 346.999023438 718 c 0
 378.33203125 718 407.666015625 713.333007812 434.998046875 704 c 0
 461.666015625 694.666992188 485.166015625 680.666992188 505.498046875 662 c 0
 525.831054688 643.333007812 542.498046875 619.5 555.498046875 590.5 c 0
 568.498046875 561.5 576.666015625 528.328125 579.998046875 490.995117188 c 2
EndSplineSet
Validated: 524289
EndChar

StartChar: one
Encoding: 49 49 17
Width: 650
GlyphClass: 2
Flags: W
HStem: -9.00098 110.501<114.326 261.998 393.002 576.561> -5.00098 114.001<70.4389 261.998 393.002 461.524>
VStem: 261.998 131.004<107 552.809> 272.999 123.003<266.377 552.809>
LayerCount: 2
Fore
SplineSet
593.001953125 49.9990234375 m 1xa0
 593.001953125 46.9990234375 l 2
 593.001953125 31.666015625 588.33203125 18.666015625 578.999023438 7.9990234375 c 0
 568.999023438 -3.333984375 551.999023438 -9.0009765625 527.999023438 -9.0009765625 c 0xa0
 275.33203125 -7.0009765625 136.665039062 -5.66796875 111.998046875 -5.0009765625 c 0
 93.3310546875 -5.0009765625 79.3310546875 0.33203125 69.998046875 10.9990234375 c 0
 61.3310546875 21.666015625 56.998046875 34.666015625 56.998046875 49.9990234375 c 2
 56.998046875 52.9990234375 l 2
 56.998046875 67.666015625 60.998046875 80.3330078125 68.998046875 91 c 0
 78.3310546875 103 92.998046875 109 112.998046875 109 c 0
 140.998046875 109 190.665039062 108.333007812 261.998046875 107 c 1x60
 261.998046875 127 261.665039062 143.666992188 260.998046875 157 c 0
 260.331054688 163 259.998046875 180.333007812 259.998046875 209 c 0
 259.998046875 234.333007812 260.331054688 255 260.998046875 271 c 0
 260.998046875 289 262.331054688 325 264.998046875 379 c 0
 269.665039062 480.333007812 272.33203125 539.333007812 272.999023438 556 c 1
 229.666015625 526 196.666015625 507 173.999023438 499 c 0
 165.999023438 497 160.666015625 496 157.999023438 496 c 0
 145.999023438 496 133.999023438 501 121.999023438 511 c 0
 105.999023438 524.333007812 97.9990234375 538 97.9990234375 552 c 0
 97.9990234375 565.333007812 100.999023438 576.833007812 106.999023438 586.5 c 0
 112.999023438 596.166992188 122.666015625 606 135.999023438 616 c 0
 154.666015625 630 179.333007812 648.666992188 210 672 c 1
 222.666992188 674 235.333984375 683 248.000976562 699 c 0
 259.333984375 707 271.000976562 714.333007812 283.000976562 721 c 0
 293.909179688 727.060546875 304.267578125 730.090820312 314.07421875 730.090820312 c 0
 315.055664062 730.090820312 316.03125 730.060546875 317.000976562 730 c 0
 335.66796875 730 354.334960938 723.333007812 373.001953125 710 c 0
 383.001953125 702.666992188 390.501953125 696 395.501953125 690 c 0
 400.501953125 684 403.001953125 678 403.001953125 672 c 2
 403.001953125 671 l 2
 402.334960938 655.666992188 400.001953125 603.166992188 396.001953125 513.5 c 0x50
 392.001953125 423.833007812 390.001953125 371.333007812 390.001953125 356 c 0
 390.001953125 292 390.334960938 238.666992188 391.001953125 196 c 0
 391.001953125 174 391.668945312 143 393.001953125 103 c 1
 429.001953125 102.333007812 452.001953125 102 462.001953125 102 c 0
 471.334960938 102 483.834960938 101.833007812 499.501953125 101.5 c 0
 515.168945312 101.166992188 525.3359375 101 530.002929688 101 c 0
 552.002929688 101 567.669921875 96.1669921875 577.002929688 86.5 c 0
 586.3359375 76.8330078125 591.668945312 65 593.001953125 51 c 2
 593.001953125 49.9990234375 l 1xa0
EndSplineSet
Validated: 524289
EndChar

StartChar: two
Encoding: 50 50 18
Width: 650
GlyphClass: 2
Flags: W
HStem: -18.0029 108.432<193.591 507.107> -12.0029 113.999<510.311 567.623> 506.999 21G<141.667 146.667> 612.998 109.001<253.888 417.109>
VStem: 442 126<456.851 587.935>
LayerCount: 2
Fore
SplineSet
509.998046875 101 m 1xb8
 516.665039062 109.666992188 523.66796875 109.99609375 531.000976562 101.99609375 c 0
 533.000976562 101.99609375 536.833984375 101.829101562 542.500976562 101.49609375 c 0
 548.16796875 101.163085938 552.66796875 100.163085938 556.000976562 98.49609375 c 0
 559.333984375 96.8291015625 562.666015625 94.99609375 566 92.99609375 c 0
 571.333007812 89.6630859375 575 85.6630859375 577 80.99609375 c 0
 581 72.99609375 583 63.6630859375 583 52.99609375 c 0
 583 33.6630859375 578 17.330078125 568 3.9970703125 c 0
 560 -6.669921875 549.666015625 -12.0029296875 537 -12.0029296875 c 0x78
 489.666015625 -12.0029296875 413.666015625 -14.0029296875 309 -18.0029296875 c 0
 273.666015625 -19.3359375 237.333984375 -20.0029296875 200.000976562 -20.0029296875 c 0
 165.333984375 -20.0029296875 138.333984375 -18.669921875 119 -16.0029296875 c 0
 108.333984375 -14.669921875 99 -10.3369140625 91 -3.00390625 c 0
 85 2.3291015625 80.333984375 9.3291015625 77 17.99609375 c 0
 70.333984375 35.3291015625 67 59.3291015625 67 89.99609375 c 0
 67 120.663085938 73.333984375 151.663085938 86 182.99609375 c 0
 98.66796875 214.329101562 117.66796875 244.49609375 143.000976562 273.49609375 c 0
 168.333984375 302.49609375 198.666015625 325.99609375 234 343.99609375 c 0
 312 381.99609375 362 408.663085938 384 423.99609375 c 0
 410.666015625 442.663085938 428 462.330078125 436 482.997070312 c 0
 440 495.6640625 442 511.331054688 442 529.998046875 c 0
 442 559.331054688 433 580.331054688 415 592.998046875 c 0
 395.666015625 606.331054688 366.666015625 612.998046875 328 612.998046875 c 0
 302 612.998046875 277.166015625 605.665039062 253.5 590.998046875 c 0
 229.833007812 576.331054688 211.333007812 559.998046875 198 541.998046875 c 0
 191.333007812 532.665039062 184.333007812 524.83203125 177 518.499023438 c 0
 169.666015625 512.166015625 162 508.666015625 154 507.999023438 c 0
 151.333007812 507.999023438 148.333007812 507.666015625 145 506.999023438 c 0
 138.333007812 506.999023438 127.33203125 510.33203125 112 516.999023438 c 0
 97.33203125 524.999023438 88 536.33203125 84 550.999023438 c 0
 83.33203125 554.999023438 83 558.666015625 83 561.999023438 c 0
 83 573.33203125 86.666015625 586.999023438 94 602.999023438 c 0
 101.33203125 616.999023438 112 630.83203125 126 644.499023438 c 0
 140 658.166015625 156 670.999023438 174 682.999023438 c 0
 193.333007812 694.999023438 216.333007812 704.499023438 243 711.499023438 c 0
 269.666015625 718.499023438 296.666015625 721.999023438 324 721.999023438 c 0
 406 721.999023438 467.333007812 704.999023438 508 670.999023438 c 0
 548 636.999023438 568 585.999023438 568 517.999023438 c 0
 568 461.999023438 553 416.666015625 523 381.999023438 c 0
 501 357.33203125 461 330.33203125 403 300.999023438 c 0
 388.333007812 293.666015625 363 281.666015625 327 264.999023438 c 0
 297 250.999023438 272 233.83203125 252 213.499023438 c 0
 232 193.166015625 217.333007812 172.333007812 208 151 c 0
 200.666015625 133 195.666015625 113.666992188 193 93 c 1
 226.716796875 91.28515625 258.962890625 90.4287109375 289.740234375 90.4287109375 c 0
 294.868164062 90.4287109375 299.954101562 90.4521484375 304.998046875 90.5 c 0
 340.33203125 90.8330078125 367.665039062 91.3330078125 386.998046875 92 c 0
 406.998046875 93.3330078125 447.998046875 96.3330078125 509.998046875 101 c 1xb8
EndSplineSet
Validated: 524289
EndChar

StartChar: three
Encoding: 51 51 19
Width: 650
GlyphClass: 2
Flags: W
HStem: -24.0166 108.017<242.507 402.542> 306 125<204.72 368.949> 520.002 21G<144.501 151.834> 613.001 109.001<237.846 402.21>
VStem: 428.502 126.997<479.219 589.309> 453.5 124<130.061 255.137>
LayerCount: 2
Fore
SplineSet
566.5 279.5 m 0xf8
 573.833007812 257.833007812 577.5 232.330078125 577.5 202.997070312 c 0
 577.5 133.6640625 555.166992188 78.3310546875 510.5 36.998046875 c 0
 465.23046875 -3.6787109375 400.268554688 -24.0166015625 315.61328125 -24.0166015625 c 0
 314.247070312 -24.0166015625 312.875976562 -24.01171875 311.5 -24.0009765625 c 0
 284.166992188 -24.0009765625 257.166992188 -20.333984375 230.5 -13.0009765625 c 0
 203.833007812 -5.66796875 181.333007812 3.6650390625 163 14.998046875 c 0
 144.666992188 26.3310546875 128.5 38.998046875 114.5 52.998046875 c 0
 100.5 66.998046875 90 80.8310546875 83 94.498046875 c 0
 76 108.165039062 72.5 120.998046875 72.5 132.998046875 c 0
 72.5 136.998046875 73.1669921875 140.998046875 74.5 144.998046875 c 0
 77.8330078125 161.665039062 86.8330078125 173.33203125 101.5 179.999023438 c 0
 112.166992188 185.33203125 122.166992188 187.999023438 131.5 187.999023438 c 0
 151.5 187.999023438 169.5 177.33203125 185.5 155.999023438 c 0
 200.166992188 136.666015625 219.166992188 119.833007812 242.5 105.5 c 0
 265.833007812 91.1669921875 290.5 84 316.5 84 c 0
 357.166992188 84 390.166992188 93.8330078125 415.5 113.5 c 0
 440.833007812 133.166992188 453.5 158 453.5 188 c 0xf4
 453.5 207.333007812 450.166992188 223.833007812 443.5 237.5 c 0
 436.833007812 251.166992188 426.333007812 263.166992188 412 273.5 c 0
 397.666992188 283.833007812 377.333984375 291.833007812 351.000976562 297.5 c 0
 324.66796875 303.166992188 292.500976562 306 254.500976562 306 c 0
 235.16796875 306 219.16796875 312.666992188 206.500976562 326 c 0
 193.16796875 339.333007812 186.500976562 354.333007812 186.500976562 371 c 0
 186.500976562 387.666992188 191.16796875 401.666992188 200.500976562 413 c 0
 211.16796875 425 226.500976562 431 246.500976562 431 c 0
 305.16796875 431 350.834960938 440.666992188 383.501953125 460 c 0
 413.501953125 478 428.501953125 504 428.501953125 538 c 2
 428.501953125 541 l 1
 428.501953125 545 l 2
 428.501953125 567.666992188 419.168945312 584.333984375 400.501953125 595.000976562 c 0
 378.501953125 607.000976562 346.501953125 613.000976562 304.501953125 613.000976562 c 0
 291.834960938 613.000976562 278.16796875 611.000976562 263.500976562 607.000976562 c 0
 259.500976562 605.66796875 254.833984375 603.16796875 249.500976562 599.500976562 c 0
 244.16796875 595.833984375 240.000976562 592.833984375 237.000976562 590.500976562 c 0
 234.000976562 588.16796875 230.000976562 584.334960938 225.000976562 579.001953125 c 0
 220.000976562 573.668945312 216.500976562 569.668945312 214.500976562 567.001953125 c 0
 210.500976562 554.334960938 206.833984375 549.66796875 203.500976562 553.000976562 c 1
 190.16796875 535.66796875 176.500976562 525.334960938 162.500976562 522.001953125 c 0
 158.500976562 520.668945312 154.16796875 520.001953125 149.500976562 520.001953125 c 0
 139.500976562 520.001953125 129.16796875 523.001953125 118.500976562 529.001953125 c 0
 103.833984375 536.334960938 94.833984375 548.001953125 91.5009765625 564.001953125 c 0
 90.833984375 568.001953125 90.5009765625 572.001953125 90.5009765625 576.001953125 c 0
 90.5009765625 588.001953125 93.833984375 601.001953125 100.500976562 615.001953125 c 0
 114.500976562 643.668945312 136.16796875 668.001953125 165.500976562 688.001953125 c 0
 180.833984375 698.668945312 200.166992188 707.001953125 223.5 713.001953125 c 0
 246.833007812 719.001953125 272.166015625 722.001953125 299.499023438 722.001953125 c 0
 387.499023438 722.001953125 452.499023438 705.668945312 494.499023438 673.001953125 c 0
 535.166015625 640.334960938 555.499023438 592.66796875 555.499023438 530.000976562 c 2
 555.499023438 526.000976562 l 1
 555.499023438 523.000976562 l 2
 555.499023438 504.333984375 552.666015625 486.833984375 546.999023438 470.500976562 c 0
 541.33203125 454.16796875 533.665039062 440.334960938 523.998046875 429.001953125 c 0
 514.331054688 417.668945312 502.831054688 407.668945312 489.498046875 399.001953125 c 0
 476.165039062 390.334960938 462.498046875 383.66796875 448.498046875 379.000976562 c 1
 459.165039062 375.66796875 468.83203125 372.334960938 477.499023438 369.001953125 c 0
 498.166015625 360.334960938 516.333007812 348.66796875 532 334.000976562 c 0
 547.666992188 319.333984375 559.166992188 301.166992188 566.5 279.5 c 0xf8
EndSplineSet
Validated: 524289
EndChar

StartChar: four
Encoding: 52 52 20
Width: 650
GlyphClass: 2
Flags: W
HStem: -23 21G<453 468.333> 218.999 90.001<195.216 396.999 498.001 566.169>
VStem: 390.001 98.999<456.567 587.448> 395.999 102.002<37.313 218 309 587.448> 396.999 109.002<-7.4969 213.685>
LayerCount: 2
Fore
SplineSet
504.000976562 59 m 0xd0
 505.333984375 51 506.000976562 43.6669921875 506.000976562 37 c 0xc8
 506.000976562 23.6669921875 503.333984375 12 498.000976562 2 c 0xd0
 489.333984375 -14.6669921875 476.666992188 -23 460 -23 c 0
 446 -23 432.166992188 -17.8330078125 418.5 -7.5 c 0
 404.833007812 2.8330078125 397.666015625 13.666015625 396.999023438 24.9990234375 c 0xc8
 396.33203125 32.9990234375 395.999023438 45.666015625 395.999023438 62.9990234375 c 2
 395.999023438 138.999023438 l 2xd0
 395.999023438 166.33203125 396.33203125 192.999023438 396.999023438 218.999023438 c 1xc8
 351.999023438 218.999023438 l 2
 253.33203125 218.999023438 183.665039062 214.666015625 142.998046875 205.999023438 c 0
 138.331054688 204.666015625 133.331054688 204.166015625 127.998046875 204.499023438 c 0
 122.665039062 204.83203125 117.33203125 205.665039062 111.999023438 206.998046875 c 0
 102.666015625 210.331054688 95.166015625 215.498046875 89.4990234375 222.498046875 c 0
 83.83203125 229.498046875 79.4990234375 237.498046875 76.4990234375 246.498046875 c 0
 73.4990234375 255.498046875 71.9990234375 264.665039062 71.9990234375 273.998046875 c 0
 71.9990234375 284.665039062 73.666015625 294.665039062 76.9990234375 303.998046875 c 0
 83.666015625 323.331054688 101.666015625 353.831054688 130.999023438 395.498046875 c 0
 160.33203125 437.165039062 198.999023438 488.998046875 246.999023438 550.998046875 c 0
 289.666015625 605.665039062 323.666015625 650.33203125 348.999023438 684.999023438 c 0
 358.33203125 697.666015625 368.999023438 707.499023438 380.999023438 714.499023438 c 0
 392.999023438 721.499023438 404.666015625 724.999023438 415.999023438 724.999023438 c 2
 422.999023438 724.999023438 l 2
 434.999023438 724.999023438 445.999023438 722.666015625 455.999023438 717.999023438 c 0
 468.666015625 711.33203125 476.333007812 699.999023438 479 683.999023438 c 2
 479 682.999023438 l 1
 483 659.666015625 486.333007812 624.166015625 489 576.499023438 c 0xe0
 491.666992188 528.83203125 493.333984375 488.33203125 494.000976562 454.999023438 c 0
 494.66796875 405.666015625 495.66796875 356.666015625 497.000976562 307.999023438 c 1
 507.000976562 307.33203125 518.000976562 306.999023438 530.000976562 306.999023438 c 0
 547.333984375 306.999023438 559.500976562 303.166015625 566.500976562 295.499023438 c 0
 573.500976562 287.83203125 577.333984375 277.999023438 578.000976562 265.999023438 c 2
 578.000976562 265 l 2
 578.000976562 251 574.66796875 240 568.000976562 232 c 0
 560.000976562 222 547.333984375 217 530.000976562 217 c 0
 518.66796875 217 508.000976562 217.333007812 498.000976562 218 c 1
 499.333984375 125.333007812 501.333984375 72.3330078125 504.000976562 59 c 0xd0
329.000976562 309 m 2
 396.999023438 309 l 1xc8
 396.999023438 424.333007812 394.66796875 517.666015625 390.000976562 588.999023438 c 1xe0
 295.333984375 469.666015625 230.000976562 375.333007812 194.000976562 306 c 1
 231.333984375 308 276.333984375 309 329.000976562 309 c 2
EndSplineSet
Validated: 524289
EndChar

StartChar: five
Encoding: 53 53 21
Width: 650
GlyphClass: 2
Flags: W
HStem: -18.002 109.001<219.765 381.839> 407.998 113.043<256.316 425.675> 594.995 112.998<301.603 562.12> 605.995 103.998<195.501 524.887>
VStem: 73.501 119<466.431 602.995> 463.498 124.003<181.147 368.764>
LayerCount: 2
Fore
SplineSet
78.5009765625 561 m 0xdc
 79.833984375 581.666992188 80.4951171875 596.993164062 80.4951171875 606.993164062 c 1
 73.7734375 617.9921875 70.4130859375 630.672851562 70.4130859375 645.033203125 c 0
 70.4130859375 658.096679688 70.94140625 681.393554688 90.49609375 698.993164062 c 0
 99.8291015625 707.66015625 110.49609375 711.993164062 122.49609375 711.993164062 c 0
 147.163085938 711.993164062 209.163085938 711.326171875 308.497070312 709.993164062 c 0xdc
 409.163085938 708.66015625 483.497070312 707.993164062 531.497070312 707.993164062 c 0
 544.163085938 707.993164062 554.497070312 702.66015625 562.497070312 691.993164062 c 0
 572.497070312 678.66015625 577.497070312 662.327148438 577.497070312 642.994140625 c 0
 577.497070312 622.994140625 571.829101562 609.661132812 560.497070312 602.994140625 c 0
 557.163085938 600.994140625 553.830078125 599.327148438 550.497070312 597.994140625 c 0
 547.165039062 596.661132812 542.665039062 595.828125 536.997070312 595.495117188 c 0
 531.330078125 595.162109375 527.330078125 594.995117188 524.997070312 594.995117188 c 0xec
 522.665039062 594.995117188 518.997070312 595.162109375 513.997070312 595.495117188 c 0
 508.997070312 595.828125 505.830078125 595.995117188 504.497070312 595.995117188 c 1
 495.165039062 595.995117188 477.831054688 597.328125 452.498046875 599.995117188 c 0
 425.831054688 601.995117188 402.331054688 603.495117188 381.998046875 604.495117188 c 0
 361.665039062 605.495117188 334.333007812 605.995117188 299.999023438 605.995117188 c 0
 265.666015625 605.995117188 230.833007812 604.995117188 195.500976562 602.995117188 c 1
 193.366210938 562.998046875 192.299804688 535.798828125 192.299804688 521.3984375 c 0
 192.299804688 517.796875 192.366210938 514.99609375 192.500976562 512.995117188 c 0
 192.500976562 500.995117188 192.333007812 492.495117188 192.000976562 487.495117188 c 0
 191.666992188 482.495117188 191.833984375 475.328125 192.500976562 465.995117188 c 1
 210.500976562 479.328125 232.168945312 490.995117188 257.500976562 500.995117188 c 0
 292.500976562 514.358398438 331.751953125 521.041015625 375.254882812 521.041015625 c 0
 377.327148438 521.041015625 379.409179688 521.025390625 381.500976562 520.995117188 c 0
 416.168945312 520.995117188 447.168945312 515.328125 474.500976562 503.995117188 c 0
 499.833984375 492.662109375 520.666992188 476.829101562 537.000976562 456.49609375 c 0
 553.333007812 436.163085938 565.833007812 412.830078125 574.500976562 386.497070312 c 0
 583.166992188 360.1640625 587.500976562 331.6640625 587.500976562 300.997070312 c 0
 587.500976562 251.6640625 581.166992188 206.831054688 568.500976562 166.498046875 c 0
 555.833007812 126.165039062 537.666015625 92.498046875 513.999023438 65.498046875 c 0
 490.333007812 38.498046875 460.833007812 17.998046875 425.499023438 3.998046875 c 0
 389.499023438 -10.6689453125 350.499023438 -18.001953125 308.499023438 -18.001953125 c 0
 275.166015625 -18.001953125 244.166015625 -14.6689453125 215.499023438 -8.001953125 c 0
 187.499023438 -1.3349609375 164.833007812 7.33203125 147.499023438 17.9990234375 c 0
 130.166015625 28.666015625 115.499023438 40.3330078125 103.499023438 53 c 0
 91.4990234375 65.6669921875 81.4990234375 79 73.4990234375 93 c 0
 66.166015625 109 62.4990234375 122.666992188 62.4990234375 134 c 0
 62.4990234375 138 63.166015625 142 64.4990234375 146 c 0
 67.83203125 160.666992188 77.1650390625 172 92.498046875 180 c 0
 100.498046875 183.333007812 106.998046875 185.666015625 111.998046875 186.999023438 c 0
 116.998046875 188.33203125 121.331054688 188.999023438 124.998046875 188.999023438 c 0
 128.665039062 188.999023438 131.498046875 188.666015625 133.498046875 187.999023438 c 0
 142.165039062 187.33203125 150.165039062 183.665039062 157.498046875 176.998046875 c 0
 163.498046875 171.665039062 169.831054688 164.33203125 176.498046875 154.999023438 c 0
 206.498046875 112.33203125 246.831054688 90.9990234375 297.498046875 90.9990234375 c 0
 348.165039062 90.9990234375 388.165039062 108.33203125 417.498046875 142.999023438 c 0
 448.165039062 178.999023438 463.498046875 227.666015625 463.498046875 288.999023438 c 0
 463.498046875 326.33203125 454.165039062 355.665039062 435.498046875 376.998046875 c 0
 418.165039062 397.665039062 390.833007812 407.998046875 353.499023438 407.998046875 c 0
 336.166015625 407.998046875 317.833007812 405.998046875 298.500976562 401.998046875 c 0
 289.166992188 399.998046875 276.166992188 395.331054688 259.500976562 387.998046875 c 0
 255.500976562 385.998046875 250.333007812 382.665039062 244.000976562 377.998046875 c 0
 237.666992188 373.331054688 233.500976562 369.998046875 231.500976562 367.998046875 c 0
 220.166992188 358.665039062 210.833984375 350.665039062 203.500976562 343.998046875 c 0
 188.168945312 331.331054688 170.500976562 323.998046875 150.500976562 321.998046875 c 2
 143.500976562 321.998046875 l 2
 134.168945312 321.998046875 125.16796875 323.998046875 116.500976562 327.998046875 c 0
 102.500976562 333.998046875 91.833984375 346.665039062 84.5009765625 365.998046875 c 0
 78.5009765625 382.665039062 74.833984375 403.33203125 73.5009765625 427.999023438 c 0
 73.1669921875 433.33203125 73.0009765625 438.666015625 73.0009765625 444 c 0
 73.0009765625 449.333007812 73.1669921875 454.666015625 73.5009765625 460 c 0
 73.5009765625 483.333007812 75.16796875 517 78.5009765625 561 c 0xdc
EndSplineSet
Validated: 524289
EndChar

StartChar: six
Encoding: 54 54 22
Width: 650
GlyphClass: 2
Flags: W
HStem: -22.002 107.997<251.312 392.935> 379.996 114.002<247.445 428.642>
VStem: 60 116<167.545 324.488> 466.999 123.001<163.55 341.372>
LayerCount: 2
Fore
SplineSet
574.999023438 361 m 0
 584.999023438 329.666992188 590 293.331054688 590 251.998046875 c 0
 590 213.998046875 583.333007812 178.331054688 570 144.998046875 c 0
 544 76.998046875 498.666992188 28.3310546875 434 -1.001953125 c 0
 401.478515625 -15.03125 366.823242188 -22.0458984375 330.032226562 -22.0458984375 c 0
 328.359375 -22.0458984375 326.681640625 -22.03125 325 -22.001953125 c 0
 278.333007812 -22.001953125 237 -14.001953125 201 1.998046875 c 0
 167 18.6650390625 139.833007812 41.998046875 119.5 71.998046875 c 0
 99.1669921875 101.998046875 84.1669921875 136.831054688 74.5 176.498046875 c 0
 64.8330078125 216.165039062 60 259.665039062 60 306.998046875 c 0
 60 366.998046875 65.8330078125 420.498046875 77.5 467.498046875 c 0
 89.1669921875 514.498046875 104.833984375 553.831054688 124.500976562 585.498046875 c 0
 144.16796875 617.165039062 169.000976562 643.665039062 199.000976562 664.998046875 c 0
 230.333984375 686.998046875 264.333984375 703.665039062 301.000976562 714.998046875 c 0
 337.66796875 726.331054688 378.000976562 733.6640625 422.000976562 736.997070312 c 2
 433.000976562 736.997070312 l 2
 448.333984375 736.997070312 461.666992188 734.330078125 473 728.997070312 c 0
 488.333007812 721.6640625 497.333007812 709.997070312 500 693.997070312 c 2
 500 689.997070312 l 2
 500 679.997070312 495 669.6640625 485 658.997070312 c 0
 474.333007812 648.330078125 462 640.997070312 448 636.997070312 c 0
 440 634.997070312 427.666992188 632.497070312 411 629.497070312 c 0
 394.333007812 626.497070312 380.333007812 623.6640625 369 620.997070312 c 0
 357.666992188 618.330078125 344.666992188 614.330078125 330 608.997070312 c 0
 300.666992188 598.330078125 271 577.997070312 241 547.997070312 c 0
 225.666992188 531.997070312 211.666992188 510.330078125 199 482.997070312 c 0
 193 468.997070312 187.666992188 455.997070312 183 443.997070312 c 1
 201 456.6640625 221.333007812 466.6640625 244 473.997070312 c 0
 281.333007812 486.6640625 323.333007812 493.331054688 370 493.998046875 c 0
 405.333007812 493.998046875 436.666015625 489.331054688 463.999023438 479.998046875 c 0
 489.999023438 470.665039062 512.499023438 456.33203125 531.499023438 436.999023438 c 0
 550.499023438 417.666015625 564.999023438 392.333007812 574.999023438 361 c 0
275 94.9970703125 m 0
 290.333007812 88.9970703125 306.666015625 85.9951171875 323.999023438 85.9951171875 c 2
 325.999023438 85.9951171875 l 1
 326.999023438 85.9951171875 l 2
 350.33203125 85.9951171875 372.999023438 93.662109375 394.999023438 108.995117188 c 0
 416.999023438 124.328125 434.499023438 143.828125 447.499023438 167.495117188 c 0
 460.499023438 191.162109375 466.999023438 215.329101562 466.999023438 239.99609375 c 0
 466.999023438 297.329101562 455.999023438 335.329101562 433.999023438 353.99609375 c 0
 422.666015625 363.329101562 409.833007812 369.99609375 395.5 373.99609375 c 0
 381.166992188 377.99609375 363 379.99609375 341 379.99609375 c 0
 307 379.99609375 275.333007812 372.49609375 246 357.49609375 c 0
 216.666992188 342.49609375 193 323.329101562 175 299.99609375 c 1
 175 274.663085938 175.333007812 253.663085938 176 236.99609375 c 0
 178.666992188 208.99609375 188.333984375 181.663085938 205.000976562 154.99609375 c 0
 213.66796875 141.663085938 223.66796875 129.830078125 235.000976562 119.497070312 c 0
 246.333984375 109.1640625 259.666992188 100.997070312 275 94.9970703125 c 0
EndSplineSet
Validated: 524289
EndChar

StartChar: seven
Encoding: 55 55 23
Width: 650
GlyphClass: 2
Flags: W
HStem: -23 21G<150 157.667> 601 113.001<111.735 440.001>
LayerCount: 2
Fore
SplineSet
253.001953125 601 m 0
 187.001953125 599.666992188 144.333984375 596.669921875 125.000976562 592.002929688 c 0
 121.000976562 590.669921875 116.500976562 590.002929688 111.500976562 590.002929688 c 0
 106.500976562 590.002929688 101.333984375 591.002929688 96.0009765625 593.002929688 c 0
 87.333984375 596.3359375 80.6669921875 601.3359375 76 608.002929688 c 0
 66.6669921875 620.002929688 61.6669921875 633.669921875 61 649.002929688 c 1
 61 642.3359375 61 642.668945312 61 650.001953125 c 0
 61 664.001953125 65 675.668945312 73 685.001953125 c 0
 81 694.334960938 94.6669921875 700.66796875 114 704.000976562 c 0
 150 710.66796875 210.333007812 714.000976562 295 714.000976562 c 0
 329.666992188 714.000976562 377.333984375 712.66796875 438.000976562 710.000976562 c 0
 495.333984375 708.000976562 525.333984375 707.000976562 528.000976562 707.000976562 c 0
 536.66796875 707.000976562 545.16796875 705.16796875 553.500976562 701.500976562 c 0
 561.833984375 697.833984375 569.666992188 692.000976562 577 684.000976562 c 0
 584.333007812 675.333984375 588.333007812 664.000976562 589 650.000976562 c 0
 589 638.000976562 585.333007812 624.66796875 578 610.000976562 c 0
 568.666992188 590.000976562 551.666992188 560.500976562 527 521.500976562 c 0
 502.333007812 482.500976562 476.333007812 442.66796875 449 402.000976562 c 0
 420.333007812 361.333984375 385.333007812 307.166992188 344 239.5 c 0
 302.666992188 171.833007812 263.666992188 102.666015625 227 31.9990234375 c 0
 217.666992188 12.666015625 204.666992188 -1.6669921875 188 -11 c 0
 175.333007812 -19 163.333007812 -23 152 -23 c 0
 148 -23 144 -22.6669921875 140 -22 c 0
 122 -18 109.333007812 -8 102 8 c 0
 98.6669921875 15.3330078125 97 23.166015625 97 31.4990234375 c 0
 97 39.83203125 99.3330078125 48.9990234375 104 58.9990234375 c 0
 138 125.666015625 175.666992188 191.999023438 217 257.999023438 c 0
 259.666992188 323.999023438 294.833984375 376.33203125 322.500976562 414.999023438 c 0
 350.16796875 453.666015625 374.500976562 489.333007812 395.500976562 522 c 0
 416.500976562 554.666992188 431.333984375 581 440.000976562 601 c 1
 411.333984375 601.666015625 381.41796875 602 350.251953125 602 c 0
 319.084960938 602 286.66796875 601.666015625 253.001953125 601 c 0
EndSplineSet
Validated: 524289
EndChar

StartChar: eight
Encoding: 56 56 24
Width: 650
GlyphClass: 2
Flags: W
HStem: -28.001 110<229.184 410.638> 621.999 96.002<246.764 383.08>
VStem: 54.499 111.003<137.082 263.615> 81.499 121.003<482.059 579.145> 434.501 117.001<478.907 573.656> 478.502 116.999<140 269.94>
LayerCount: 2
Fore
SplineSet
243.501953125 96.9990234375 m 0xe4
 266.834960938 86.9990234375 291.834960938 81.9990234375 318.501953125 81.9990234375 c 0
 337.168945312 81.9990234375 356.001953125 84.666015625 375.001953125 89.9990234375 c 0
 394.001953125 95.33203125 411.334960938 102.999023438 427.001953125 112.999023438 c 0
 442.668945312 122.999023438 455.168945312 135.666015625 464.501953125 150.999023438 c 0
 473.834960938 166.33203125 478.501953125 182.999023438 478.501953125 200.999023438 c 0
 478.501953125 210.999023438 477.501953125 220.33203125 475.501953125 228.999023438 c 0
 473.501953125 237.666015625 469.501953125 247.666015625 463.501953125 258.999023438 c 0
 457.501953125 270.33203125 449.168945312 280.999023438 438.501953125 290.999023438 c 0
 427.834960938 300.999023438 413.001953125 311.33203125 394.001953125 321.999023438 c 0
 375.001953125 332.666015625 352.501953125 342.333007812 326.501953125 351 c 1
 278.501953125 339 239.501953125 318.666992188 209.501953125 290 c 0
 180.168945312 261.333007812 165.501953125 230.666015625 165.501953125 197.999023438 c 0
 165.501953125 175.999023438 172.501953125 155.999023438 186.501953125 137.999023438 c 0
 201.834960938 119.999023438 220.834960938 106.33203125 243.501953125 96.9990234375 c 0xe4
236.000976562 591.499023438 m 0
 213.666992188 571.166015625 202.501953125 549.333007812 202.501953125 526 c 0
 202.501953125 507.333007812 212.168945312 490.666015625 231.501953125 475.999023438 c 0
 251.501953125 460.666015625 285.168945312 444.999023438 332.501953125 428.999023438 c 1
 359.834960938 439.666015625 383.668945312 453.666015625 404.000976562 470.999023438 c 0
 424.333984375 488.33203125 434.500976562 503.33203125 434.500976562 515.999023438 c 0xd8
 434.500976562 532.666015625 429.333984375 548.999023438 419.000976562 564.999023438 c 0
 408.668945312 580.999023438 394.168945312 594.499023438 375.500976562 605.499023438 c 0
 356.833984375 616.499023438 337.166992188 621.999023438 316.500976562 621.999023438 c 2
 314.500976562 621.999023438 l 2
 284.500976562 621.999023438 258.333007812 611.83203125 236.000976562 591.499023438 c 0
592.000976562 246 m 0
 594.333984375 234 595.500976562 221.33203125 595.500976562 207.999023438 c 0
 595.500976562 185.999023438 592.500976562 164.33203125 586.500976562 142.999023438 c 0
 580.500976562 121.666015625 570.500976562 100.499023438 556.500976562 79.4990234375 c 0
 542.500976562 58.4990234375 525.166992188 40.33203125 504.500976562 24.9990234375 c 0
 483.833007812 9.666015625 456.666015625 -3.0009765625 422.999023438 -13.0009765625 c 0
 389.333007812 -23.0009765625 352.665039062 -28.0009765625 312.998046875 -28.0009765625 c 0
 273.331054688 -28.0009765625 237.831054688 -23.333984375 206.498046875 -14.0009765625 c 0
 176.498046875 -4.66796875 152.331054688 7.4990234375 133.998046875 22.4990234375 c 0
 115.665039062 37.4990234375 100.33203125 55.166015625 87.9990234375 75.4990234375 c 0
 75.666015625 95.83203125 66.9990234375 116.33203125 61.9990234375 136.999023438 c 0
 56.9990234375 157.666015625 54.4990234375 179.333007812 54.4990234375 202 c 0xe4
 54.4990234375 224.666992188 60.4990234375 249.166992188 72.4990234375 275.5 c 0
 84.4990234375 301.833007812 102.166015625 326.333007812 125.499023438 349 c 0
 141.499023438 365 158.833007812 377.666992188 177.499023438 387 c 1
 150.833007812 402.333007812 129.499023438 420.666015625 113.499023438 441.999023438 c 0
 92.166015625 469.999023438 81.4990234375 498.666015625 81.4990234375 527.999023438 c 0
 81.4990234375 536.666015625 82.166015625 545.666015625 83.4990234375 554.999023438 c 0
 84.83203125 564.33203125 87.6650390625 575.33203125 91.998046875 587.999023438 c 0
 96.3310546875 600.666015625 101.831054688 612.83203125 108.498046875 624.499023438 c 0
 115.165039062 636.166015625 124.33203125 647.833007812 135.999023438 659.5 c 0
 147.666015625 671.166992188 160.833007812 681.000976562 175.500976562 689.000976562 c 0
 192.166992188 697.66796875 212.500976562 704.66796875 236.500976562 710.000976562 c 0
 260.500976562 715.333984375 286.833007812 718.000976562 315.500976562 718.000976562 c 0
 344.166992188 718.000976562 370.500976562 715.333984375 394.500976562 710.000976562 c 0
 418.500976562 704.66796875 438.833007812 698.000976562 455.500976562 690.000976562 c 0
 472.166992188 681.333984375 486.333984375 671.166992188 498.000976562 659.5 c 0
 509.668945312 647.833007812 518.834960938 636.166015625 525.501953125 624.499023438 c 0
 532.168945312 612.83203125 537.501953125 600.499023438 541.501953125 587.499023438 c 0
 545.501953125 574.499023438 548.168945312 563.166015625 549.501953125 553.499023438 c 0
 550.834960938 543.83203125 551.501953125 534.33203125 551.501953125 524.999023438 c 0
 551.501953125 515.666015625 550.334960938 506.833007812 548.001953125 498.5 c 0
 545.668945312 490.166992188 542.836914062 482.666015625 539.502929688 475.999023438 c 0
 536.169921875 469.33203125 531.501953125 462.5 525.501953125 455.5 c 0
 519.501953125 448.5 514.002929688 442.666992188 509.002929688 438 c 0
 504.002929688 433.333007812 497.669921875 428 490.002929688 422 c 0
 482.336914062 416 476.168945312 411.666992188 471.501953125 409 c 0
 466.834960938 406.333007812 460.834960938 402.333007812 453.501953125 397 c 1
 472.168945312 389 488.501953125 380 502.501953125 370 c 0
 521.834960938 356.666992188 537.334960938 343.166992188 549.001953125 329.5 c 0
 560.668945312 315.833007812 570.168945312 301.5 577.501953125 286.5 c 0
 584.834960938 271.5 589.668945312 258 592.000976562 246 c 0
EndSplineSet
Validated: 524289
EndChar

StartChar: nine
Encoding: 57 57 25
Width: 650
GlyphClass: 2
Flags: W
HStem: -22.9951 21G<184.667 193.667> 223.002 113.005<236.64 418.074> 630.006 108.993<253.431 400.932>
VStem: 60 122.002<391.618 557.824> 476.002 113.998<379.658 542.364>
LayerCount: 2
Fore
SplineSet
202 555.004882812 m 0
 188.66796875 532.337890625 182.001953125 509.006835938 182.001953125 485.006835938 c 0
 182.001953125 385.673828125 229 336.006835938 323 336.006835938 c 0
 353 336.006835938 382.001953125 342.006835938 410.001953125 354.006835938 c 0
 438.001953125 366.006835938 460.001953125 381.33984375 476.001953125 400.006835938 c 1
 476.001953125 409.006835938 l 2
 476.001953125 427.006835938 475.001953125 450.673828125 473.001953125 480.006835938 c 0
 470.3359375 508.006835938 460.66796875 535.33984375 444.000976562 562.006835938 c 0
 435.333984375 575.33984375 425.500976562 587.172851562 414.500976562 597.505859375 c 0
 403.500976562 607.838867188 390.16796875 615.838867188 374.500976562 621.505859375 c 0
 358.833984375 627.172851562 342.66796875 630.005859375 326 630.005859375 c 2
 323 630.005859375 l 2
 299 630.005859375 276.16796875 623.172851562 254.5 609.505859375 c 0
 232.833007812 595.838867188 215.333007812 577.671875 202 555.004882812 c 0
202 -22 m 0
 198.66796875 -22 195.333984375 -22.328125 192.000976562 -22.9951171875 c 0
 177.333984375 -22.9951171875 164.333984375 -19.9951171875 153.000976562 -13.9951171875 c 0
 137.66796875 -6.662109375 129.000976562 5.0048828125 127.000976562 21.0048828125 c 0
 127.000976562 22.337890625 126.66796875 23.337890625 126.000976562 24.0048828125 c 0
 126.000976562 34.671875 131.16796875 45.171875 141.500976562 55.5048828125 c 0
 151.833984375 65.837890625 163.333984375 73.0048828125 176.000976562 77.0048828125 c 0
 184.000976562 79.0048828125 197.16796875 81.671875 215.500976562 85.0048828125 c 0
 233.833984375 88.337890625 250.000976562 91.6708984375 264.000976562 95.00390625 c 0
 278.000976562 98.3369140625 293.333984375 102.669921875 310.000976562 108.002929688 c 0
 345.333984375 120.002929688 376.333984375 139.002929688 403.000976562 165.002929688 c 0
 420.333984375 183.002929688 436.000976562 203.669921875 450.000976562 227.002929688 c 0
 455.333984375 236.3359375 460.000976562 245.668945312 464.000976562 255.001953125 c 1
 449.333984375 247.001953125 433.333984375 240.668945312 416.000976562 236.001953125 c 0
 383.333984375 228.001953125 343.000976562 223.668945312 295.000976562 223.001953125 c 0
 261.000976562 223.001953125 228.66796875 230.001953125 198.000976562 244.001953125 c 0
 168.66796875 258.001953125 144.16796875 276.668945312 124.500976562 300.001953125 c 0
 104.833984375 323.334960938 89.1669921875 350.16796875 77.5 380.500976562 c 0
 65.8330078125 410.833984375 60 441.666992188 60 473 c 0
 60 511 66.5 546.5 79.5 579.5 c 0
 92.5 612.5 110.166992188 640.666992188 132.5 664 c 0
 154.833007812 687.333007812 182.666015625 705.666015625 216 718.999023438 c 0
 250 732.33203125 286 738.999023438 324 738.999023438 c 0
 418 738.999023438 486.33203125 706.999023438 529 642.999023438 c 0
 569 582.999023438 589.33203125 498.33203125 590 388.999023438 c 0
 590 331.666015625 583.33203125 280.999023438 570 236.999023438 c 0
 556.666015625 192.999023438 538.833007812 155.83203125 516.5 125.499023438 c 0
 494.16796875 95.166015625 466.66796875 69.3330078125 434 48 c 0
 400 26.6669921875 363.833007812 10.5 325.5 -0.5 c 0
 287.16796875 -11.5 246 -18.6669921875 202 -22 c 0
EndSplineSet
Validated: 524289
EndChar

StartChar: colon
Encoding: 58 58 26
Width: 650
GlyphClass: 2
Flags: W
HStem: 27.001 180<267.159 381.079> 295.001 179<277.565 377.156>
VStem: 248 155<49.1377 186.712 322.001 455.644>
LayerCount: 2
Fore
SplineSet
400 404 m 0
 400 384.666992188 397 364.668945312 391 344.001953125 c 0
 387 327.334960938 378 314.66796875 364 306.000976562 c 0
 352 298.66796875 340 295.000976562 328 295.000976562 c 2
 325 295.000976562 l 2
 305 296.333984375 289 300.333984375 277 307.000976562 c 0
 260.333007812 317.000976562 251 332.000976562 249 352.000976562 c 1
 247.666992188 364.000976562 247 376.000976562 247 388.000976562 c 0
 247 400.66796875 247.333007812 412.334960938 248 423.001953125 c 0
 248.666992188 433.668945312 252 443.001953125 258 451.001953125 c 0
 264 458.334960938 271.333007812 463.66796875 280 467.000976562 c 0
 288.666992188 470.333984375 296.333984375 472.333984375 303.000976562 473.000976562 c 0
 309.66796875 473.66796875 314.66796875 474.000976562 318.000976562 474.000976562 c 0
 329.333984375 474.000976562 339.000976562 473.333984375 347.000976562 472.000976562 c 0
 354.333984375 470.66796875 361.666992188 468.000976562 369 464.000976562 c 0
 377 460.000976562 384 454.000976562 390 446.000976562 c 0
 395.333007812 438.000976562 398.333007812 428.66796875 399 418.000976562 c 0
 399.666992188 413.333984375 400 408.666992188 400 404 c 0
403 124.001953125 m 0
 403 108.001953125 400.66796875 91.6689453125 396.000976562 75.001953125 c 0
 392.000976562 58.3349609375 381.66796875 46.001953125 365.000976562 38.001953125 c 0
 351.000976562 31.3349609375 337.66796875 27.66796875 325.000976562 27.0009765625 c 0
 308.333984375 27.0009765625 292.000976562 32.0009765625 276.000976562 42.0009765625 c 0
 260.000976562 52.0009765625 251.333984375 66.0009765625 250.000976562 84.0009765625 c 0
 249.333984375 102.66796875 248.666992188 113.334960938 248 116.001953125 c 0
 248 118.668945312 248.333007812 124.668945312 249 134.001953125 c 0
 249.666992188 143.334960938 250.333984375 150.66796875 251.000976562 156.000976562 c 0
 251.000976562 166.66796875 254.000976562 176.000976562 260.000976562 184.000976562 c 0
 266.000976562 192.000976562 274.000976562 197.333984375 284.000976562 200.000976562 c 0
 297.333984375 204.66796875 310.333984375 207.000976562 323.000976562 207.000976562 c 0
 335.000976562 207.000976562 345.66796875 205.66796875 355.000976562 203.000976562 c 0
 364.333984375 200.333984375 373.666992188 194.333984375 383 185.000976562 c 0
 392.333007812 176.333984375 398 165.333984375 400 152.000976562 c 0
 402 142.66796875 403 133.334960938 403 124.001953125 c 0
EndSplineSet
Validated: 524289
EndChar

StartChar: semicolon
Encoding: 59 59 27
Width: 650
GlyphClass: 2
Flags: W
HStem: 253 180.001<298.717 407.135>
VStem: 277.025 153<275.988 416.875>
LayerCount: 2
Fore
SplineSet
430.025390625 363 m 2
 430.025390625 343.666992188 427.024414062 323.333984375 421.024414062 302.000976562 c 0
 417.024414062 285.333984375 408.024414062 272.666992188 394.024414062 264 c 0
 382.024414062 256.666992188 370.024414062 253 358.024414062 253 c 0
 348.69140625 253 338.357421875 255 327.025390625 259 c 0
 315.692382812 263 305.359375 269 296.025390625 277 c 0
 286.025390625 286.333007812 280.359375 297.333007812 279.025390625 310 c 1
 277.693359375 322 277.025390625 334.333007812 277.025390625 347 c 0
 277.025390625 359.666992188 277.359375 371 278.025390625 381 c 0
 278.693359375 391.666992188 282.025390625 401 288.025390625 409 c 0
 294.025390625 417 301.359375 422.333007812 310.025390625 425 c 0
 324.693359375 429.666992188 338.693359375 432.333984375 352.025390625 433.000976562 c 0
 362.025390625 433.000976562 370.359375 432.000976562 377.025390625 430.000976562 c 0
 384.359375 428.66796875 392.025390625 426.000976562 400.025390625 422.000976562 c 0
 408.025390625 418.000976562 414.693359375 412.333984375 420.025390625 405.000976562 c 0
 425.359375 396.333984375 428.692382812 386.666992188 430.025390625 376 c 2
 430.025390625 363 l 2
410.024414062 79 m 2
 410.025390625 73 l 2
 408.025390625 51 386.357421875 -36.6669921875 345.025390625 -190 c 0
 340.357421875 -206.666992188 331.69140625 -219 319.024414062 -227 c 0
 307.69140625 -234.333007812 296.357421875 -238 285.025390625 -238 c 0
 267.692382812 -238 252.025390625 -233 238.025390625 -223 c 0
 225.9921875 -214.133789062 219.974609375 -202.258789062 219.974609375 -187.375976562 c 0
 219.974609375 -168.400390625 230.478515625 -113.73046875 240.025390625 -65.9990234375 c 0
 253.357421875 0.0009765625 264.025390625 49.333984375 272.025390625 82.0009765625 c 0
 274.692382812 93.333984375 278.359375 103.000976562 283.025390625 111.000976562 c 0
 288.359375 119.000976562 294.359375 124.000976562 301.025390625 126.000976562 c 0
 310.359375 129.333984375 319.359375 131.333984375 328.025390625 132.000976562 c 0
 331.359375 132.000976562 334.692382812 131.66796875 338.025390625 131.000976562 c 0
 352.025390625 131.000976562 366.357421875 127.66796875 381.025390625 121.000976562 c 0
 390.357421875 117.000976562 397.69140625 110.66796875 403.024414062 102.000976562 c 0
 407.69140625 95.333984375 410.024414062 87.6669921875 410.024414062 79 c 2
EndSplineSet
Validated: 524289
EndChar

StartChar: less
Encoding: 60 60 28
Width: 650
GlyphClass: 2
Flags: W
HStem: -25 21G<515.667 522.667>
LayerCount: 2
Fore
SplineSet
521 -25 m 0
 510.333007812 -25 498.333007812 -22.662109375 485 -17.9951171875 c 0
 467 -12.662109375 445.333007812 -0.662109375 420 18.0048828125 c 0
 394.666992188 36.671875 367.666992188 58.671875 339 84.0048828125 c 0
 310.333007812 109.337890625 282 135.004882812 254 161.004882812 c 0
 226 187.004882812 196.666992188 213.671875 166 241.004882812 c 0
 135.333007812 268.337890625 109.333007812 290.004882812 88 306.004882812 c 0
 77.3330078125 314.004882812 70 325.004882812 66 339.004882812 c 0
 64.6669921875 345.004882812 64 351.671875 64 359.004882812 c 0
 64 365.671875 65 372.671875 67 380.004882812 c 0
 71 394.004882812 78.3330078125 404.004882812 89 410.004882812 c 0
 126.333007812 438.004882812 170.666015625 473.004882812 221.999023438 515.004882812 c 0
 272.666015625 557.671875 319.333007812 596.004882812 362 630.004882812 c 0
 404.666992188 664.671875 443 692.004882812 477 712.004882812 c 0
 490.333007812 720.671875 503.666015625 725.004882812 516.999023438 725.004882812 c 0
 526.999023438 725.004882812 535.666015625 722.671875 542.999023438 718.004882812 c 0
 557.666015625 709.337890625 568.333007812 697.670898438 575 683.00390625 c 0
 578.333007812 676.336914062 580 669.00390625 580 661.00390625 c 0
 580 653.00390625 577.666992188 644.670898438 573 636.00390625 c 0
 565 622.670898438 548.666992188 607.670898438 524 591.00390625 c 0
 487.333007812 565.00390625 434 524.670898438 364 470.00390625 c 0
 294 415.336914062 246.666992188 378.669921875 222 360.002929688 c 1
 244.666992188 342.002929688 270.666992188 319.669921875 300 293.002929688 c 0
 330 266.3359375 357 241.668945312 381 219.001953125 c 0
 405 196.334960938 431 173.001953125 459 149.001953125 c 0
 487 125.001953125 511.666992188 106.334960938 533 93.001953125 c 0
 555 79.001953125 570 65.6689453125 578 53.001953125 c 0
 583.333007812 45.001953125 586 36.6689453125 586 28.001953125 c 0
 586 21.3349609375 584.666992188 14.66796875 582 8.0009765625 c 0
 573.333007812 -10.666015625 556 -21.3330078125 530 -24 c 0
 527.333007812 -24.6669921875 524.333007812 -25 521 -25 c 0
EndSplineSet
Validated: 524289
EndChar

StartChar: equal
Encoding: 61 61 29
Width: 650
GlyphClass: 2
Flags: W
HStem: 235 107<137.504 514.621> 435 106<139.565 514.621>
LayerCount: 2
Fore
SplineSet
474 541 m 0
 493.333007812 541 507 536.333007812 515 527 c 0
 523 517.666992188 527.66796875 506 529 492 c 2
 529 491 l 2
 529 483.666992188 528.333007812 477 527 471 c 0
 525.66796875 465 523 459 519 453 c 0
 515 447 508.66796875 442 500 438 c 0
 494 435.333007812 487.66796875 434.333007812 481 435 c 2
 473 435 l 2
 449 435.666992188 424.333007812 436 399 436 c 2
 289 433 l 2
 242.333007812 431.666992188 208 431 186 431 c 0
 166.66796875 431 151 436 139 446 c 0
 127 456 121 468.666992188 121 484 c 2
 121 487 l 2
 121 501 125.66796875 513.666992188 135 525 c 0
 145 535.666992188 159.333007812 541 178 541 c 2
 182 541 l 2
 221.599609375 539.799804688 264.91796875 539.200195312 311.95703125 539.200195312 c 0
 343.318359375 539.200195312 376.33203125 539.466796875 411 540 c 0
 445.66796875 540.666992188 466.66796875 541 474 541 c 0
481 239 m 2
 473 239 l 2
 457.66796875 239.666992188 443.66796875 240 431 240 c 0
 403 240 360 239.333007812 302 238 c 0
 244 236 204.66796875 235 184 235 c 0
 163.333007812 235 147.666015625 240.333007812 137 251 c 0
 126.33203125 261.666992188 121 274.666992188 121 290 c 2
 121 292 l 2
 121 306 126.33203125 318 137 328 c 0
 147.666015625 337.333007812 162.666015625 342 182 342 c 2
 200 342 l 2
 214.228515625 341.77734375 229.94140625 341.666015625 247.13671875 341.666015625 c 0
 281.5 341.666015625 321.7890625 342.110351562 368 342.999023438 c 2
 474 344.999023438 l 2
 493.33203125 344.999023438 507 340.33203125 515 330.999023438 c 0
 523 321.666015625 527.666015625 309.999023438 529 295.999023438 c 2
 529 294.999023438 l 2
 529 287.666015625 528.33203125 281.333007812 527 276 c 0
 525.666015625 270 523 264 519 258 c 0
 515 251.333007812 508.666015625 246 500 242 c 0
 494.666015625 240 488.333007812 239 481 239 c 2
EndSplineSet
Validated: 524289
EndChar

StartChar: greater
Encoding: 62 62 30
Width: 650
GlyphClass: 2
Flags: W
HStem: -18 21G<128.334 139.667>
LayerCount: 2
Fore
SplineSet
133.000976562 -18 m 0
 123.66796875 -18 114.999023438 -15.6708984375 106.999023438 -11.00390625 c 0
 99.666015625 -6.3369140625 92.9990234375 -1.00390625 86.9990234375 4.99609375 c 0
 81.666015625 10.99609375 77.666015625 17.6630859375 74.9990234375 24.99609375 c 0
 71.666015625 31.6630859375 69.666015625 38.6630859375 68.9990234375 45.99609375 c 0
 68.9990234375 53.99609375 71.666015625 62.3291015625 76.9990234375 70.99609375 c 0
 84.9990234375 84.3291015625 100.999023438 99.3291015625 124.999023438 115.99609375 c 0
 161.666015625 141.99609375 215.333007812 182.329101562 286 236.99609375 c 0
 356 291.663085938 403.333007812 328.330078125 428 346.997070312 c 1
 405.333007812 364.997070312 379 387.330078125 349 413.997070312 c 0
 319 440.6640625 292.333007812 465.331054688 269 487.998046875 c 0
 245 510.665039062 219 533.998046875 191 557.998046875 c 0
 163 581.998046875 138.333007812 600.665039062 117 613.998046875 c 0
 95 627.998046875 80 641.331054688 72 653.998046875 c 0
 66.6669921875 661.998046875 64 670.665039062 64 679.998046875 c 0
 64 686.665039062 65.3330078125 692.998046875 68 698.998046875 c 0
 76.6669921875 717.665039062 94 728.33203125 120 730.999023438 c 0
 123.333007812 731.666015625 126.333007812 731.999023438 129 731.999023438 c 0
 139.666992188 731.999023438 151.666992188 729.666015625 165 724.999023438 c 0
 183 719.666015625 204.666992188 707.666015625 230 688.999023438 c 0
 255.333007812 670.33203125 282.333007812 648.33203125 311 622.999023438 c 0
 339.666992188 597.666015625 368 571.999023438 396 545.999023438 c 0
 424 519.999023438 453.333007812 493.33203125 484 465.999023438 c 0
 514.666992188 438.666015625 540.666992188 417.333007812 562 402 c 0
 572.666992188 394 580 382.666992188 584 368 c 0
 585.333007812 362 586 355.333007812 586 348 c 0
 586 341.333007812 585 334.333007812 583 327 c 0
 579 313 571.666992188 303 561 297 c 0
 523.666992188 269.666992188 479.333984375 234.666992188 428.000976562 192 c 0
 377.333984375 149.333007812 330.666992188 111 288 77 c 0
 245.333007812 43 207 15.6669921875 173 -5 c 0
 159.666992188 -13.6669921875 146.333984375 -18 133.000976562 -18 c 0
EndSplineSet
Validated: 524289
EndChar

StartChar: question
Encoding: 63 63 31
Width: 650
GlyphClass: 2
Flags: W
HStem: -26.002 178.001<244.893 361.37> 508.999 21G<165.334 180.001> 625 109.069<266.464 395.065>
VStem: 209.004 187<7.88811 117.73> 242.004 125.996<216.992 316.186> 420.039 124.961<484.855 602.144>
LayerCount: 2
Fore
SplineSet
312 201 m 0xec
 306 201 299.669921875 201.665039062 293.00390625 202.998046875 c 0
 259.669921875 211.665039062 242.669921875 232.33203125 242.00390625 264.999023438 c 0
 242.00390625 274.33203125 243.669921875 284.33203125 247.00390625 294.999023438 c 0
 251.669921875 314.33203125 258.669921875 332.33203125 268.00390625 348.999023438 c 0
 277.3359375 365.666015625 287.668945312 379.999023438 299.001953125 391.999023438 c 0
 309.668945312 403.999023438 321.001953125 414.999023438 333.001953125 424.999023438 c 0
 345.001953125 435.666015625 356.3359375 445.333007812 367.001953125 454 c 0
 377.668945312 462.666992188 387.001953125 471.666992188 395.001953125 481 c 0
 411.692382812 498.975585938 420.0390625 517.568359375 420.0390625 536.779296875 c 0
 420.0390625 554.662109375 418.403320312 586.278320312 395.000976562 605 c 0
 377.8203125 618.36328125 353.046875 625.045898438 320.6796875 625.045898438 c 0
 319.13671875 625.045898438 317.578125 625.030273438 316.000976562 625 c 0
 308.000976562 625 300.333984375 623.333007812 293.000976562 620 c 0
 285.000976562 616 277.66796875 611.666992188 271.000976562 607 c 0
 265.000976562 602.333007812 258.333984375 595.666015625 251.000976562 586.999023438 c 0
 243.66796875 578.33203125 238.000976562 570.999023438 234.000976562 564.999023438 c 0
 230.000976562 558.999023438 224.66796875 551.666015625 218.000976562 542.999023438 c 0
 212.000976562 533.666015625 205.333984375 525.999023438 198.000976562 519.999023438 c 0
 191.333984375 513.999023438 184.000976562 510.33203125 176.000976562 508.999023438 c 2
 167.000976562 508.999023438 l 2
 163.66796875 508.999023438 159.66796875 509.666015625 155.000976562 510.999023438 c 0
 150.333984375 512.33203125 143.66796875 514.665039062 135 517.998046875 c 0
 120.333007812 525.998046875 111 537.331054688 107 551.998046875 c 2
 105 563.998046875 l 2
 105 575.331054688 108.666992188 588.998046875 116 604.998046875 c 0
 123.333007812 619.665039062 132.666015625 633.665039062 144 646.998046875 c 0
 155.33203125 660.998046875 169 674.665039062 185 687.998046875 c 0
 201 701.998046875 220 713.331054688 242 721.998046875 c 0
 262.426757812 730.045898438 284.00390625 734.069335938 306.731445312 734.069335938 c 0
 308.48046875 734.069335938 310.236328125 734.045898438 312 733.998046875 c 0
 387.33203125 733.998046875 445 716.331054688 485 680.998046875 c 0
 525 645.665039062 545 592.665039062 545 521.998046875 c 0
 545 502.665039062 541.666015625 484.998046875 535 468.998046875 c 0
 529 452.998046875 521 438.998046875 511 426.998046875 c 0
 501 415.665039062 490 405.33203125 478 395.999023438 c 2
 442 367.999023438 l 2
 430 358.666015625 419 349.333007812 409 340 c 0
 399 330.666992188 390.33203125 319 383 305 c 0
 375.666015625 291.666992188 370.666015625 276.666992188 368 260 c 0
 364.666015625 240 357.333007812 224.666992188 346 214 c 0
 337.333007812 205.333007812 326 201 312 201 c 0xec
295.00390625 -26.001953125 m 2
 271.669921875 -26.001953125 252.00390625 -18.0029296875 236.00390625 -2.0029296875 c 0
 218.00390625 16.6640625 209.00390625 38.3310546875 209.00390625 62.998046875 c 0
 209.00390625 87.6650390625 218.669921875 108.33203125 238.00390625 124.999023438 c 0
 258.669921875 142.999023438 282.336914062 151.999023438 309.00390625 151.999023438 c 0
 333.671875 151.999023438 354.00390625 143.999023438 370.00390625 127.999023438 c 0
 387.336914062 110.666015625 396.00390625 89.9990234375 396.00390625 65.9990234375 c 0xf4
 396.00390625 41.33203125 387.671875 20.6650390625 371.00390625 3.998046875 c 0
 354.336914062 -12.6689453125 332.669921875 -22.6689453125 306.00390625 -26.001953125 c 2
 295.00390625 -26.001953125 l 2
EndSplineSet
Validated: 524289
EndChar

StartChar: at
Encoding: 64 64 32
Width: 650
GlyphClass: 2
Flags: W
HStem: -141.995 110<258.143 411.131> 105.006 104.999<287.361 347.78> 369.005 101.001<299.14 399.622> 601.005 113.998<280.093 418.154>
VStem: 55 110.996<95.6791 430.758> 178 100.998<212.861 350.422> 360 104.799<217.922 335.271> 497.997 97.0029<192.56 481.464>
LayerCount: 2
Fore
SplineSet
398 148 m 1
 378.66796875 119.333007812 351 105.005859375 315 105.005859375 c 0
 271.66796875 105.005859375 238 118.672851562 214 146.005859375 c 0
 190 173.338867188 178 214.005859375 178 268.005859375 c 0
 178 294.672851562 181 319.005859375 187 341.005859375 c 0
 193 363.672851562 201 383.005859375 211 399.005859375 c 0
 221.66796875 415.005859375 234 428.672851562 248 440.005859375 c 0
 273.333007812 460.005859375 303 470.005859375 337 470.005859375 c 0
 357.66796875 470.005859375 378 466.338867188 398 459.005859375 c 0
 415.333007812 452.338867188 429 443.005859375 439 431.005859375 c 0
 447 421.672851562 451 412.672851562 451 404.005859375 c 0
 451 399.338867188 449.66796875 394.338867188 447 389.005859375 c 0
 444.333007812 383.672851562 440.666015625 378.672851562 436 374.005859375 c 0
 431.33203125 369.338867188 426 366.005859375 420 364.005859375 c 0
 411.33203125 361.338867188 404.665039062 360.005859375 399.998046875 360.005859375 c 0
 391.998046875 360.005859375 382.33203125 361.338867188 370.998046875 364.005859375 c 0
 367.665039062 364.672851562 362.665039062 366.005859375 355.998046875 368.005859375 c 0
 348.665039062 369.338867188 341.665039062 369.671875 334.998046875 369.004882812 c 0
 328.33203125 368.337890625 321.6640625 366.004882812 314.997070312 362.004882812 c 0
 308.330078125 358.004882812 302.330078125 352.671875 296.997070312 346.004882812 c 0
 291.6640625 339.337890625 287.33203125 330.337890625 283.998046875 319.004882812 c 0
 280.665039062 307.671875 278.998046875 294.671875 278.998046875 280.004882812 c 0
 278.998046875 272.004882812 279.665039062 264.337890625 280.998046875 257.004882812 c 0
 281.665039062 249.671875 283.33203125 242.004882812 286 234.004882812 c 0
 291.33203125 218.004882812 300 210.004882812 312 210.004882812 c 0
 319.33203125 210.004882812 326 211.337890625 332 214.004882812 c 0
 338 216.671875 342.666015625 221.338867188 346 228.005859375 c 0
 354 242.672851562 358.666015625 268.005859375 360 304.005859375 c 0
 360.666015625 320.005859375 371.666015625 332.338867188 393 341.005859375 c 0
 404.2578125 345.74609375 414.462890625 348.116210938 423.614257812 348.116210938 c 0
 424.758789062 348.116210938 425.887695312 348.079101562 427 348.004882812 c 0
 435 348.004882812 442 347.004882812 448 345.004882812 c 0
 461.33203125 339.671875 468.33203125 330.004882812 469 316.004882812 c 0
 469 314.671875 468.666015625 313.338867188 468 312.005859375 c 0
 465.865234375 293.340820312 464.798828125 277.021484375 464.798828125 263.048828125 c 0
 464.798828125 259.5546875 464.865234375 256.20703125 465 253.005859375 c 0
 465 234.338867188 466.666015625 219.005859375 470 207.005859375 c 0
 471.33203125 202.338867188 472.665039062 199.005859375 473.998046875 197.005859375 c 0
 475.998046875 193.672851562 478.665039062 192.005859375 481.998046875 192.005859375 c 0
 483.33203125 193.338867188 484.6640625 195.338867188 485.997070312 198.005859375 c 0
 489.330078125 206.005859375 491.997070312 216.338867188 493.997070312 229.005859375 c 0
 496.6640625 253.005859375 497.997070312 275.005859375 497.997070312 295.005859375 c 0
 497.997070312 328.338867188 496.330078125 359.338867188 492.997070312 388.005859375 c 0
 490.330078125 416.005859375 486.6640625 440.005859375 481.99609375 460.005859375 c 0
 477.329101562 480.005859375 471.662109375 497.672851562 464.99609375 513.005859375 c 0
 457.662109375 529.005859375 451.329101562 541.672851562 445.99609375 551.005859375 c 0
 439.99609375 560.338867188 432.6640625 568.338867188 423.99609375 575.005859375 c 0
 415.329101562 581.672851562 407.99609375 586.672851562 401.99609375 590.005859375 c 0
 395.99609375 593.338867188 388.99609375 595.671875 380.99609375 597.004882812 c 0
 372.99609375 599.004882812 366.6640625 600.004882812 361.99609375 600.004882812 c 0
 357.99609375 600.004882812 352.6640625 600.337890625 345.99609375 601.004882812 c 0
 321.99609375 601.004882812 299.329101562 593.337890625 277.99609375 578.004882812 c 0
 256.6640625 562.671875 237.6640625 540.671875 220.99609375 512.004882812 c 0
 204.329101562 483.337890625 190.99609375 447.670898438 180.99609375 405.00390625 c 0
 170.99609375 362.336914062 165.99609375 315.336914062 165.99609375 264.00390625 c 0
 165.99609375 219.336914062 169.329101562 179.336914062 175.99609375 144.00390625 c 0
 182.6640625 108.670898438 191.330078125 80.337890625 201.997070312 59.0048828125 c 0
 212.6640625 37.671875 224.997070312 20.0048828125 238.997070312 6.0048828125 c 0
 252.997070312 -7.9951171875 266.6640625 -17.9951171875 279.997070312 -23.9951171875 c 0
 293.330078125 -29.328125 307.997070312 -31.9951171875 323.997070312 -31.9951171875 c 0
 339.997070312 -31.9951171875 354.6640625 -30.328125 367.997070312 -26.9951171875 c 0
 381.330078125 -23.662109375 392.330078125 -19.9951171875 400.997070312 -15.9951171875 c 0
 409.6640625 -11.9951171875 417.6640625 -6.328125 424.997070312 1.0048828125 c 0
 432.997070312 8.337890625 439.330078125 15.337890625 443.997070312 22.0048828125 c 0
 448.6640625 28.671875 453.997070312 36.671875 459.997070312 46.0048828125 c 0
 462.6640625 51.337890625 464.997070312 55.337890625 466.997070312 58.0048828125 c 0
 468.997070312 60.671875 471.6640625 64.0048828125 474.997070312 68.0048828125 c 0
 477.6640625 72.0048828125 480.33203125 75.337890625 482.998046875 78.0048828125 c 0
 485.665039062 80.0048828125 488.998046875 82.0048828125 492.998046875 84.0048828125 c 0
 496.998046875 86.0048828125 501.665039062 87.0048828125 506.998046875 87.0048828125 c 0
 511.665039062 87.0048828125 516.665039062 86.0048828125 521.998046875 84.0048828125 c 0
 528.665039062 81.337890625 534.33203125 78.0048828125 539 74.0048828125 c 0
 543.666015625 70.0048828125 547.333007812 65.0048828125 550 59.0048828125 c 0
 552.66796875 53.671875 553.66796875 48.0048828125 553 42.0048828125 c 0
 553 30.671875 550 17.0048828125 544 1.0048828125 c 0
 540 -8.9951171875 536.333007812 -17.662109375 533 -24.9951171875 c 0
 529 -32.328125 523.66796875 -41.328125 517 -51.9951171875 c 0
 510.333007812 -62.662109375 503 -71.9951171875 495 -79.9951171875 c 0
 487 -87.9951171875 477.333007812 -95.9951171875 466 -103.995117188 c 0
 454 -111.995117188 441 -118.995117188 427 -124.995117188 c 0
 413 -130.328125 397 -134.328125 379 -136.995117188 c 0
 361 -140.328125 342.333007812 -141.995117188 323 -141.995117188 c 2
 317 -141.995117188 l 2
 279.66796875 -141.995117188 245 -132.662109375 213 -113.995117188 c 0
 180.333007812 -95.328125 152.333007812 -69.9951171875 129 -37.9951171875 c 0
 105.666992188 -5.9951171875 87.6669921875 33.0048828125 75 79.0048828125 c 0
 61.6669921875 125.004882812 55 174.671875 55 228.004882812 c 0
 55 287.337890625 59.6669921875 342.670898438 69 394.00390625 c 0
 78.3330078125 445.336914062 91.3330078125 490.669921875 108 530.002929688 c 0
 125.333007812 568.669921875 145.666015625 602.002929688 169 630.002929688 c 0
 192.33203125 658.002929688 218.33203125 679.002929688 247 693.002929688 c 0
 275.666015625 707.002929688 306.333007812 714.3359375 339 715.002929688 c 0
 362.333007812 715.002929688 383.333007812 713.002929688 402 709.002929688 c 0
 421.333007812 705.669921875 440 699.669921875 458 691.002929688 c 0
 476 681.669921875 492 669.669921875 506 655.002929688 c 0
 520 640.3359375 532.66796875 622.002929688 544 600.002929688 c 0
 555.333007812 578.002929688 564.666015625 552.3359375 572 523.002929688 c 0
 587.33203125 461.669921875 595 385.002929688 595 293.002929688 c 0
 595 242.3359375 587.666015625 197.668945312 573 159.001953125 c 0
 565 138.334960938 553.33203125 121.66796875 538 109.000976562 c 0
 522.666015625 96.333984375 504.333007812 89.6669921875 483 89 c 0
 452.333007812 89 429 99.3330078125 413 120 c 0
 407 128 402 137.333007812 398 148 c 1
EndSplineSet
Validated: 524289
EndChar

StartChar: A
Encoding: 65 65 33
Width: 650
GlyphClass: 2
Flags: W
HStem: -5.99902 21G<84.999 92.999 552.668 558.668> 251.001 91.998<262.713 418.998>
LayerCount: 2
Fore
SplineSet
259.998046875 331.999023438 m 1
 317.998046875 337.999023438 370.998046875 341.666015625 418.998046875 342.999023438 c 1
 368.998046875 568.999023438 l 1
 340.331054688 520.33203125 303.998046875 441.33203125 259.998046875 331.999023438 c 1
148.002929688 49 m 0
 140.669921875 25 129.33203125 8.9990234375 113.999023438 0.9990234375 c 0
 105.33203125 -3.66796875 96.9990234375 -5.9990234375 88.9990234375 -5.9990234375 c 0
 80.9990234375 -5.9990234375 73.33203125 -4.333984375 65.9990234375 -1.0009765625 c 0
 53.9990234375 4.33203125 45.33203125 12.6650390625 39.9990234375 23.998046875 c 0
 35.9990234375 32.6650390625 33.9990234375 42.1650390625 33.9990234375 52.498046875 c 0
 33.9990234375 62.8310546875 35.33203125 73.998046875 37.9990234375 85.998046875 c 0
 41.9990234375 106.665039062 60.33203125 154.665039062 92.9990234375 229.998046875 c 1
 83.666015625 238.665039062 78.3330078125 249.33203125 77 261.999023438 c 2
 77 263.999023438 l 2
 77 275.33203125 82.6669921875 285.999023438 94 295.999023438 c 0
 103.333007812 304.666015625 115 311.333007812 129 316 c 1
 215 498.666992188 281.666992188 621 329 683 c 0
 340.333007812 697 351 707.333007812 361 714 c 0
 371 721.333007812 382.333007812 725 395 725 c 2
 403 725 l 2
 416.333007812 725 428.333007812 722 439 716 c 0
 453.666992188 708 462.666992188 695.333007812 466 678 c 0
 480.666992188 598 504.666992188 485 538 339 c 0
 556.666992188 257.666992188 571.333984375 197.833984375 582.000976562 159.500976562 c 0
 592.66796875 121.16796875 600.66796875 97.66796875 606.000976562 89.0009765625 c 0
 612.66796875 77.0009765625 616.000976562 65.66796875 616.000976562 55.0009765625 c 2
 616.000976562 49 l 2
 614.66796875 37 610.500976562 26.66796875 603.500976562 18.0009765625 c 0
 596.500976562 9.333984375 588.333984375 2.9990234375 579.000976562 -1.0009765625 c 0
 567.66796875 -4.333984375 560.334960938 -5.9990234375 557.001953125 -5.9990234375 c 0
 548.334960938 -5.9990234375 539.66796875 -3.66796875 531.000976562 0.9990234375 c 0
 515.66796875 8.9990234375 503.334960938 24.66796875 494.001953125 48.0009765625 c 0
 484.668945312 69.333984375 467.001953125 137.000976562 441.001953125 251.000976562 c 1
 357.668945312 247.66796875 282.3359375 241.000976562 215.002929688 231.000976562 c 1
 192.3359375 178.333984375 170.002929688 117.666992188 148.002929688 49 c 0
EndSplineSet
Validated: 524289
EndChar

StartChar: B
Encoding: 66 66 34
Width: 650
GlyphClass: 2
Flags: W
HStem: -23 21G<138.333 145.666> -9.65137 90.1543<230.37 270.727> 285.003 96.4492<182 373.74> 605.004 103.999<186.532 378>
VStem: 58 121<82.114 137.826 144.104 285.003 383.002 598.597> 433 119<431.807 557.715> 470 124<157.259 228.28>
LayerCount: 2
Fore
SplineSet
61 41 m 2xba
 62.3330078125 60.3330078125 63.3330078125 93.3369140625 64 140.00390625 c 0
 64 227.336914062 62 324.00390625 58 430.00390625 c 1
 56.6669921875 473.336914062 56 502.50390625 56 517.50390625 c 0
 56 532.50390625 56.5 552.50390625 57.5 577.50390625 c 0
 58.5 602.50390625 59 620.00390625 59 630.00390625 c 0
 59.6669921875 650.670898438 65.833984375 666.50390625 77.5009765625 677.50390625 c 0
 89.16796875 688.50390625 103.66796875 694.00390625 121.000976562 694.00390625 c 2
 124.000976562 694.00390625 l 1
 142 699.336914062 164.333984375 703.336914062 191 706.00390625 c 0
 201.66796875 707.336914062 213.16796875 708.169921875 225.5 708.502929688 c 0
 237.833984375 708.8359375 247.333984375 709.002929688 254 709.002929688 c 2
 276 709.002929688 l 1
 288 709.002929688 l 2
 339.333984375 709.002929688 385.333984375 700.669921875 426 684.002929688 c 0
 466 666.669921875 496.66796875 642.002929688 518 610.002929688 c 0
 540.66796875 576.669921875 552 537.669921875 552 493.002929688 c 0xbc
 552 455.002929688 542.66796875 422.002929688 524 394.002929688 c 0
 509.333984375 372.669921875 491 355.669921875 469 343.002929688 c 1
 483.66796875 336.3359375 498 328.668945312 512 320.001953125 c 0
 534.66796875 305.334960938 554 288.66796875 570 270.000976562 c 0
 586 251.333984375 594 233.000976562 594 215.000976562 c 2
 594 214.000976562 l 2
 594 188.000976562 587.16796875 162.333984375 573.5 137.000976562 c 0
 559.833984375 111.66796875 540.166992188 88.5009765625 514.5 67.5009765625 c 0
 488.83203125 46.5009765625 454.666015625 28.66796875 411.999023438 14.0009765625 c 0
 369.33203125 -0.666015625 322.33203125 -9.9990234375 270.999023438 -13.9990234375 c 1
 265.202148438 -11.1005859375 259.341796875 -9.6513671875 253.41796875 -9.6513671875 c 0x7a
 245.71875 -9.6513671875 237.912109375 -12.1005859375 229.999023438 -16.9990234375 c 1
 195.33203125 -19.666015625 173.999023438 -21.3330078125 165.999023438 -22 c 0
 157.33203125 -22.6669921875 149.33203125 -23 141.999023438 -23 c 0
 134.666015625 -23 127.333007812 -22.3330078125 120 -21 c 2
 118 -21 l 2
 101.333007812 -21 87.3330078125 -15.3330078125 76 -4 c 0
 66 6 61 19 61 35 c 2
 61 41 l 2xba
179 403.00390625 m 2
 179 383.001953125 l 1
 208.33203125 382.334960938 235 381.834960938 259 381.501953125 c 0
 261.3984375 381.46875 263.76171875 381.452148438 266.08984375 381.452148438 c 0
 287.0625 381.452148438 305.19921875 382.801757812 320.5 385.501953125 c 0
 337.5 388.501953125 351.666992188 392.334960938 363 397.001953125 c 0
 374.33203125 401.668945312 384.33203125 407.3359375 393 414.002929688 c 0
 401.666992188 420.669921875 408.333984375 427.336914062 413 434.00390625 c 0
 417.66796875 440.670898438 421.5 448.170898438 424.5 456.50390625 c 0
 427.5 464.836914062 429.66796875 472.336914062 431 479.00390625 c 0
 432.333984375 485.670898438 433 492.670898438 433 500.00390625 c 0
 433 514.670898438 429.66796875 528.170898438 423 540.50390625 c 0
 416.333984375 552.836914062 407.833984375 563.00390625 397.5 571.00390625 c 0
 387.16796875 579.00390625 375.334960938 585.670898438 362.001953125 591.00390625 c 0
 339.502929688 600.37890625 315.831054688 605.06640625 290.98828125 605.06640625 c 0
 289.331054688 605.06640625 287.66796875 605.045898438 286.001953125 605.00390625 c 0
 251.334960938 605.00390625 217.66796875 602.00390625 185 596.00390625 c 1
 184.333984375 584.00390625 183.666992188 566.00390625 183 542.00390625 c 0
 180.33203125 493.336914062 179 447.00390625 179 403.00390625 c 2
455.5 165.501953125 m 0
 465.166992188 177.834960938 470 189.004882812 470 199.004882812 c 0
 470 204.337890625 466.666992188 210.670898438 460 218.00390625 c 0
 453.33203125 225.336914062 442.666015625 233.169921875 427.999023438 241.502929688 c 0
 413.33203125 249.8359375 392.33203125 258.002929688 364.999023438 266.002929688 c 0
 337.666015625 274.002929688 306.33203125 280.3359375 271 285.002929688 c 1
 182 285.002929688 l 1
 184.666992188 193.002929688 187 124.669921875 189 80.0029296875 c 1
 196.33203125 80.0029296875 207 80.169921875 221 80.5029296875 c 0x7a
 235 80.8359375 247 81.3359375 257 82.0029296875 c 0
 289 83.3359375 319 88.3359375 347 97.0029296875 c 0
 375 105.669921875 397.666992188 116.169921875 415 128.502929688 c 0
 432.33203125 140.8359375 445.83203125 153.168945312 455.5 165.501953125 c 0
EndSplineSet
Validated: 524289
EndChar

StartChar: C
Encoding: 67 67 35
Width: 650
GlyphClass: 2
Flags: W
HStem: -30.998 114.001<237.458 417.021> 494.006 246.994<491.917 582.658> 608.006 104.995<353.245 479.259>
VStem: 43 123.999<159.984 372.712> 479 127<517.69 584.105>
LayerCount: 2
Fore
SplineSet
597.998046875 692 m 0xd8
 603.998046875 666 607 638.338867188 607 609.005859375 c 0
 607 589.005859375 606.666992188 577.005859375 606 573.005859375 c 0
 606 556.338867188 600 539.505859375 588 522.505859375 c 0
 576 505.505859375 563 496.338867188 549 495.005859375 c 0
 546.333984375 494.338867188 543.333984375 494.005859375 540 494.005859375 c 0xd8
 528 494.005859375 516 498.005859375 504 506.005859375 c 0
 487.333984375 516.672851562 479 531.005859375 479 549.005859375 c 0
 479 553.672851562 479.666992188 565.672851562 481 585.005859375 c 1
 471.666992188 591.005859375 465.666992188 594.672851562 463 596.005859375 c 0
 460.333984375 597.338867188 456.666015625 599.338867188 451.999023438 602.005859375 c 0
 443.33203125 606.005859375 434.666015625 608.005859375 425.998046875 608.005859375 c 0
 405.998046875 608.005859375 383.998046875 602.005859375 359.998046875 590.005859375 c 0
 335.998046875 578.005859375 312.666015625 560.505859375 289.998046875 537.505859375 c 0
 267.331054688 514.505859375 246.831054688 488.172851562 228.498046875 458.505859375 c 0
 210.166015625 428.838867188 195.33203125 395.171875 183.999023438 357.504882812 c 0
 172.666015625 319.837890625 166.999023438 282.004882812 166.999023438 244.004882812 c 0
 166.999023438 217.337890625 172.999023438 191.670898438 184.999023438 167.00390625 c 0
 196.999023438 142.336914062 213.499023438 122.169921875 234.499023438 106.502929688 c 0
 255.499023438 90.8359375 277.33203125 83.0029296875 299.999023438 83.0029296875 c 0
 322.666015625 83.0029296875 344.666015625 85.169921875 365.999023438 89.5029296875 c 0
 387.33203125 93.8359375 406.499023438 99.3359375 423.499023438 106.002929688 c 0
 440.499023438 112.669921875 455.166015625 119.502929688 467.499023438 126.502929688 c 0
 479.83203125 133.502929688 490.666015625 140.669921875 499.998046875 148.002929688 c 0
 509.331054688 154.669921875 517.6640625 159.669921875 524.998046875 163.002929688 c 0
 532.998046875 167.002929688 541.830078125 169.002929688 551.498046875 169.002929688 c 0
 561.1640625 169.002929688 570.331054688 166.002929688 578.998046875 160.002929688 c 0
 593.666015625 148.669921875 600.998046875 135.169921875 600.998046875 119.502929688 c 0
 600.998046875 103.8359375 592.666015625 86.6689453125 575.998046875 68.001953125 c 0
 517.998046875 2.001953125 425.331054688 -30.998046875 297.998046875 -30.998046875 c 2
 287.998046875 -30.998046875 l 2
 256.666015625 -30.998046875 227.33203125 -26.3310546875 199.999023438 -16.998046875 c 0
 172.666015625 -7.6650390625 149.666015625 5.16796875 130.999023438 21.5009765625 c 0
 112.33203125 37.833984375 96.33203125 56.333984375 83 77.0009765625 c 0
 69.666015625 97.66796875 59.666015625 119.500976562 53 142.500976562 c 0
 46.33203125 165.500976562 43 188.66796875 43 212.000976562 c 0
 43 260.000976562 48.166015625 306.500976562 58.5 351.500976562 c 0
 68.83203125 396.500976562 82.666015625 437.000976562 99.998046875 473.000976562 c 0
 117.33203125 509.000976562 137.6640625 542.333984375 160.998046875 573.000976562 c 0
 186.330078125 603.66796875 212.998046875 629.000976562 240.998046875 649.000976562 c 0
 268.998046875 669.000976562 298.330078125 684.66796875 328.998046875 696.000976562 c 0
 359.6640625 707.333984375 389.331054688 713.000976562 417.998046875 713.000976562 c 0xb8
 441.331054688 713.000976562 462.998046875 711.000976562 482.998046875 707.000976562 c 1
 486.998046875 714.333984375 491.998046875 720.666992188 497.998046875 726 c 0
 507.331054688 734 517.6640625 738.666992188 528.998046875 740 c 0
 533.6640625 740.666992188 536.331054688 741 536.998046875 741 c 2
 537.998046875 741 l 2
 548.666015625 741 559.666015625 737.666992188 570.998046875 731 c 0
 584.998046875 721.666992188 593.998046875 708.666992188 597.998046875 692 c 0xd8
EndSplineSet
Validated: 524289
EndChar

StartChar: D
Encoding: 68 68 36
Width: 650
GlyphClass: 2
Flags: W
HStem: -31 109.998<193.756 418.349> 694 20G<96.6353 116.635>
VStem: 40.7031 121.477<109.381 166.726 194.179 614.997> 48.3027 125<100.593 519.491> 489.305 119.992<169.195 388.265>
LayerCount: 2
Fore
SplineSet
46.298828125 62 m 2xe8
 47.6318359375 84.6669921875 48.302734375 120.331054688 48.302734375 168.998046875 c 0xd8
 48.302734375 256.998046875 46.302734375 361.331054688 42.302734375 481.998046875 c 1
 41.6357421875 517.998046875 41.1357421875 541.831054688 40.802734375 553.498046875 c 0
 40.736328125 555.830078125 40.703125 558.401367188 40.703125 561.212890625 c 0
 40.703125 572.467773438 41.236328125 587.5625 42.302734375 606.499023438 c 0
 43.6357421875 630.166015625 44.302734375 644.666015625 44.302734375 649.999023438 c 1
 44.9697265625 670.666015625 50.9697265625 686.333007812 62.302734375 697 c 0
 73.6357421875 708.333007812 87.96875 714 105.301757812 714 c 0
 127.96875 714 157.96875 710.666992188 195.301757812 704 c 0
 218.634765625 700 242.467773438 694.5 266.80078125 687.5 c 0
 291.133789062 680.5 317.466796875 670.666992188 345.799804688 658 c 0
 374.1328125 645.333007812 400.965820312 630.833007812 426.298828125 614.5 c 0
 451.631835938 598.166992188 475.96484375 577.333984375 499.297851562 552.000976562 c 0
 521.297851562 527.333984375 540.46484375 500.166992188 556.797851562 470.5 c 0
 573.130859375 440.833007812 585.963867188 405.833007812 595.296875 365.5 c 0
 604.629882812 325.166992188 609.296875 281.666992188 609.296875 235 c 0
 609.296875 211.666992188 605.963867188 187.666992188 599.296875 163 c 0
 592.629882812 138.333007812 582.629882812 114.666015625 569.296875 91.9990234375 c 0
 555.963867188 69.33203125 540.130859375 48.83203125 521.797851562 30.4990234375 c 0
 503.46484375 12.166015625 480.631835938 -2.6669921875 453.298828125 -14 c 0
 425.298828125 -25.3330078125 395.631835938 -31 364.298828125 -31 c 2
 354.298828125 -31 l 2
 321.631835938 -31 288.631835938 -29.5 255.298828125 -26.5 c 0
 221.965820312 -23.5 195.298828125 -20 175.298828125 -16 c 0
 155.298828125 -12 138.798828125 -8.3330078125 125.798828125 -5 c 0
 112.798828125 -1.6669921875 104.965820312 0 102.298828125 0 c 0
 85.6318359375 0 71.6318359375 5.6669921875 60.298828125 17 c 0
 50.923828125 26.375 46.236328125 38.09375 46.236328125 52.1552734375 c 0
 46.236328125 53.0927734375 46.2568359375 54.041015625 46.298828125 55 c 2
 46.298828125 62 l 2xe8
257.802734375 85.9970703125 m 0
 288.135742188 81.330078125 323.3046875 78.998046875 363.3046875 78.998046875 c 0
 380.637695312 78.998046875 397.137695312 84.6650390625 412.8046875 95.998046875 c 0
 428.471679688 107.331054688 441.8046875 122.1640625 452.8046875 140.497070312 c 0
 463.8046875 158.830078125 472.637695312 179.330078125 479.3046875 201.997070312 c 0
 485.971679688 224.6640625 489.3046875 246.6640625 489.3046875 267.997070312 c 0
 489.3046875 388.6640625 435.971679688 480.997070312 329.3046875 544.997070312 c 0
 291.3046875 567.6640625 235.971679688 590.997070312 163.3046875 614.997070312 c 1
 162.5546875 584.499023438 162.1796875 553.485351562 162.1796875 521.955078125 c 0xe8
 162.1796875 469.401367188 163.221679688 415.416015625 165.3046875 359.997070312 c 0
 166.637695312 331.330078125 167.970703125 289.497070312 169.303710938 234.497070312 c 0
 170.63671875 179.497070312 171.969726562 137.330078125 173.302734375 107.997070312 c 1
 199.302734375 97.9970703125 227.469726562 90.6640625 257.802734375 85.9970703125 c 0
EndSplineSet
Validated: 524289
EndChar

StartChar: E
Encoding: 69 69 37
Width: 650
GlyphClass: 2
Flags: W
HStem: -20 112.001<180.549 524.752> -6 115<264.729 582.326> 301.002 108.999<175.799 449.434> 319.002 106<256.647 568.904> 590 107.999<180.994 584.505>
VStem: 52.7979 124.001<95.1892 301.002 410.001 581.907>
LayerCount: 2
Fore
SplineSet
119.796875 704 m 2x8c
 136.463867188 704 150.469726562 698.666015625 161.802734375 687.999023438 c 1
 219.135742188 694.666015625 292.799804688 697.999023438 382.799804688 697.999023438 c 0
 406.1328125 697.999023438 427.802734375 697.666015625 447.802734375 696.999023438 c 0
 489.135742188 695.666015625 521.46875 693.666015625 544.801757812 690.999023438 c 0
 563.46875 688.999023438 576.96875 683.83203125 585.301757812 675.499023438 c 0
 593.634765625 667.166015625 598.134765625 655.999023438 598.801757812 641.999023438 c 0
 598.801757812 634.666015625 597.96875 627.833007812 596.301757812 621.5 c 0
 594.634765625 615.166992188 592.134765625 609.333984375 588.801757812 604.000976562 c 0
 584.801757812 597.333984375 578.46875 592.333984375 569.801757812 589.000976562 c 0
 563.801757812 586.333984375 557.46875 585.000976562 550.801757812 585.000976562 c 0
 548.134765625 585.000976562 545.467773438 585.333984375 542.80078125 586.000976562 c 0
 504.470703125 588.778320312 464.521484375 590.166992188 422.952148438 590.166992188 c 0
 414.6328125 590.166992188 406.249023438 590.111328125 397.80078125 590 c 2
 343.80078125 590 l 2
 280.467773438 588.666992188 225.467773438 585.333984375 178.80078125 580.000976562 c 1
 176.133789062 522.000976562 174.80078125 465.333984375 174.80078125 410.000976562 c 1xac
 226.133789062 410.66796875 295.466796875 413.334960938 382.799804688 418.001953125 c 0
 468.799804688 422.668945312 517.131835938 425.001953125 527.798828125 425.001953125 c 0
 547.131835938 425.001953125 560.965820312 420.334960938 569.298828125 411.001953125 c 0
 577.631835938 401.668945312 581.798828125 390.001953125 581.798828125 376.001953125 c 0
 581.798828125 360.001953125 578.465820312 347.334960938 571.798828125 338.001953125 c 0
 562.465820312 326.001953125 547.798828125 319.668945312 527.798828125 319.001953125 c 0x1c
 515.798828125 319.001953125 464.131835938 316.334960938 372.798828125 311.001953125 c 0
 279.465820312 305.001953125 213.798828125 301.668945312 175.798828125 301.001953125 c 1
 176.465820312 284.334960938 176.798828125 268.16796875 176.798828125 252.500976562 c 2
 176.798828125 203.000976562 l 2
 177.465820312 158.333984375 178.798828125 127.333984375 180.798828125 110.000976562 c 0
 181.465820312 104.000976562 182.1328125 99.0009765625 182.799804688 95.0009765625 c 0
 196.1328125 93.0009765625 215.965820312 92.0009765625 242.298828125 92.0009765625 c 0xac
 268.631835938 92.0009765625 301.798828125 92.66796875 341.798828125 94.0009765625 c 0
 435.131835938 97.333984375 493.798828125 101.666992188 517.798828125 107 c 0
 527.798828125 108.333007812 536.965820312 109 545.298828125 109 c 0
 553.631835938 109 560.96484375 107.333007812 567.297851562 104 c 0
 573.630859375 100.666992188 578.797851562 97.1669921875 582.797851562 93.5 c 0
 586.797851562 89.8330078125 589.96484375 85.3330078125 592.297851562 80 c 0
 594.630859375 74.6669921875 596.297851562 70 597.297851562 66 c 0
 598.297851562 62 598.801757812 57.6669921875 598.801757812 53 c 0
 598.801757812 37 593.46484375 23 582.797851562 11 c 0
 572.797851562 -0.3330078125 558.797851562 -6.3330078125 540.797851562 -7 c 1
 535.46484375 1.6669921875 530.131835938 2 524.798828125 -6 c 1
 521.798828125 -6 l 2x4c
 506.465820312 -6 477.465820312 -7.3330078125 434.798828125 -10 c 0
 390.798828125 -12.6669921875 345.965820312 -15 300.298828125 -17 c 0
 254.631835938 -19 220.131835938 -20 196.798828125 -20 c 0
 174.131835938 -20 155.46484375 -19.3330078125 140.797851562 -18 c 0
 122.130859375 -16.6669921875 104.130859375 -8 86.7978515625 8 c 0
 69.46484375 24 59.46484375 43 56.7978515625 65 c 0
 54.7978515625 81 53.46484375 109 52.7978515625 149 c 0
 52.7978515625 185.666992188 53.130859375 222.5 53.7978515625 259.5 c 0
 54.46484375 296.5 54.7978515625 327.833007812 54.7978515625 353.5 c 0
 54.7978515625 379.166992188 54.130859375 415 52.7978515625 461 c 0
 52.130859375 499.666992188 51.630859375 525.5 51.2978515625 538.5 c 0
 51.2314453125 541.098632812 51.1982421875 543.916992188 51.1982421875 546.955078125 c 0
 51.1982421875 559.115234375 51.7314453125 574.796875 52.7978515625 594 c 0
 54.130859375 618 54.7978515625 633 54.7978515625 639 c 2
 54.7978515625 640 l 2
 55.46484375 660.666992188 61.46484375 676.5 72.7978515625 687.5 c 0
 84.130859375 698.5 98.4638671875 704 115.796875 704 c 2
 119.796875 704 l 2x8c
EndSplineSet
Validated: 524289
EndChar

StartChar: F
Encoding: 70 70 38
Width: 650
GlyphClass: 2
Flags: W
HStem: -22.002 21G<115.333 123.666> 313.498 106.502<175.999 532.152> 597 109.099<182.966 584.043> 695 20G<120.667 129.667>
VStem: 53 121.749<39.4946 142.728 166.745 310.581 416 589> 57 127.999<-3.56057 304.932>
LayerCount: 2
Fore
SplineSet
121 715 m 0xd8
 138.333007812 715 152.333007812 709.33203125 163 697.999023438 c 1
 240.397460938 703.3984375 315.905273438 706.098632812 389.522460938 706.098632812 c 0
 397.705078125 706.098632812 405.864257812 706.065429688 414 705.999023438 c 0
 467.333007812 705.999023438 511 704.666015625 545 701.999023438 c 0
 563.666992188 700.666015625 577.166992188 695.666015625 585.5 686.999023438 c 0
 593.833007812 678.33203125 598.333007812 666.999023438 599 652.999023438 c 2
 599 651.999023438 l 2
 599 636.666015625 594.166992188 623.333007812 584.5 612 c 0
 574.833007812 600.666992188 560.333007812 595 541 595 c 2
 539 595 l 2
 511.500976562 596.5 482.688476562 597.25 452.565429688 597.25 c 0
 442.522460938 597.25 432.333984375 597.166992188 422 597 c 0
 344.666992188 597 263.666992188 594.333007812 179 589 c 1
 178.333007812 579 177.666015625 563.666992188 176.999023438 543 c 0
 175.499023438 513.500976562 174.749023438 485.501953125 174.749023438 459.002929688 c 0xe8
 174.749023438 450.16796875 174.83203125 441.500976562 174.999023438 433 c 2
 174.999023438 416 l 1
 202.33203125 418.666992188 231.999023438 420 263.999023438 420 c 0
 272.666015625 420 281.333007812 419.666992188 290 419 c 0
 338 418.333007812 381.333007812 416.666015625 420 413.999023438 c 0
 459.333007812 411.33203125 488.833007812 408.165039062 508.5 404.498046875 c 0
 528.166992188 400.831054688 541.833984375 395.1640625 549.500976562 387.497070312 c 0
 557.16796875 379.830078125 561.66796875 369.330078125 563.000976562 355.997070312 c 0
 563.000976562 341.997070312 559.66796875 329.6640625 553.000976562 318.997070312 c 0
 548.333984375 312.330078125 541.666992188 307.330078125 533 303.997070312 c 0
 527 301.997070312 520.333007812 300.997070312 513 300.997070312 c 2
 506 300.997070312 l 2
 485.333007812 304.330078125 455.333007812 307.330078125 416 309.997070312 c 0
 378.662109375 312.368164062 340.270507812 313.553710938 300.825195312 313.553710938 c 0
 295.899414062 313.553710938 290.958007812 313.53515625 286 313.498046875 c 0
 241.333007812 313.165039062 204.666015625 311.665039062 175.999023438 308.998046875 c 1
 179.33203125 222.331054688 182.33203125 130.998046875 184.999023438 34.998046875 c 0
 182.999023438 16.998046875 174.33203125 2.998046875 158.999023438 -7.001953125 c 0
 145.666015625 -16.3349609375 131.33203125 -21.3349609375 115.999023438 -22.001953125 c 0
 114.666015625 -22.001953125 113.666992188 -21.6689453125 113 -21.001953125 c 0
 96.3330078125 -21.001953125 82.3330078125 -15.3349609375 71 -4.001953125 c 0
 61.625 5.373046875 56.9375 17.3837890625 56.9375 32.0322265625 c 0
 56.9375 33.0087890625 56.9580078125 33.998046875 57 34.998046875 c 2
 57 40.998046875 l 2xe4
 58.3330078125 61.6650390625 59 96.33203125 59 144.999023438 c 0
 59 236.999023438 57 338.999023438 53 450.999023438 c 0
 51.6669921875 494.33203125 51 523.499023438 51 538.499023438 c 0
 51 553.499023438 51.5 573.499023438 52.5 598.499023438 c 0
 53.5 623.499023438 54.3330078125 640.666015625 55 649.999023438 c 0
 55.6669921875 670.666015625 61.6669921875 686.333007812 73 697 c 0
 84.3330078125 708.333007812 98.666015625 714 115.999023438 714 c 0
 118.666015625 714.666992188 120.333007812 715 121 715 c 0xd8
EndSplineSet
Validated: 524289
EndChar

StartChar: G
Encoding: 71 71 39
Width: 650
GlyphClass: 2
Flags: W
HStem: -30.9951 113.997<235.073 359.129> 619.005 104.999<352.592 490.141>
VStem: 41.002 123.998<160.189 376.151>
LayerCount: 2
Fore
SplineSet
368.99609375 -16 m 0
 342.329101562 -26 315.66796875 -30.9951171875 289.000976562 -30.9951171875 c 0
 256.333984375 -30.9951171875 226.000976562 -26.328125 198.000976562 -16.9951171875 c 0
 170.66796875 -7.662109375 147.8359375 5.1708984375 129.501953125 21.50390625 c 0
 111.169921875 37.8369140625 95.169921875 56.3369140625 81.501953125 77.00390625 c 0
 67.8359375 97.6708984375 57.66796875 119.50390625 51.001953125 142.50390625 c 0
 44.333984375 165.50390625 41.001953125 188.670898438 41.001953125 212.00390625 c 0
 41.001953125 260.670898438 46.16796875 308.00390625 56.501953125 354.00390625 c 0
 66.833984375 400.00390625 80.66796875 441.336914062 98 478.00390625 c 0
 115.333984375 514.670898438 135.666015625 548.670898438 159 580.00390625 c 0
 184.33203125 610.670898438 211.165039062 636.50390625 239.498046875 657.50390625 c 0
 267.83203125 678.50390625 296.998046875 694.670898438 326.998046875 706.00390625 c 0
 357.665039062 718.00390625 387.998046875 724.00390625 417.998046875 724.00390625 c 0
 447.998046875 724.00390625 481.665039062 717.336914062 518.998046875 704.00390625 c 0
 554.998046875 690.670898438 578.665039062 678.337890625 589.998046875 667.004882812 c 0
 601.998046875 655.004882812 608.33203125 640.671875 608.998046875 624.004882812 c 0
 608.998046875 616.004882812 607.33203125 607.337890625 603.998046875 598.004882812 c 0
 599.998046875 586.004882812 591.33203125 577.337890625 577.998046875 572.004882812 c 0
 571.33203125 569.337890625 564.6640625 568.004882812 557.997070312 568.004882812 c 0
 550.6640625 568.004882812 544.33203125 569.004882812 538.998046875 571.004882812 c 0
 533.665039062 573.004882812 523.665039062 578.337890625 508.998046875 587.004882812 c 0
 494.33203125 595.671875 479.33203125 603.171875 463.998046875 609.504882812 c 0
 448.665039062 615.837890625 435.33203125 619.004882812 424 619.004882812 c 0
 404 619.004882812 382 612.837890625 358 600.504882812 c 0
 334 588.171875 310.83203125 570.171875 288.5 546.504882812 c 0
 266.166015625 522.837890625 245.666015625 495.670898438 227 465.00390625 c 0
 208.33203125 434.336914062 193.33203125 399.669921875 182 361.002929688 c 0
 170.666015625 322.3359375 165 283.668945312 165 245.001953125 c 0
 165 218.334960938 171 192.501953125 183 167.501953125 c 0
 195 142.501953125 211.5 122.168945312 232.5 106.501953125 c 0
 253.5 90.8349609375 275.666015625 83.001953125 299 83.001953125 c 0
 314.33203125 83.001953125 330 87.501953125 346 96.501953125 c 0
 362 105.501953125 377 117.334960938 391 132.001953125 c 0
 405 146.668945312 418.33203125 163.3359375 431 182.002929688 c 0
 450.33203125 210.669921875 465.665039062 240.002929688 476.998046875 270.002929688 c 1
 438.33203125 268.002929688 399.33203125 264.502929688 359.998046875 259.502929688 c 0
 320.665039062 254.502929688 293.33203125 248.3359375 278 241.002929688 c 0
 270 237.002929688 262 235.002929688 254 235.002929688 c 0
 246 235.002929688 238 237.3359375 230 242.002929688 c 0
 215.33203125 250.002929688 206.665039062 261.3359375 203.998046875 276.002929688 c 0
 203.33203125 279.3359375 202.998046875 282.668945312 202.998046875 286.001953125 c 0
 202.998046875 300.001953125 208.665039062 312.668945312 219.998046875 324.001953125 c 0
 227.998046875 332.001953125 238.998046875 339.001953125 252.998046875 345.001953125 c 0
 274.998046875 355.001953125 320.33203125 362.334960938 388.998046875 367.001953125 c 0
 438.33203125 370.334960938 479.6640625 372.001953125 512.997070312 372.001953125 c 2
 545.997070312 372.001953125 l 2
 565.330078125 370.668945312 579.330078125 366.668945312 587.997070312 360.001953125 c 0
 599.330078125 351.334960938 604.997070312 337.66796875 604.997070312 319.000976562 c 0
 604.997070312 299.000976562 597.6640625 284.66796875 582.997070312 276.000976562 c 0
 582.997070312 274.000976562 582.330078125 270.000976562 580.997070312 264.000976562 c 0
 580.330078125 260.66796875 579.6640625 255.000976562 578.99609375 247.000976562 c 0
 575.6640625 218.333984375 562.330078125 181.666992188 538.997070312 137 c 0
 527.6640625 116.333007812 513.6640625 96 496.997070312 76 c 0
 479.6640625 56 460.6640625 38.1669921875 439.997070312 22.5 c 0
 419.330078125 6.8330078125 395.6640625 -6 368.99609375 -16 c 0
EndSplineSet
Validated: 524289
EndChar

StartChar: H
Encoding: 72 72 40
Width: 650
GlyphClass: 2
Flags: W
HStem: -21.999 21G<120.334 128.667 512.335 521.001> 312.001 86.0049<192.998 399.945> 694.003 20G<123.332 142.998 515.667 535.334>
VStem: 68.499 122.499<-3.04591 184.934 189.06 312.001 398.006 696.499> 453.001 128<-5.04489 337.626> 460.999 124.335<44.0761 341.001 420.471 696.468>
LayerCount: 2
Fore
SplineSet
61.9990234375 33 m 2xf8
 61.9990234375 41.0048828125 l 2
 63.33203125 59.0048828125 63.9990234375 103.671875 63.9990234375 175.004882812 c 0
 63.9990234375 215.671875 64.83203125 265.171875 66.4990234375 323.504882812 c 0
 68.166015625 381.837890625 68.9990234375 416.837890625 68.9990234375 428.504882812 c 2
 68.9990234375 463.504882812 l 2
 68.9990234375 475.171875 68.83203125 494.671875 68.4990234375 522.004882812 c 0
 68.166015625 549.337890625 67.9990234375 567.504882812 67.9990234375 576.504882812 c 0
 67.9990234375 585.504882812 68.166015625 594.671875 68.4990234375 604.004882812 c 0
 68.83203125 613.337890625 68.9990234375 619.004882812 68.9990234375 621.004882812 c 0
 68.9990234375 623.004882812 69.166015625 625.671875 69.4990234375 629.004882812 c 0
 69.83203125 632.337890625 69.9990234375 635.504882812 69.9990234375 638.504882812 c 2
 69.9990234375 646.504882812 l 1
 69.9990234375 650.004882812 l 2
 70.666015625 670.671875 76.9990234375 686.3359375 88.9990234375 697.002929688 c 0
 100.33203125 708.3359375 114.665039062 714.002929688 131.998046875 714.002929688 c 2
 134.998046875 714.002929688 l 2
 150.998046875 714.002929688 164.665039062 709.3359375 175.998046875 700.002929688 c 0
 189.331054688 689.3359375 196.331054688 673.005859375 196.998046875 651.005859375 c 0
 196.998046875 643.672851562 195.998046875 629.005859375 193.998046875 607.005859375 c 0
 191.998046875 585.005859375 190.998046875 565.172851562 190.998046875 547.505859375 c 0
 190.998046875 529.838867188 191.331054688 505.005859375 191.998046875 473.005859375 c 0
 192.665039062 441.005859375 192.998046875 416.005859375 192.998046875 398.005859375 c 1
 250.998046875 399.338867188 321.665039062 405.338867188 404.998046875 416.005859375 c 0
 429.665039062 419.338867188 448.333007812 421.671875 460.999023438 423.004882812 c 0
 460.999023438 425.671875 460.833007812 430.171875 460.499023438 436.504882812 c 0
 460.166015625 442.837890625 459.833007812 457.670898438 459.500976562 481.00390625 c 0
 459.166992188 504.336914062 459.000976562 522.50390625 459.000976562 535.50390625 c 0
 459.000976562 548.50390625 459.499023438 569.00390625 460.499023438 597.00390625 c 0
 461.499023438 625.00390625 462.333007812 642.00390625 463.000976562 648.00390625 c 0
 463.666992188 669.336914062 469.666992188 685.669921875 481.000976562 697.002929688 c 0
 493.000976562 708.3359375 507.333007812 714.002929688 524.000976562 714.002929688 c 2
 527.000976562 714.002929688 l 2
 543.666992188 714.002929688 557.666992188 709.3359375 569.000976562 700.002929688 c 0
 581.666992188 689.3359375 588.000976562 673.668945312 588.000976562 653.001953125 c 0
 588.000976562 640.334960938 587.666992188 615.001953125 587.000976562 577.001953125 c 0
 586.333007812 530.334960938 585.833007812 488.501953125 585.500976562 451.501953125 c 0
 585.388671875 439.180664062 585.333984375 427.709960938 585.333984375 417.088867188 c 0xf4
 585.333984375 395.815429688 585.555664062 377.954101562 586.000976562 363.501953125 c 0
 586.668945312 341.834960938 587.000976562 321.66796875 587.000976562 303.000976562 c 0
 587.000976562 266.333984375 586.000976562 219.500976562 584.000976562 162.500976562 c 0
 582.000976562 105.500976562 581.000976562 65.66796875 581.000976562 43.0009765625 c 2
 581.000976562 35.0009765625 l 2
 579.000976562 17.0009765625 571.000976562 3.0009765625 557.000976562 -6.9990234375 c 0
 543.668945312 -16.33203125 529.000976562 -21.33203125 513.000976562 -21.9990234375 c 0
 511.668945312 -21.9990234375 510.668945312 -21.666015625 510.000976562 -20.9990234375 c 0
 493.333984375 -20.9990234375 479.666992188 -15.33203125 469.000976562 -3.9990234375 c 0
 458.333007812 6.0009765625 453.000976562 19.333984375 453.000976562 36.0009765625 c 2
 453.000976562 43.0009765625 l 1
 459.666992188 127.000976562 463.000976562 220.333984375 463.000976562 323.000976562 c 2
 463.000976562 341.000976562 l 1
 441.000976562 339.000976562 398.500976562 333.833984375 335.500976562 325.500976562 c 0
 272.500976562 317.16796875 224.000976562 312.66796875 190.000976562 312.000976562 c 1
 190.000976562 303.000976562 l 2
 188.000976562 269.66796875 187.000976562 231.000976562 187.000976562 187.000976562 c 0
 187.000976562 143.000976562 188.000976562 92.66796875 190.000976562 36.0009765625 c 0
 188.000976562 17.333984375 179.333007812 3.0009765625 164.000976562 -6.9990234375 c 0
 150.666992188 -16.33203125 136.333984375 -21.33203125 121.000976562 -21.9990234375 c 0
 119.66796875 -21.9990234375 118.66796875 -21.666015625 118.000976562 -20.9990234375 c 0
 101.333984375 -20.9990234375 87.333984375 -15.33203125 76.0009765625 -3.9990234375 c 0
 66.66796875 5.333984375 61.9990234375 17.6669921875 61.9990234375 33 c 2xf8
EndSplineSet
Validated: 524289
EndChar

StartChar: I
Encoding: 73 73 41
Width: 650
GlyphClass: 2
Flags: W
HStem: -11.001 102.999<67.5044 246.312 390 450.94 454.959 541 544 586.104> -7.00098 98.999<390 541 544 586.104> 599.998 110.001<75.0194 260.002>
VStem: 254.002 135.998<92.998 192.728> 261.002 134.999<94.249 597.999>
LayerCount: 2
Fore
SplineSet
204 -12 m 1x70
 160 -13.3330078125 129.66796875 -14.001953125 113.000976562 -14.001953125 c 0
 93.0009765625 -14.001953125 77.66796875 -9.6689453125 67.0009765625 -1.001953125 c 0
 55.66796875 7.6650390625 50.0009765625 18.998046875 50.0009765625 32.998046875 c 2
 50.0009765625 35.998046875 l 2
 50.0009765625 49.3310546875 54.833984375 60.998046875 64.5009765625 70.998046875 c 0
 74.16796875 80.998046875 89.3349609375 86.3310546875 110.001953125 86.998046875 c 0
 136.668945312 88.3310546875 184.668945312 89.6640625 254.001953125 90.9970703125 c 1x70
 258.668945312 160.330078125 261.001953125 232.330078125 261.001953125 306.997070312 c 0
 261.001953125 346.330078125 260.334960938 386.330078125 259.001953125 426.997070312 c 0
 257.668945312 455.6640625 257.001953125 486.6640625 257.001953125 519.997070312 c 2
 257.001953125 540.997070312 l 2
 257.001953125 547.6640625 257.501953125 557.831054688 258.501953125 571.498046875 c 0
 259.501953125 585.165039062 260.001953125 594.665039062 260.001953125 599.998046875 c 1
 221.334960938 600.665039062 192.66796875 600.998046875 174.000976562 600.998046875 c 0
 156.66796875 600.998046875 139.000976562 600.665039062 121.000976562 599.998046875 c 2
 119.000976562 599.998046875 l 2
 100.333984375 599.998046875 85.5009765625 604.665039062 74.5009765625 613.998046875 c 0
 63.5009765625 623.331054688 57.66796875 635.998046875 57.0009765625 651.998046875 c 2
 57.0009765625 653.998046875 l 2
 57.0009765625 667.998046875 62.16796875 680.331054688 72.5009765625 690.998046875 c 0
 82.833984375 701.665039062 98.333984375 707.33203125 119.000976562 707.999023438 c 0
 176.333984375 709.33203125 231.333984375 709.999023438 284.000976562 709.999023438 c 0
 388.66796875 709.999023438 474.333007812 706.999023438 541 700.999023438 c 0
 556.333007812 699.666015625 568.66796875 695.333007812 578.000976562 688 c 0
 590.66796875 678.666992188 597.334960938 665.666992188 598.001953125 649 c 2
 598.001953125 648 l 2
 598.001953125 633.333007812 593.668945312 619.666015625 585.001953125 606.999023438 c 0
 580.334960938 599.666015625 573.66796875 593.999023438 565.000976562 589.999023438 c 0
 559.66796875 587.33203125 553.66796875 585.999023438 547.000976562 585.999023438 c 0
 543.66796875 585.999023438 539.66796875 586.666015625 535.000976562 587.999023438 c 0
 516.333984375 590.666015625 470.333984375 593.999023438 397.000976562 597.999023438 c 1
 397.000976562 590.666015625 396.333984375 577.333007812 395.000976562 558 c 0
 394.333984375 539.333007812 394.000976562 524.833007812 394.000976562 514.5 c 2
 394.000976562 484 l 2
 394.000976562 444.666992188 394.333984375 412.166992188 395.000976562 386.5 c 0
 395.66796875 360.833007812 396.000976562 334.666015625 396.000976562 307.999023438 c 0x68
 396.000976562 281.33203125 395.16796875 243.665039062 393.500976562 194.998046875 c 0
 391.833984375 146.331054688 390.666992188 112.331054688 390 92.998046875 c 1
 418 92.998046875 441 92.6650390625 459 91.998046875 c 2
 541 91.998046875 l 1xb0
 541 97.3310546875 541.333007812 97.3310546875 542 91.998046875 c 1
 542 97.3310546875 542.33203125 97.3310546875 542.999023438 91.998046875 c 1
 542.999023438 97.3310546875 543.333007812 97.3310546875 544 91.998046875 c 1x70
 544 97.3310546875 544.333007812 97.3310546875 545 91.998046875 c 1
 564.333007812 91.998046875 578.166015625 87.498046875 586.499023438 78.498046875 c 0
 594.83203125 69.498046875 599.33203125 58.3310546875 599.999023438 44.998046875 c 2
 599.999023438 43.9990234375 l 2
 599.999023438 37.33203125 599.334960938 30.9990234375 598.001953125 24.9990234375 c 0
 596.668945312 18.9990234375 594.333007812 12.9990234375 591 6.9990234375 c 0
 586.333007812 -0.333984375 579.666015625 -5.333984375 570.999023438 -8.0009765625 c 0
 565.666015625 -10.0009765625 560.666015625 -11.0009765625 555.999023438 -11.0009765625 c 2
 542.999023438 -11.0009765625 l 2xb0
 524.999023438 -8.333984375 494.999023438 -7.0009765625 452.999023438 -7.0009765625 c 0
 408.999023438 -7.0009765625 369.33203125 -7.333984375 333.999023438 -8.0009765625 c 1
 315.942382812 -5.22265625 297.88671875 -3.833984375 279.830078125 -3.833984375 c 0
 204 -12 l 1x70
EndSplineSet
Validated: 524289
EndChar

StartChar: J
Encoding: 74 74 42
Width: 650
GlyphClass: 2
Flags: W
HStem: -35 125.998<219.068 321.458> 599.998 110.002<79.5029 322 442.998 550.842>
VStem: 47.502 114.498<150.857 256.964> 321.75 121.248<425.658 596.001> 325 125.998<103.937 595.189>
LayerCount: 2
Fore
SplineSet
447.998046875 217 m 0xe8
 436.666015625 101 413.001953125 26.3330078125 377.001953125 -7 c 0
 357.66796875 -25.6669921875 334.66796875 -35 308.001953125 -35 c 0
 281.333984375 -35 255.501953125 -30.6669921875 230.501953125 -22 c 0
 205.501953125 -13.3330078125 184.001953125 -2.3330078125 166.001953125 11 c 0
 148.66796875 25 132.834960938 40.1669921875 118.501953125 56.5 c 0
 104.169921875 72.8330078125 92.169921875 89 82.501953125 105 c 0
 72.8359375 121 65.16796875 135.666992188 59.501953125 149 c 0
 53.833984375 162.333007812 50.333984375 173 49.001953125 181 c 0
 47.001953125 188.333007812 46.501953125 196.5 47.501953125 205.5 c 0
 48.501953125 214.5 50.001953125 223 52.001953125 231 c 0
 54.66796875 240.333007812 60.001953125 248.666015625 68.001953125 255.999023438 c 0
 76.001953125 263.33203125 86.333984375 267.999023438 99.001953125 269.999023438 c 0
 103.001953125 270.666015625 107.001953125 270.999023438 111.001953125 270.999023438 c 0
 124.333984375 270.999023438 135.666992188 266.999023438 145 258.999023438 c 0
 156.333984375 248.33203125 162 234.665039062 162 217.998046875 c 0
 162 201.998046875 167.333984375 182.998046875 178 160.998046875 c 0
 184.666992188 148.331054688 192.666992188 136.998046875 202 126.998046875 c 0
 211.333984375 116.998046875 224 108.498046875 240 101.498046875 c 0
 256 94.498046875 274 90.998046875 294 90.998046875 c 0
 294.666992188 90.998046875 295.333984375 91.3310546875 296.001953125 91.998046875 c 0
 300.66796875 95.3310546875 305.001953125 102.998046875 309.001953125 114.998046875 c 0
 318.333984375 143.665039062 323.666992188 186.998046875 325 244.998046875 c 2
 325 246.998046875 l 1
 325 267.498046875 l 2xe8
 325 279.831054688 324.666992188 312.998046875 324 366.998046875 c 0
 322.5 426.99609375 321.75 485.682617188 321.75 543.055664062 c 0
 321.75 562.182617188 321.833984375 581.163085938 322 599.998046875 c 1
 284.333984375 600.998046875 249.083984375 601.498046875 216.25 601.498046875 c 0
 183.416992188 601.498046875 153 600.998046875 125 599.998046875 c 2
 123 599.998046875 l 2
 104.333984375 599.998046875 89.666015625 604.665039062 79 613.998046875 c 0
 68.33203125 623.331054688 62.666015625 635.998046875 61.998046875 651.998046875 c 0
 61.998046875 652.665039062 61.666015625 653.33203125 60.998046875 653.999023438 c 0
 60.998046875 667.999023438 66.33203125 680.33203125 76.998046875 690.999023438 c 0
 87.666015625 701.666015625 103.33203125 707.333007812 124 708 c 0
 181.999023438 709.333007812 236.999023438 710 288.999023438 710 c 0
 392.999023438 710 478.33203125 707 544.999023438 701 c 0
 560.33203125 699.666992188 572.666015625 695.333984375 581.998046875 688.000976562 c 0
 594.666015625 678.66796875 601.666015625 665.334960938 602.998046875 648.001953125 c 0
 602.998046875 633.334960938 598.666015625 619.66796875 589.998046875 607.000976562 c 0
 585.331054688 599.66796875 578.331054688 594.000976562 568.998046875 590.000976562 c 0
 563.666015625 587.333984375 557.666015625 586.000976562 550.998046875 586.000976562 c 0
 547.666015625 586.000976562 543.998046875 586.66796875 539.998046875 588.000976562 c 0
 519.331054688 591.333984375 486.998046875 594.000976562 442.998046875 596.000976562 c 1xf0
 442.998046875 579.333984375 445.331054688 521.000976562 449.998046875 421.000976562 c 0
 451.064453125 399.131835938 451.59765625 380.036132812 451.59765625 363.713867188 c 0
 451.59765625 359.63671875 451.564453125 355.732421875 451.498046875 352.000976562 c 0
 451.166015625 333.333984375 450.998046875 321.666992188 450.998046875 317 c 0
 450.998046875 275 449.998046875 241.666992188 447.998046875 217 c 0xe8
EndSplineSet
Validated: 524289
EndChar

StartChar: K
Encoding: 75 75 43
Width: 650
GlyphClass: 2
Flags: W
HStem: -22 21G<117.233 125.899 541.054 543.903> 694.065 20G<106.569 115.036 505.566 510.233>
VStem: 60.9004 116.999<107.028 271.001 452.999 540.271 541.723 700.529>
LayerCount: 2
Fore
SplineSet
117.899414062 -22 m 0
 116.56640625 -22 115.234375 -21.666015625 113.901367188 -20.9990234375 c 0
 97.234375 -20.9990234375 83.5673828125 -16.666015625 72.900390625 -7.9990234375 c 0
 62.900390625 0.0009765625 57.900390625 10.66796875 57.900390625 24.0009765625 c 0
 57.900390625 26.66796875 58.2333984375 29.3349609375 58.900390625 32.001953125 c 0
 60.2333984375 53.3349609375 60.900390625 88.66796875 60.900390625 138.000976562 c 0
 60.900390625 233.333984375 58.900390625 338.666992188 54.900390625 454 c 0
 53.5673828125 496.666992188 52.900390625 525.666992188 52.900390625 541 c 0
 52.900390625 556.333007812 53.5673828125 578 54.900390625 606 c 0
 56.2333984375 634.666992188 56.900390625 652.666992188 56.900390625 660 c 1
 57.5673828125 677.333007812 63.5673828125 691 74.900390625 701 c 0
 85.4775390625 709.7109375 98.66796875 714.065429688 114.470703125 714.065429688 c 0
 115.600585938 714.065429688 116.743164062 714.043945312 117.899414062 713.999023438 c 2
 120.899414062 713.999023438 l 2
 136.899414062 713.999023438 150.899414062 710.33203125 162.899414062 702.999023438 c 0
 175.59765625 694.745117188 181.946289062 682.258789062 181.946289062 665.540039062 c 0
 181.946289062 651.19921875 181.309570312 618.120117188 179.8984375 567.999023438 c 0
 178.565429688 521.33203125 177.565429688 482.999023438 176.8984375 452.999023438 c 1
 201.565429688 472.999023438 236.8984375 501.666015625 282.8984375 538.999023438 c 0
 381.565429688 627.666015625 439.8984375 679.333007812 457.8984375 694 c 0
 469.231445312 702.666992188 480.231445312 708.666992188 490.8984375 712 c 0
 497.565429688 714 503.232421875 715 507.899414062 715 c 0
 512.56640625 715 516.899414062 714.666992188 520.899414062 714 c 0
 529.56640625 712 537.233398438 708 543.900390625 702 c 0
 553.233398438 694 557.900390625 685.333007812 557.900390625 676 c 0
 557.900390625 658 550.567382812 638.666992188 535.900390625 618 c 0
 525.900390625 605.333007812 489.900390625 569 427.900390625 509 c 1
 363.900390625 453 307.567382812 404.333007812 258.900390625 363 c 1
 284.233398438 339 324.56640625 303.333007812 379.899414062 256 c 0
 435.232421875 211.333007812 483.232421875 171 523.899414062 135 c 0
 546.56640625 113 563.233398438 95.6669921875 573.900390625 83 c 0
 585.233398438 67.6669921875 591.900390625 57 593.900390625 51 c 0
 596.567382812 42.3330078125 597.567382812 34 596.900390625 26 c 0
 596.900390625 20.6669921875 595.900390625 15.333984375 593.900390625 10.0009765625 c 0
 589.233398438 0.66796875 581.56640625 -6.6650390625 570.899414062 -11.998046875 c 0
 556.354492188 -18.05859375 546.493164062 -21.0888671875 541.313476562 -21.0888671875 c 0
 540.794921875 -21.0888671875 540.32421875 -21.05859375 539.899414062 -20.998046875 c 2
 538.899414062 -20.998046875 l 2
 520.899414062 -20.998046875 503.899414062 -12.6650390625 487.899414062 4.001953125 c 0
 481.232421875 12.001953125 455.899414062 35.001953125 411.899414062 73.001953125 c 0
 367.899414062 110.334960938 319.899414062 151.66796875 267.899414062 197.000976562 c 0
 230.56640625 226.333984375 200.56640625 251.000976562 177.899414062 271.000976562 c 1
 186.899414062 25.0009765625 l 2
 184.899414062 10.333984375 176.232421875 -1.3330078125 160.899414062 -10 c 0
 148.232421875 -18 133.899414062 -22 117.899414062 -22 c 0
EndSplineSet
Validated: 524289
EndChar

StartChar: L
Encoding: 76 76 44
Width: 650
GlyphClass: 2
Flags: W
HStem: -14.999 116.996<181.044 182.029 183.029 465.668>
VStem: 53.0312 127.997<95.9971 265.875> 82.3652 118.668<163.162 688.982>
LayerCount: 2
Fore
SplineSet
188.033203125 209 m 0xa0
 184.033203125 161 181.6953125 123.330078125 181.028320312 95.9970703125 c 1
 181.361328125 99.9970703125 181.6953125 101.997070312 182.029296875 101.997070312 c 0
 183.029296875 95.9970703125 l 1
 240.361328125 95.9970703125 307.361328125 99.330078125 384.029296875 105.997070312 c 0
 459.361328125 112.6640625 509.029296875 119.331054688 533.029296875 125.998046875 c 0
 536.763671875 127.064453125 540.498046875 127.59765625 544.231445312 127.59765625 c 0
 547.029296875 127.498046875 l 0
 551.697265625 127.165039062 556.364257812 125.998046875 561.03125 123.998046875 c 0
 569.697265625 120.665039062 577.03125 115.33203125 583.03125 107.999023438 c 0
 587.697265625 101.33203125 591.03125 94.33203125 593.03125 86.9990234375 c 0
 595.697265625 78.9990234375 597.03125 71.9990234375 597.03125 65.9990234375 c 0
 597.03125 50.666015625 593.03125 38.3330078125 585.03125 29 c 0
 577.03125 19.6669921875 563.364257812 13.333984375 544.03125 10.0009765625 c 0
 498.03125 1.333984375 424.864257812 -4.9990234375 324.53125 -8.9990234375 c 0
 224.197265625 -12.9990234375 152.365234375 -14.9990234375 109.03125 -14.9990234375 c 0
 92.365234375 -14.9990234375 78.365234375 -9.33203125 67.03125 2.0009765625 c 0
 57.65625 11.3759765625 52.96875 23.38671875 52.96875 38.03515625 c 0
 52.96875 39.01171875 52.990234375 40.0009765625 53.03125 41.0009765625 c 2
 53.03125 50.0009765625 l 2xc0
 53.03125 54.0009765625 56.865234375 90.333984375 64.53125 159.000976562 c 0
 72.19921875 227.66796875 77.69921875 293.66796875 81.03125 357.000976562 c 0
 81.919921875 369.88671875 82.365234375 384.697265625 82.365234375 401.432617188 c 0
 82.365234375 409.806640625 82.25390625 418.663085938 82.03125 428.000976562 c 0
 82.03125 452.66796875 81.36328125 523.66796875 80.03125 641.000976562 c 2
 80.03125 642.000976562 l 2
 80.697265625 662.66796875 86.865234375 678.500976562 98.53125 689.500976562 c 0
 110.19921875 700.500976562 124.365234375 706.000976562 141.033203125 706.000976562 c 2
 144.033203125 706.000976562 l 2
 160.033203125 706.000976562 174.365234375 701.333984375 187.033203125 692.000976562 c 0
 200.396484375 681.819335938 207.079101562 667.081054688 207.079101562 647.788085938 c 0
 207.079101562 647 207.068359375 618.723632812 206.033203125 569 c 0
 204.700195312 525.666992188 203.033203125 485 201.033203125 447 c 0
 199.033203125 405 197.365234375 363 196.033203125 321 c 0
 194.700195312 294.333007812 192.033203125 257 188.033203125 209 c 0xa0
EndSplineSet
Validated: 524289
EndChar

StartChar: M
Encoding: 77 77 45
Width: 650
GlyphClass: 2
Flags: W
HStem: -10.001 21G<79.3315 92.3315 308.002 339.002>
VStem: 34.998 108<16.5645 315.532>
LayerCount: 2
Fore
SplineSet
142.998046875 63.9990234375 m 2
 142.998046875 52.9990234375 l 2
 142.998046875 34.9990234375 137.666015625 19.9990234375 126.998046875 7.9990234375 c 0
 114.998046875 -4.0009765625 100.665039062 -10.0009765625 83.998046875 -10.0009765625 c 2
 82.998046875 -10.0009765625 l 2
 75.6650390625 -10.0009765625 68.998046875 -8.66796875 62.998046875 -6.0009765625 c 0
 54.3310546875 -2.0009765625 47.3310546875 5.33203125 41.998046875 15.9990234375 c 0
 37.3310546875 27.9990234375 34.998046875 43.9990234375 34.998046875 63.9990234375 c 0
 34.998046875 72.666015625 35.998046875 86.9990234375 37.998046875 106.999023438 c 0
 39.998046875 126.33203125 42.3310546875 151.999023438 44.998046875 183.999023438 c 0
 48.3310546875 217.999023438 51.998046875 258.33203125 55.998046875 304.999023438 c 0
 59.998046875 352.33203125 62.998046875 389.665039062 64.998046875 416.998046875 c 0
 73.6650390625 512.998046875 81.33203125 579.331054688 87.9990234375 615.998046875 c 0
 92.666015625 639.331054688 97.666015625 655.6640625 102.999023438 664.997070312 c 0
 110.999023438 678.997070312 123.33203125 689.330078125 139.999023438 695.997070312 c 0
 153.999023438 701.330078125 167.999023438 703.998046875 181.999023438 703.998046875 c 2
 187.999023438 703.998046875 l 2
 204.666015625 703.998046875 218.333984375 701.6640625 229 696.997070312 c 0
 243.666992188 690.997070312 253.666992188 680.997070312 259 666.997070312 c 0
 267.666992188 637.6640625 277 589.331054688 287 521.998046875 c 0
 297 454.665039062 307.666992188 377.665039062 319 290.998046875 c 0
 321.666992188 271.665039062 323.666992188 254.33203125 325 238.999023438 c 1
 329.666992188 286.999023438 334.333984375 331.666015625 339.001953125 372.999023438 c 0
 345.66796875 428.33203125 354.66796875 483.665039062 366.001953125 538.998046875 c 0
 377.333984375 594.331054688 387.001953125 636.997070312 395.001953125 666.997070312 c 0
 398.333984375 676.997070312 406.001953125 685.331054688 418.001953125 691.998046875 c 0
 428.66796875 697.998046875 440.001953125 701.665039062 452.001953125 702.998046875 c 0
 459.333984375 704.331054688 465.501953125 704.831054688 470.501953125 704.498046875 c 0
 475.501953125 704.165039062 479.66796875 703.998046875 483.001953125 703.998046875 c 2
 486.001953125 703.998046875 l 1
 501.501953125 703.998046875 l 2
 505.833984375 703.998046875 511.666992188 702.998046875 519 700.998046875 c 0
 526.333984375 699.665039062 532.5 697.665039062 537.5 694.998046875 c 0
 542.5 692.331054688 547.333984375 688.331054688 552 682.998046875 c 0
 556.666992188 676.998046875 559.666992188 669.998046875 561 661.998046875 c 0
 563.666992188 641.998046875 571.333984375 544.998046875 584.001953125 370.998046875 c 0
 596.66796875 197.665039062 605.66796875 99.6650390625 611.001953125 76.998046875 c 0
 613.66796875 63.6650390625 615.001953125 51.33203125 615.001953125 39.9990234375 c 0
 615.001953125 30.666015625 613.001953125 22.666015625 609.001953125 15.9990234375 c 0
 603.66796875 6.666015625 594.66796875 -0.0009765625 582.001953125 -4.0009765625 c 0
 574.66796875 -6.0009765625 567.001953125 -7.16796875 559.001953125 -7.5009765625 c 0
 551.001953125 -7.833984375 542.66796875 -6.0009765625 534.001953125 -2.0009765625 c 0
 518.66796875 4.666015625 507.334960938 18.3330078125 500.001953125 39 c 0
 486.669921875 79 474.669921875 234 464.001953125 504 c 1
 455.334960938 452.666992188 449.334960938 404 446.001953125 358 c 0
 439.334960938 282 430.334960938 210 419.001953125 142 c 0
 407.669921875 74 398.669921875 32.3330078125 392.001953125 17 c 0
 382.001953125 1 358.001953125 -7 320.001953125 -7 c 2
 315.001953125 -7 l 2
 301.001953125 -7 288.669921875 -5 278.001953125 -1 c 0
 265.334960938 3.6669921875 257.334960938 10.333984375 254.001953125 19.0009765625 c 0
 245.334960938 51.0009765625 231.001953125 124.000976562 211.001953125 238.000976562 c 0
 197.669921875 316.000976562 185.001953125 391.66796875 173.001953125 465.000976562 c 1
 171.669921875 451.66796875 170.001953125 427.66796875 168.001953125 393.000976562 c 2
 164.001953125 340.000976562 l 1
 158.001953125 253.000976562 l 2
 156.001953125 225.66796875 153.669921875 197.000976562 151.001953125 167.000976562 c 0
 149.001953125 144.333984375 146.669921875 120.666992188 144.001953125 96 c 0
 143.334960938 82 142.998046875 71.33203125 142.998046875 63.9990234375 c 2
EndSplineSet
Validated: 524289
EndChar

StartChar: N
Encoding: 78 78 46
Width: 650
GlyphClass: 2
Flags: W
HStem: -11.998 21G<95.1675 113.501 499.167 527.167>
VStem: 54.501 108<6.53685 180.455> 62.501 107<79.7041 486> 488.834 106.665<187.325 656.813>
LayerCount: 2
Fore
SplineSet
167.500976562 486 m 1xb0
 168.833984375 456 169.500976562 431.002929688 169.500976562 411.002929688 c 0xb0
 169.500976562 389.669921875 169.16796875 359.669921875 168.500976562 321.002929688 c 0
 167.833984375 283.669921875 166.833984375 237.669921875 165.500976562 183.002929688 c 0
 163.500976562 128.3359375 162.500976562 93.6689453125 162.500976562 79.001953125 c 2
 162.500976562 52.001953125 l 1
 162.500976562 44.001953125 l 2
 162.500976562 26.001953125 157.16796875 12.001953125 146.500976562 2.001953125 c 0
 135.16796875 -7.3310546875 121.500976562 -11.998046875 105.500976562 -11.998046875 c 0
 84.833984375 -11.998046875 70.833984375 -5.998046875 63.5009765625 6.001953125 c 0
 57.5009765625 17.3349609375 54.5009765625 33.66796875 54.5009765625 55.0009765625 c 0xd0
 54.5009765625 68.333984375 55.5009765625 120.000976562 57.5009765625 210.000976562 c 0
 60.833984375 348.66796875 62.5009765625 444.000976562 62.5009765625 496.000976562 c 0
 62.5009765625 547.333984375 61.833984375 594.666992188 60.5009765625 638 c 2
 60.5009765625 647 l 2
 60.5009765625 657 62.16796875 666 65.5009765625 674 c 0
 70.833984375 683.333007812 78.1669921875 690 87.5 694 c 0
 100.833007812 701.333007812 115.833007812 705 132.5 705 c 0
 135.833007812 705 139.5 704.666992188 143.5 704 c 0
 158.166992188 704 170.833984375 701.666992188 181.500976562 697 c 0
 196.16796875 691 206.500976562 681 212.500976562 667 c 0
 227.833984375 624.333007812 269.500976562 545.333007812 337.500976562 430 c 0
 395.500976562 332.666992188 445.500976562 251.333984375 487.500976562 186.000976562 c 1
 488.389648438 224.213867188 488.833984375 270.274414062 488.833984375 324.18359375 c 0
 488.833984375 351.158203125 488.72265625 380.096679688 488.5 411.000976562 c 0
 487.166992188 529.000976562 484.166992188 607.000976562 479.5 645.000976562 c 0
 478.833007812 649.000976562 478.5 653.000976562 478.5 657.000976562 c 0
 478.5 669.000976562 482.833007812 679.66796875 491.5 689.000976562 c 0
 502.166992188 699.66796875 516.166992188 705.000976562 533.5 705.000976562 c 0
 549.5 705.000976562 562.5 702.333984375 572.5 697.000976562 c 0
 577.833007812 694.333984375 581.5 690.333984375 583.5 685.000976562 c 0
 585.5 679.66796875 587.166992188 675.000976562 588.5 671.000976562 c 0
 589.833007812 666.333984375 591.166015625 659.333984375 592.499023438 650.000976562 c 0
 594.499023438 638.66796875 595.499023438 585.334960938 595.499023438 490.001953125 c 2
 595.499023438 448.001953125 l 2
 595.499023438 364.668945312 594.499023438 278.668945312 592.499023438 190.001953125 c 0
 591.166015625 132.668945312 588.833007812 90.001953125 585.5 62.001953125 c 0
 582.833007812 35.3349609375 579.833007812 18.3349609375 576.5 11.001953125 c 0
 567.166992188 -4.998046875 544.833984375 -13.3310546875 509.500976562 -13.998046875 c 2
 505.500976562 -13.998046875 l 2
 492.833984375 -13.998046875 481.500976562 -11.6650390625 471.500976562 -6.998046875 c 0
 459.500976562 -1.6650390625 451.500976562 5.001953125 447.500976562 13.001953125 c 0
 440.833984375 26.3349609375 423.500976562 55.66796875 395.500976562 101.000976562 c 0
 366.16796875 148.333984375 337.16796875 193.666992188 308.500976562 237 c 0
 278.500976562 286.333007812 246.833984375 341.333007812 213.500976562 402 c 0
 195.500976562 432 180.16796875 460 167.500976562 486 c 1xb0
EndSplineSet
Validated: 524289
EndChar

StartChar: O
Encoding: 79 79 47
Width: 650
GlyphClass: 2
Flags: W
HStem: -23.9951 108<230.601 383.091> 612.006 105.995<265.497 407.922>
VStem: 55.9688 121<154.456 486.5> 473.969 120.062<178.33 537.54>
LayerCount: 2
Fore
SplineSet
246.96875 94.005859375 m 0
 258.96875 87.3388671875 272.635742188 84.0048828125 287.96875 84.0048828125 c 0
 325.96875 84.0048828125 359.635742188 92.337890625 388.96875 109.004882812 c 0
 404.30078125 117.004882812 417.96875 128.171875 429.96875 142.504882812 c 0
 441.96875 156.837890625 451.30078125 173.337890625 457.96875 192.004882812 c 0
 460.635742188 199.337890625 463.46875 217.837890625 466.46875 247.504882812 c 0
 469.46875 277.171875 471.96875 312.671875 473.96875 354.004882812 c 0
 474.302734375 360.004882812 474.46875 366.004882812 474.46875 372.004882812 c 0
 474.46875 378.004882812 474.302734375 384.004882812 473.96875 390.004882812 c 0
 473.96875 418.671875 472.635742188 447.338867188 469.96875 476.005859375 c 0
 465.96875 515.338867188 451.635742188 548.005859375 426.96875 574.005859375 c 0
 402.96875 599.338867188 373.46875 612.005859375 338.46875 612.005859375 c 0
 303.46875 612.005859375 273.96875 600.672851562 249.96875 578.005859375 c 0
 225.30078125 554.005859375 207.30078125 520.672851562 195.96875 478.005859375 c 0
 183.30078125 430.005859375 176.96875 375.005859375 176.96875 313.005859375 c 0
 176.96875 274.338867188 178.96875 240.338867188 182.96875 211.005859375 c 0
 185.635742188 194.338867188 189.96875 177.838867188 195.96875 161.505859375 c 0
 201.96875 145.172851562 208.96875 131.505859375 216.96875 120.505859375 c 0
 224.96875 109.505859375 234.96875 100.672851562 246.96875 94.005859375 c 0
588.96875 480 m 0
 592.34375 438.375 594.03125 397.172851562 594.03125 356.392578125 c 0
 594.03125 324.67578125 593.010742188 293.213867188 590.96875 262.005859375 c 0
 588.30078125 222.672851562 583.634765625 192.33984375 576.967773438 171.006835938 c 0
 568.30078125 139.673828125 557.30078125 112.673828125 543.967773438 90.0068359375 c 0
 530.634765625 67.33984375 515.80078125 48.6728515625 499.46875 34.005859375 c 0
 483.135742188 19.3388671875 463.302734375 7.671875 439.96875 -0.9951171875 c 0
 416.63671875 -9.662109375 393.13671875 -15.662109375 369.46875 -18.9951171875 c 0
 345.802734375 -22.328125 318.635742188 -23.9951171875 287.96875 -23.9951171875 c 0
 240.635742188 -23.328125 198.302734375 -10.6611328125 160.96875 14.005859375 c 0
 126.302734375 39.3388671875 99.96875 72.671875 81.96875 114.004882812 c 0
 64.63671875 154.004882812 55.96875 197.337890625 55.96875 244.004882812 c 2
 55.96875 249.004882812 l 1
 55.96875 266.004882812 l 2
 55.96875 295.337890625 56.13671875 318.670898438 56.46875 336.00390625 c 0
 56.802734375 353.336914062 57.96875 376.669921875 59.96875 406.002929688 c 0
 63.96875 463.3359375 75.63671875 516.668945312 94.96875 566.001953125 c 1
 94.96875 567.000976562 l 1
 112.96875 611.66796875 144.302734375 648.000976562 188.96875 676.000976562 c 0
 236.96875 704.000976562 291.302734375 718.000976562 351.96875 718.000976562 c 0
 382.63671875 718.000976562 411.96875 712.333984375 439.96875 701.000976562 c 0
 467.96875 690.333984375 492.302734375 675.166992188 512.96875 655.5 c 0
 533.63671875 635.833007812 550.63671875 611 563.96875 581 c 0
 577.302734375 551 585.635742188 517.333007812 588.96875 480 c 0
EndSplineSet
Validated: 524289
EndChar

StartChar: P
Encoding: 80 80 48
Width: 650
GlyphClass: 2
Flags: W
HStem: -18.9971 21G<132.72 149.72> 218 105.918<195.556 398.305> 605.004 105.999<199.183 415.508>
VStem: 80.0537 129.999<-2.55739 224.218> 80.0537 113.996<32.1765 93.9443 96.7622 226 328.472 599.255> 469.055 115.995<391.836 558.239>
LayerCount: 2
Fore
SplineSet
203.049804688 109 m 0xec
 207.716796875 61 210.052734375 35.3369140625 210.052734375 32.00390625 c 0
 210.052734375 15.3369140625 201.719726562 2.669921875 185.052734375 -5.9970703125 c 0
 171.719726562 -14.6640625 157.38671875 -18.9970703125 142.053710938 -18.9970703125 c 0
 123.38671875 -18.9970703125 108.053710938 -13.6640625 96.0537109375 -2.9970703125 c 0
 85.38671875 6.3359375 80.0537109375 18.6689453125 80.0537109375 34.001953125 c 0xf4
 80.0537109375 36.6689453125 80.38671875 41.001953125 81.0537109375 47.001953125 c 0
 81.720703125 56.3349609375 82.0537109375 72.3349609375 82.0537109375 95.001953125 c 0
 82.0537109375 132.334960938 81.38671875 183.66796875 80.0537109375 249.000976562 c 0
 77.38671875 359.66796875 75.7197265625 425.334960938 75.052734375 446.001953125 c 0
 74.830078125 463.56640625 74.71875 481.538085938 74.71875 499.91796875 c 0
 74.71875 536.650390625 75.1630859375 575.01171875 76.0517578125 615.001953125 c 1
 75.384765625 609.668945312 74.7177734375 610.3359375 74.05078125 617.002929688 c 1
 74.05078125 611.669921875 73.7177734375 611.669921875 73.05078125 617.002929688 c 0
 67.05078125 625.669921875 64.3837890625 634.336914062 65.05078125 643.00390625 c 2
 65.05078125 651.00390625 l 2
 67.05078125 661.00390625 71.7177734375 670.00390625 79.05078125 678.00390625 c 0
 86.3837890625 686.00390625 94.716796875 691.00390625 104.049804688 693.00390625 c 0
 128.716796875 698.336914062 165.383789062 702.669921875 214.05078125 706.002929688 c 0
 265.383789062 709.3359375 301.383789062 711.002929688 322.05078125 711.002929688 c 0
 374.05078125 711.002929688 420.383789062 703.002929688 461.05078125 687.002929688 c 0
 498.383789062 670.3359375 528.216796875 645.168945312 550.549804688 611.501953125 c 0
 572.8828125 577.834960938 584.3828125 538.001953125 585.049804688 492.001953125 c 1
 585.049804688 454.668945312 578.716796875 419.168945312 566.049804688 385.501953125 c 0
 553.3828125 351.834960938 536.049804688 322.66796875 514.049804688 298.000976562 c 0
 492.049804688 273.333984375 463.716796875 253.666992188 429.049804688 239 c 0
 395.25390625 224.970703125 359.017578125 217.956054688 320.341796875 217.956054688 c 0
 318.583007812 217.956054688 316.818359375 217.970703125 315.049804688 218 c 0
 266.3828125 218 226.049804688 220.666992188 194.049804688 226 c 1
 196.049804688 188 199.049804688 149 203.049804688 109 c 0xec
191.052734375 334.00390625 m 1
 214.88671875 327.28125 242.3671875 323.91796875 273.485351562 323.91796875 c 0
 276.313476562 323.91796875 279.170898438 323.9453125 282.05859375 324.000976562 c 0
 302.05859375 324.000976562 320.391601562 325.333984375 337.05859375 328.000976562 c 0
 353.725585938 330.66796875 368.05859375 334.000976562 380.05859375 338.000976562 c 0
 392.05859375 342.000976562 402.55859375 347.333984375 411.55859375 354.000976562 c 0
 420.55859375 360.66796875 428.225585938 367.334960938 434.55859375 374.001953125 c 0
 440.891601562 380.668945312 446.224609375 388.501953125 450.557617188 397.501953125 c 0
 454.890625 406.501953125 458.223632812 414.668945312 460.556640625 422.001953125 c 0
 462.889648438 429.334960938 464.72265625 438.16796875 466.055664062 448.500976562 c 0
 467.388671875 458.833984375 468.221679688 467.333984375 468.5546875 474.000976562 c 0
 468.887695312 480.66796875 469.0546875 488.334960938 469.0546875 497.001953125 c 0
 469.0546875 513.668945312 465.721679688 528.3359375 459.0546875 541.002929688 c 0
 452.387695312 553.669921875 444.0546875 563.836914062 434.0546875 571.50390625 c 0
 424.0546875 579.170898438 412.221679688 585.670898438 398.5546875 591.00390625 c 0
 384.887695312 596.336914062 371.720703125 600.00390625 359.053710938 602.00390625 c 0
 346.38671875 604.00390625 334.053710938 605.00390625 322.053710938 605.00390625 c 0
 298.720703125 605.00390625 257.053710938 602.670898438 197.053710938 598.00390625 c 1
 194.38671875 518.00390625 192.719726562 464.336914062 192.052734375 437.00390625 c 0
 191.385742188 400.336914062 191.052734375 366.00390625 191.052734375 334.00390625 c 1
EndSplineSet
Validated: 524289
EndChar

StartChar: Q
Encoding: 81 81 49
Width: 650
GlyphClass: 2
Flags: W
HStem: -24 21G<295 322> 612 106<261.162 404.668>
VStem: 50.999 120.952<161.037 483.098> 262.999 106<138.764 207.502> 472.999 118.145<137.38 526.522>
LayerCount: 2
Fore
SplineSet
569.001953125 -204 m 0
 560.334960938 -209.333007812 551 -212 541 -212 c 0
 536.333007812 -212 531 -211.333007812 525 -210 c 0
 509.666992188 -206 497.333984375 -197.666992188 488.000976562 -185 c 0
 477.333984375 -172.333007812 460.166992188 -150 436.5 -118 c 0
 412.833007812 -86 390 -53.6669921875 368 -21 c 1
 350.666992188 -23 332 -24 312 -24 c 0
 278 -24 246.666992188 -19 218 -9 c 0
 189.333007812 0.3330078125 165.333007812 13.666015625 146 30.9990234375 c 0
 126.666992188 48.33203125 110 68.33203125 96 90.9990234375 c 0
 69.3330078125 134.999023438 54.666015625 187.666015625 51.9990234375 248.999023438 c 0
 51.33203125 266.33203125 50.9990234375 282.999023438 50.9990234375 298.999023438 c 0
 50.9990234375 403.666015625 64.666015625 491.333007812 91.9990234375 562 c 1
 109.999023438 606.666992188 141.666015625 644 186.999023438 674 c 0
 234.999023438 703.333007812 288.666015625 718 347.999023438 718 c 0
 411.33203125 718 464.33203125 699 506.999023438 661 c 0
 527.666015625 642.333007812 544.833007812 617.5 558.5 586.5 c 0
 572.166992188 555.5 581.333984375 520 586.000976562 480 c 0
 589.4296875 449.14453125 591.143554688 413.879882812 591.143554688 374.208984375 c 0
 591.143554688 367.594726562 591.096679688 360.858398438 591.000976562 354 c 0
 591.000976562 269.333007812 586.66796875 206.333007812 578.000976562 165 c 0
 564.000976562 97 533.000976562 47 485.000976562 15 c 1
 506.333984375 -14.3330078125 532.333984375 -48 563.000976562 -86 c 0
 581.66796875 -109.333007812 591.000976562 -121.333007812 591.000976562 -122 c 0
 596.333984375 -130 599.000976562 -138.333007812 599.000976562 -147 c 0
 599.000976562 -149.666992188 598.66796875 -152 598.000976562 -154 c 0
 596.66796875 -164 593.334960938 -173.666992188 588.001953125 -183 c 0
 582.001953125 -192.333007812 575.668945312 -199.333007812 569.001953125 -204 c 0
274 114 m 0
 266.666992188 131.333007812 262.999023438 147 262.999023438 161 c 0
 262.999023438 182.333007812 271.666015625 199 288.999023438 211 c 0
 298.999023438 218.333007812 309.666015625 222.333007812 320.999023438 223 c 0
 330.33203125 223 339.33203125 220 347.999023438 214 c 0
 356.666015625 208 363.666015625 198.666992188 368.999023438 186 c 0
 380.33203125 156.666992188 396.33203125 125 416.999023438 91 c 1
 438.999023438 108.333007812 453.999023438 134 461.999023438 168 c 0
 463.999023438 177.333007812 466.166015625 197 468.499023438 227 c 0
 470.83203125 257 472.33203125 294.666992188 472.999023438 340 c 2
 472.999023438 356 l 2
 472.999023438 395.333007812 470.666015625 433 465.999023438 469 c 0
 459.999023438 513.666992188 445.33203125 549 421.999023438 575 c 0
 399.33203125 599.666992188 370.165039062 612 334.498046875 612 c 0
 298.831054688 612 268.998046875 600.333007812 244.998046875 577 c 0
 220.331054688 553 202.331054688 518.666992188 190.998046875 474 c 0
 178.299804688 425.112304688 171.951171875 374.108398438 171.951171875 320.98828125 c 0
 171.951171875 318.331054688 171.966796875 315.66796875 171.999023438 313 c 0
 171.999023438 293 172.666015625 272.333007812 173.999023438 251 c 1
 176.666015625 214.333007812 184.333007812 181.5 197 152.5 c 0
 209.666992188 123.5 226 100.666992188 246 84 c 0
 262.666992188 70.6669921875 281 63 301 61 c 1
 289 82.3330078125 280 100 274 114 c 0
EndSplineSet
Validated: 524289
EndChar

StartChar: R
Encoding: 82 82 50
Width: 650
GlyphClass: 2
Flags: W
HStem: -18.9961 21G<111.167 131.501 526.501 542.167> 694.002 20G<108.833 125.499>
VStem: 61.501 118.999<129 609.003> 66.167 123.334<-2.55641 249.432> 66.5 115.001<371.653 607.007> 66.5 104.999<34.426 251 369.003 497.376> 466.501 116.998<408.488 493.809>
LayerCount: 2
Fore
SplineSet
178.500976562 449.00390625 m 0xca
 177.16796875 431.670898438 174.83203125 405.3359375 171.499023438 370.002929688 c 1xc6
 176.83203125 369.3359375 183.83203125 369.002929688 192.499023438 369.002929688 c 0
 201.166015625 369.002929688 211.833007812 369.669921875 224.5 371.002929688 c 0
 253.833007812 372.3359375 278.5 373.668945312 298.5 375.001953125 c 0
 349.166992188 379.001953125 385.833984375 384.334960938 408.500976562 391.001953125 c 0
 420.500976562 395.001953125 431.16796875 399.668945312 440.500976562 405.001953125 c 0
 449.833984375 410.334960938 456.500976562 416.16796875 460.500976562 422.500976562 c 0
 464.500976562 428.833984375 466.500976562 436.333984375 466.500976562 445.000976562 c 0
 466.500976562 461.000976562 459.66796875 476.833984375 446.000976562 492.500976562 c 0
 432.333984375 508.16796875 414.500976562 522.334960938 392.500976562 535.001953125 c 0
 370.500976562 547.668945312 345.333984375 559.3359375 317.000976562 570.002929688 c 0
 288.66796875 580.669921875 262.834960938 589.002929688 239.501953125 595.002929688 c 0
 216.168945312 601.002929688 195.501953125 605.669921875 177.501953125 609.002929688 c 1
 178.834960938 566.3359375 180.16796875 529.3359375 181.500976562 498.002929688 c 0
 181.500976562 484.669921875 180.500976562 468.336914062 178.500976562 449.00390625 c 0xca
180.5 129 m 0xe2
 186.5 74.3330078125 189.500976562 42.669921875 189.500976562 34.0029296875 c 0xd2
 189.500976562 16.669921875 181.833984375 3.3369140625 166.500976562 -5.99609375 c 0
 153.833984375 -14.6630859375 139.500976562 -18.99609375 123.500976562 -18.99609375 c 2
 119.500976562 -18.99609375 l 2
 102.833984375 -18.3291015625 88.833984375 -12.99609375 77.5009765625 -2.99609375 c 0
 66.833984375 6.3369140625 61.5009765625 18.669921875 61.5009765625 34.0029296875 c 2
 61.5009765625 42.0029296875 l 2xe2
 64.16796875 75.3359375 65.5 103.3359375 65.5 126.002929688 c 0
 65.5 132.002929688 65.66796875 145.169921875 66.0009765625 165.502929688 c 0
 66.1123046875 172.274414062 66.1669921875 179.895507812 66.1669921875 188.3671875 c 0xd2
 66.1669921875 205.334960938 65.9453125 225.712890625 65.5 249.502929688 c 0
 64.8330078125 285.169921875 64.5 307.502929688 64.5 316.502929688 c 0
 64.5 325.502929688 65.1669921875 343.3359375 66.5 370.002929688 c 0xc6
 67.5 393.002929688 68 414.752929688 68 435.252929688 c 0
 68 455.752929688 67.5 475.002929688 66.5 493.002929688 c 0xca
 65.8330078125 515.002929688 64.16796875 544.66796875 61.5009765625 582.000976562 c 0
 58.833984375 619.333984375 57.4990234375 642.002929688 57.4990234375 650.002929688 c 2
 57.4990234375 655.002929688 l 2
 57.4990234375 656.3359375 57.166015625 657.668945312 56.4990234375 659.001953125 c 0
 56.4990234375 671.001953125 61.9990234375 683.168945312 72.9990234375 695.501953125 c 0
 83.9990234375 707.834960938 99.166015625 714.001953125 118.499023438 714.001953125 c 0
 132.499023438 714.001953125 144.166015625 711.334960938 153.499023438 706.001953125 c 1
 211.499023438 703.334960938 265.499023438 696.16796875 315.499023438 684.500976562 c 0
 365.499023438 672.833984375 407.499023438 658.333984375 441.499023438 641.000976562 c 0
 474.166015625 623.66796875 501.166015625 604.000976562 522.499023438 582.000976562 c 0
 543.83203125 560.000976562 559.33203125 537.66796875 568.999023438 515.000976562 c 0
 578.666015625 492.333984375 583.499023438 469.333984375 583.499023438 446.000976562 c 0
 583.499023438 394.000976562 562.83203125 355.000976562 521.499023438 329.000976562 c 0
 508.166015625 321.000976562 493.833007812 314.000976562 478.5 308.000976562 c 0
 462.5 302.66796875 443.666992188 297.834960938 422 293.501953125 c 0
 400.333007812 289.168945312 381.833007812 286.168945312 366.5 284.501953125 c 0
 351.166992188 282.834960938 338.5 281.66796875 328.5 281.000976562 c 1
 387.166992188 251.000976562 439.5 217.333984375 485.5 180.000976562 c 0
 538.166992188 134.66796875 572.833984375 95.0009765625 589.500976562 61.0009765625 c 0
 592.16796875 53.66796875 593.500976562 46.66796875 593.500976562 40.0009765625 c 0
 593.500976562 33.333984375 592.500976562 27.0009765625 590.500976562 21.0009765625 c 0
 585.833984375 9.0009765625 578.166992188 -0.666015625 567.5 -7.9990234375 c 0
 558.166992188 -14.666015625 547.833984375 -17.9990234375 536.500976562 -17.9990234375 c 0
 516.500976562 -17.9990234375 499.16796875 -7.9990234375 484.500976562 12.0009765625 c 0
 473.833984375 25.333984375 458.000976562 42.1669921875 437.000976562 62.5 c 0
 416.000976562 82.8330078125 390.500976562 105.333007812 360.500976562 130 c 0
 330.500976562 154.666992188 296.500976562 179 258.500976562 203 c 0
 227.833984375 222.333007812 198.166992188 238.333007812 169.5 251 c 1
 171.5 217.666992188 175.166992188 177 180.5 129 c 0xe2
EndSplineSet
Validated: 524289
EndChar

StartChar: S
Encoding: 83 83 51
Width: 650
GlyphClass: 2
Flags: W
HStem: -29 108.995<199.656 380.49> 620.998 102.998<275.853 540.886>
VStem: 49.96 10.0801<80.1222 81> 80.0439 127.998<475.646 569.182> 476.045 123.995<155.55 280.464>
LayerCount: 2
Fore
SplineSet
60.0400390625 73 m 1
 53.318359375 87.0537109375 49.9599609375 99.705078125 49.9599609375 110.958984375 c 0
 49.9599609375 115.76953125 50.2177734375 120.87109375 51.04296875 124.99609375 c 0
 55.04296875 140.329101562 64.3759765625 151.662109375 79.04296875 158.995117188 c 0
 87.7099609375 162.995117188 94.376953125 165.495117188 99.0439453125 166.495117188 c 0
 103.7109375 167.495117188 107.877929688 167.995117188 111.544921875 167.995117188 c 2
 120.044921875 167.995117188 l 2
 128.044921875 167.328125 135.544921875 163.995117188 142.544921875 157.995117188 c 0
 149.544921875 151.995117188 156.377929688 144.328125 163.044921875 134.995117188 c 0
 174.377929688 118.328125 190.544921875 104.995117188 211.544921875 94.9951171875 c 0
 232.544921875 84.9951171875 256.377929688 79.9951171875 283.044921875 79.9951171875 c 0
 299.044921875 79.9951171875 316.044921875 81.9951171875 334.044921875 85.9951171875 c 0
 352.044921875 89.9951171875 369.544921875 96.162109375 386.544921875 104.495117188 c 0
 403.544921875 112.828125 418.711914062 122.328125 432.044921875 132.995117188 c 0
 445.377929688 143.662109375 456.044921875 155.995117188 464.044921875 169.995117188 c 0
 472.044921875 183.995117188 476.044921875 198.995117188 476.044921875 214.995117188 c 0
 476.044921875 223.662109375 475.377929688 231.495117188 474.044921875 238.495117188 c 0
 472.711914062 245.495117188 470.211914062 252.995117188 466.544921875 260.995117188 c 0
 462.877929688 268.995117188 458.044921875 276.328125 452.044921875 282.995117188 c 0
 446.044921875 289.662109375 437.377929688 296.495117188 426.044921875 303.495117188 c 0
 414.711914062 310.495117188 401.211914062 316.662109375 385.544921875 321.995117188 c 0
 369.877929688 327.328125 350.2109375 332.328125 326.543945312 336.995117188 c 0
 302.876953125 341.662109375 276.876953125 345.329101562 248.543945312 347.99609375 c 0
 220.2109375 350.663085938 194.7109375 356.99609375 172.043945312 366.99609375 c 0
 150.7109375 376.99609375 133.543945312 389.49609375 120.543945312 404.49609375 c 0
 107.543945312 419.49609375 97.5439453125 435.329101562 90.5439453125 451.99609375 c 0
 83.5439453125 468.663085938 80.0439453125 485.330078125 80.0439453125 501.997070312 c 0
 80.0439453125 525.330078125 84.2109375 547.663085938 92.5439453125 568.99609375 c 0
 100.876953125 590.329101562 113.543945312 610.49609375 130.543945312 629.49609375 c 0
 147.543945312 648.49609375 168.376953125 664.99609375 193.043945312 678.99609375 c 0
 218.376953125 692.99609375 248.709960938 703.99609375 284.04296875 711.99609375 c 0
 319.375976562 719.99609375 357.375976562 723.99609375 398.04296875 723.99609375 c 0
 418.04296875 723.99609375 445.375976562 722.329101562 480.04296875 718.99609375 c 0
 512.04296875 715.663085938 534.375976562 711.663085938 547.04296875 706.99609375 c 0
 562.375976562 701.663085938 573.708984375 692.663085938 581.041992188 679.99609375 c 0
 586.375 670.663085938 589.041992188 660.330078125 589.041992188 648.997070312 c 0
 589.041992188 634.330078125 585.041992188 622.997070312 577.041992188 614.997070312 c 0
 570.375 608.330078125 562.375 604.330078125 553.041992188 602.997070312 c 0
 548.375 602.330078125 544.375 601.997070312 541.041992188 601.997070312 c 0
 537.708984375 601.997070312 534.041992188 602.330078125 530.041992188 602.997070312 c 0
 522.708984375 603.6640625 515.041992188 605.331054688 507.041992188 607.998046875 c 0
 495.708984375 610.665039062 486.708984375 612.665039062 480.041992188 613.998046875 c 0
 472.708984375 615.331054688 461.041992188 616.831054688 445.041992188 618.498046875 c 0
 429.041992188 620.165039062 410.375 620.998046875 389.041992188 620.998046875 c 0
 357.041992188 620.998046875 327.375 616.831054688 300.041992188 608.498046875 c 0
 272.708984375 600.165039062 250.541992188 588.33203125 233.541992188 572.999023438 c 0
 216.541992188 557.666015625 208.041992188 540.666015625 208.041992188 521.999023438 c 0
 208.041992188 500.666015625 218.375 482.666015625 239.041992188 467.999023438 c 0
 261.708984375 452.666015625 294.041992188 443.999023438 336.041992188 441.999023438 c 0
 377.375 439.999023438 414.375 434.33203125 447.041992188 424.999023438 c 0
 479.041992188 415.666015625 504.208984375 403.999023438 522.541992188 389.999023438 c 0
 540.875 375.999023438 556.208007812 359.499023438 568.541015625 340.499023438 c 0
 580.874023438 321.499023438 589.20703125 302.999023438 593.540039062 284.999023438 c 0
 597.873046875 266.999023438 600.040039062 247.666015625 600.040039062 226.999023438 c 0
 600.040039062 196.33203125 594.540039062 167.33203125 583.540039062 139.999023438 c 0
 572.540039062 112.666015625 557.373046875 88.8330078125 538.040039062 68.5 c 0
 518.70703125 48.1669921875 496.040039062 30.6669921875 470.040039062 16 c 0
 442.040039062 1.3330078125 412.040039062 -9.6669921875 380.040039062 -17 c 0
 347.373046875 -24.3330078125 313.706054688 -28.3330078125 279.0390625 -29 c 0
 225.706054688 -29 179.373046875 -19 140.040039062 1 c 0
 102.040039062 20.3330078125 75.70703125 44.3330078125 61.0400390625 73 c 0
 60.373046875 81 60.0400390625 81 60.0400390625 73 c 1
EndSplineSet
Validated: 524289
EndChar

StartChar: T
Encoding: 84 84 52
Width: 650
GlyphClass: 2
Flags: W
HStem: -13.002 21G<321.002 342.668> 591 110<403.266 585.528> 622 92<64.4397 254.029>
VStem: 258.002 135.998<346.537 596> 271.002 136.998<4.95311 342.594>
LayerCount: 2
Fore
SplineSet
381 1 m 0xc8
 367 -8.3330078125 351.334960938 -13.001953125 334.001953125 -13.001953125 c 2
 330.001953125 -13.001953125 l 2
 312.001953125 -13.001953125 297.001953125 -7.3349609375 285.001953125 3.998046875 c 0
 274.334960938 13.3310546875 269.001953125 25.998046875 269.001953125 41.998046875 c 0
 269.001953125 44.6650390625 269.334960938 48.83203125 270.001953125 54.4990234375 c 0
 270.66796875 60.166015625 271.001953125 73.3330078125 271.001953125 94 c 0xc8
 271.001953125 140 268.834960938 222.333007812 264.501953125 341 c 0
 260.16796875 459.666992188 258.001953125 544 258.001953125 594 c 2
 258.001953125 600 l 1
 172.66796875 604 123.66796875 607 111.001953125 609 c 0
 94.333984375 611.666992188 80.66796875 616 70 622 c 0
 56 630.666992188 49 642.666992188 49 658 c 2
 49 661 l 2
 49 675 54 687.666992188 64 699 c 0
 73.333984375 709 85.666015625 714 101 714 c 0xb0
 105 714 109.33203125 713.666992188 114 713 c 0
 150 707 292.666992188 703 542 701 c 0
 561.33203125 701 576 696 586 686 c 0
 596 676 601 664 601 650 c 0
 601 634.666992188 596 621 586 609 c 0
 576 597 562 591 544 591 c 0
 543.33203125 591 493.33203125 592.666992188 394 596 c 1xd0
 395.33203125 465.333007812 400 281.333007812 408 44 c 0
 406 25.3330078125 397 11 381 1 c 0xc8
EndSplineSet
Validated: 524289
EndChar

StartChar: U
Encoding: 85 85 53
Width: 650
GlyphClass: 2
Flags: W
HStem: -28.9971 114.999<236.955 404.214> 689.002 20G<100.938 119.271 540.272 552.606>
VStem: 44.7275 118.544<176.994 688.531> 487.771 117.501<180.084 691.435>
LayerCount: 2
Fore
SplineSet
475.272460938 17 m 0
 457.272460938 7 438.268554688 -1.6640625 418.268554688 -8.9970703125 c 0
 398.935546875 -16.330078125 380.102539062 -21.4970703125 361.76953125 -24.4970703125 c 0
 343.436523438 -27.4970703125 324.103515625 -28.9970703125 303.770507812 -28.9970703125 c 0
 283.4375 -28.9970703125 261.9375 -26.1640625 239.270507812 -20.4970703125 c 0
 216.603515625 -14.830078125 193.603515625 -5.330078125 170.270507812 8.0029296875 c 0
 148.270507812 21.3359375 128.603515625 38.1689453125 111.270507812 58.501953125 c 0
 93.9375 78.8349609375 79.6044921875 104.834960938 68.271484375 136.501953125 c 0
 56.9384765625 168.168945312 50.60546875 203.668945312 49.2724609375 243.001953125 c 0
 46.2421875 352.708007812 44.7275390625 437.065429688 44.7275390625 496.07421875 c 0
 44.7275390625 501.969726562 44.7421875 507.612304688 44.7724609375 513.001953125 c 0
 45.10546875 572.334960938 45.9384765625 615.66796875 47.271484375 643.000976562 c 0
 47.9384765625 663.66796875 54.271484375 679.834960938 66.271484375 691.501953125 c 0
 78.271484375 703.168945312 92.6044921875 709.001953125 109.271484375 709.001953125 c 0
 129.271484375 709.001953125 143.938476562 702.334960938 153.271484375 689.001953125 c 0
 159.938476562 679.001953125 163.271484375 665.334960938 163.271484375 648.001953125 c 0
 163.271484375 430.668945312 164.938476562 299.668945312 168.271484375 255.001953125 c 0
 169.604492188 236.334960938 172.104492188 219.66796875 175.771484375 205.000976562 c 0
 179.438476562 190.333984375 184.938476562 175.333984375 192.271484375 160.000976562 c 0
 199.604492188 144.66796875 208.604492188 131.834960938 219.271484375 121.501953125 c 0
 229.938476562 111.168945312 243.438476562 102.668945312 259.771484375 96.001953125 c 0
 276.104492188 89.3349609375 294.604492188 86.001953125 315.271484375 86.001953125 c 0
 363.271484375 86.001953125 402.104492188 100.168945312 431.771484375 128.501953125 c 0
 461.438476562 156.168945312 478.271484375 200.001953125 482.271484375 260.001953125 c 0
 484.271484375 287.334960938 485.938476562 318.334960938 487.271484375 353.001953125 c 0
 487.604492188 376.3359375 487.771484375 397.8359375 487.771484375 417.501953125 c 0
 487.771484375 437.168945312 487.604492188 455.001953125 487.271484375 471.001953125 c 0
 486.604492188 538.334960938 486.271484375 577.16796875 486.271484375 587.500976562 c 2
 486.271484375 634.000976562 l 2
 486.271484375 649.333984375 487.604492188 662.500976562 490.271484375 673.500976562 c 0
 492.938476562 684.500976562 497.60546875 692.66796875 504.272460938 698.000976562 c 0
 510.939453125 703.333984375 517.272460938 706.666992188 523.272460938 708 c 0
 529.272460938 709.333007812 536.272460938 710 544.272460938 710 c 0
 560.939453125 710 574.439453125 704 584.772460938 692 c 0
 595.10546875 680 600.60546875 664.333007812 601.272460938 645 c 0
 603.939453125 594.333007812 605.272460938 537.166015625 605.272460938 473.499023438 c 0
 605.272460938 409.83203125 603.939453125 339.33203125 601.272460938 261.999023438 c 0
 599.939453125 231.999023438 595.772460938 203.83203125 588.772460938 177.499023438 c 0
 581.772460938 151.166015625 572.772460938 128.333007812 561.772460938 109 c 0
 550.772460938 89.6669921875 537.939453125 72 523.272460938 56 c 0
 508.60546875 40 492.60546875 27 475.272460938 17 c 0
EndSplineSet
Validated: 524289
EndChar

StartChar: V
Encoding: 86 86 54
Width: 650
GlyphClass: 2
Flags: W
HStem: -12 21G<323.503 340.499> 691.001 20G<86.501 94.501>
LayerCount: 2
Fore
SplineSet
331.499023438 -12 m 2
 323.502929688 -11.9990234375 l 2
 307.502929688 -11.9990234375 293.8359375 -9.666015625 282.502929688 -4.9990234375 c 0
 267.169921875 1.0009765625 256.169921875 11.0009765625 249.502929688 25.0009765625 c 0
 219.502929688 95.66796875 178.169921875 205.000976562 125.502929688 353.000976562 c 0
 74.8359375 502.333984375 46.1689453125 593.333984375 39.501953125 626.000976562 c 0
 36.8349609375 639.333984375 35.16796875 651.666992188 34.5009765625 663 c 0
 34.5009765625 671.666992188 36.833984375 679.666992188 41.5009765625 687 c 0
 46.833984375 695.666992188 55.5009765625 702.333984375 67.5009765625 707.000976562 c 0
 74.833984375 709.66796875 82.5009765625 711.000976562 90.5009765625 711.000976562 c 0
 98.5009765625 711.000976562 106.833984375 709.333984375 115.500976562 706.000976562 c 0
 130.833984375 699.333984375 142.166992188 685.333984375 149.5 664.000976562 c 0
 153.5 649.333984375 187.166992188 549.000976562 250.5 363.000976562 c 0
 279.833007812 278.333984375 302.5 214.000976562 318.5 170.000976562 c 1
 344.5 240.66796875 378.5 335.66796875 420.5 455.000976562 c 2
 494.5 664.000976562 l 2
 502.5 684.66796875 514.5 698.334960938 530.5 705.001953125 c 0
 539.166992188 708.334960938 547.666992188 710.16796875 556 710.500976562 c 0
 564.333007812 710.833984375 572.166015625 709.666992188 579.499023438 707 c 0
 588.83203125 703.666992188 596.83203125 698.666992188 603.499023438 692 c 0
 609.499023438 684.666992188 613.499023438 676 615.499023438 666 c 2
 615.499023438 660 l 2
 615.499023438 648 612.83203125 635 607.499023438 621 c 0
 592.83203125 587 558.499023438 494 504.499023438 342 c 0
 447.166015625 188 410.499023438 83 394.499023438 27 c 0
 390.499023438 15.6669921875 384.166015625 6.6669921875 375.499023438 0 c 0
 364.166015625 -8 349.499023438 -12 331.499023438 -12 c 2
EndSplineSet
Validated: 524289
EndChar

StartChar: W
Encoding: 87 87 55
Width: 650
GlyphClass: 2
Flags: W
HStem: -11 21G<452.49 474.157> 693.053 20.9482G<89.1577 102.491 317.415 335.876 343.824 351.824 553.117 561.31>
VStem: 36.4912 112.001<400.659 693.625> 506.49 107.019<369.179 695.466>
LayerCount: 2
Fore
SplineSet
506.490234375 632 m 0
 506.490234375 638 506.15625 644.333007812 505.489257812 651 c 0
 505.489257812 669.666992188 510.822265625 684.666992188 521.489257812 696 c 0
 532.225585938 707.368164062 545.35546875 713.052734375 560.87890625 713.052734375 c 0
 561.741210938 713.052734375 562.611328125 713.03515625 563.489257812 713 c 0
 596.834960938 713 613.508789062 689.594726562 613.508789062 642.782226562 c 0
 613.508789062 601.635742188 609.71484375 546.993164062 603.489257812 481 c 0
 595.489257812 391.666992188 591.489257812 345.333984375 591.489257812 342.000976562 c 0
 588.822265625 313.333984375 584.822265625 271.666992188 579.489257812 217 c 0
 573.489257812 161.666992188 567.822265625 118.666992188 562.489257812 88 c 0
 557.15625 58.6669921875 551.823242188 38.6669921875 546.490234375 28 c 0
 538.490234375 14 525.823242188 3.6669921875 508.490234375 -3 c 0
 494.490234375 -8.3330078125 480.823242188 -11 467.490234375 -11 c 2
 460.490234375 -11 l 2
 444.490234375 -11 430.823242188 -8.6669921875 419.490234375 -4 c 0
 404.823242188 2 394.823242188 12 389.490234375 26 c 0
 371.490234375 89.3330078125 357.490234375 174 347.490234375 280 c 2
 330.490234375 459 l 1
 323.157226562 390.333007812 315.157226562 320.333007812 306.490234375 249 c 0
 292.490234375 134.333007812 280.490234375 60 270.490234375 26 c 0
 267.157226562 16 259.157226562 8 246.490234375 2 c 0
 235.157226562 -4 223.82421875 -8 212.491210938 -10 c 0
 205.158203125 -11.3330078125 198.825195312 -11.8330078125 193.4921875 -11.5 c 0
 188.159179688 -11.1669921875 184.159179688 -11 181.4921875 -11 c 2
 177.4921875 -11 l 2
 171.4921875 -11 166.4921875 -10.6669921875 162.4921875 -10 c 0
 158.4921875 -10 152.4921875 -9.3330078125 144.4921875 -8 c 0
 137.159179688 -6.6669921875 130.826171875 -4.6669921875 125.493164062 -2 c 0
 120.16015625 0.6669921875 115.493164062 5 111.493164062 11 c 0
 106.826171875 17 103.826171875 24 102.493164062 32 c 1
 101.826171875 36.6669921875 98.1591796875 58.333984375 91.4921875 97.0009765625 c 0
 84.8251953125 135.000976562 80.158203125 170.000976562 77.4912109375 202.000976562 c 0
 69.4912109375 278.000976562 56.158203125 420.66796875 37.4912109375 630.000976562 c 0
 36.82421875 636.000976562 36.4912109375 642.000976562 36.4912109375 648.000976562 c 0
 36.4912109375 679.333984375 48.82421875 700.333984375 73.4912109375 711.000976562 c 0
 79.4912109375 713.000976562 85.82421875 714.000976562 92.4912109375 714.000976562 c 2
 98.4912109375 714.000976562 l 2
 106.491210938 713.333984375 114.158203125 711.333984375 121.491210938 708.000976562 c 0
 130.158203125 705.333984375 136.825195312 700.666992188 141.4921875 694 c 0
 146.159179688 686 148.4921875 677.333007812 148.4921875 668 c 2
 148.4921875 660 l 2
 148.4921875 615.333007812 159.825195312 475.666015625 182.4921875 240.999023438 c 0
 183.825195312 224.999023438 186.158203125 204.666015625 189.491210938 179.999023438 c 1
 190.82421875 189.999023438 193.157226562 207.666015625 196.490234375 232.999023438 c 0
 206.490234375 309.666015625 212.823242188 359.333007812 215.490234375 382 c 0
 240.157226562 562.666992188 257.490234375 664.333984375 267.490234375 687.000976562 c 0
 277.10546875 703.026367188 299.6640625 711.0390625 335.166015625 711.0390625 c 0
 336.586914062 711.0390625 338.028320312 711.026367188 339.490234375 711.000976562 c 0
 341.490234375 711.000976562 343.157226562 711.333984375 344.490234375 712.000976562 c 0
 359.157226562 712.000976562 371.490234375 709.66796875 381.490234375 705.000976562 c 0
 394.157226562 700.333984375 402.157226562 693.666992188 405.490234375 685 c 0
 408.823242188 673 412.823242188 653 417.490234375 625 c 0
 425.490234375 573.666992188 433.490234375 515.666992188 441.490234375 451 c 0
 449.490234375 385.666992188 455.490234375 339.666992188 459.490234375 313 c 0
 463.490234375 281.666992188 468.823242188 246.666992188 475.490234375 208 c 1
 484.157226562 287.333007812 492.157226562 382.333007812 499.490234375 493 c 0
 504.157226562 559.666992188 506.490234375 606 506.490234375 632 c 0
EndSplineSet
Validated: 524289
EndChar

